<svg width="20" height="20" viewBox="0 0 20 20" xmlns="http://www.w3.org/2000/svg">
<g clip-path="url(#clip0_206_76)">
<path d="M9.75 18.5C14.5824 18.5 18.5 14.5824 18.5 9.75C18.5 4.91761 14.5824 1 9.75 1M9.75 18.5C4.91761 18.5 1 14.5824 1 9.75C1 4.91761 4.91761 1 9.75 1M9.75 18.5C12.1364 18.5 12.9318 14.5227 12.9318 9.75C12.9318 4.97727 12.1364 1 9.75 1M9.75 18.5C7.36364 18.5 6.56818 14.5227 6.56818 9.75C6.56818 4.97727 7.36364 1 9.75 1M1.79545 12.9318H17.7045M1.79545 6.56818H17.7045" stroke-width="2"/>
</g>
<defs>
<clipPath id="clip0_206_76">
<rect width="20" height="20"/>
</clipPath>
</defs>
</svg>
