<svg width="527" height="784" viewBox="0 0 527 784" fill="none" xmlns="http://www.w3.org/2000/svg">
<mask id="mask0_65_38" style="mask-type:luminance" maskUnits="userSpaceOnUse" x="-40" y="-1" width="647" height="824">
<path d="M607 823L607 -1L-40 -1L-40 823L607 823Z" fill="white"/>
</mask>
<g mask="url(#mask0_65_38)">
<path d="M-303.61 -157.393V206.771L290.575 204.505L688.279 -157.393H-303.61Z" fill="#F6F3E0"/>
<path d="M358.826 -157.393L507.799 6.79428L508.398 6.33617L359.847 -157.393H358.826Z" fill="url(#paint0_linear_65_38)"/>
<path d="M277.75 -157.393L486.076 26.6173L486.62 26.1035L278.873 -157.393H277.75Z" fill="url(#paint1_linear_65_38)"/>
<path d="M176.197 -157.393L464.354 46.4342L464.837 45.8708L177.476 -157.393H176.197Z" fill="url(#paint2_linear_65_38)"/>
<path d="M45.3066 -157.393L442.637 66.2511L443.045 65.6443L46.7966 -157.393H45.3066Z" fill="url(#paint3_linear_65_38)"/>
<path d="M-129.784 -157.393L420.914 86.0617L421.261 85.4241L-127.995 -157.393H-129.784Z" fill="url(#paint4_linear_65_38)"/>
<path d="M-303.61 -133.564V-132.803L399.198 105.872L399.477 105.204L-303.61 -133.564Z" fill="url(#paint5_linear_65_38)"/>
<path d="M-303.61 -46.4036V-45.6669L377.481 125.671L377.685 124.984L-303.61 -46.4036Z" fill="url(#paint6_linear_65_38)"/>
<path d="M-303.61 29.2856V30.01L355.758 145.475L355.908 144.776L-303.61 29.2856Z" fill="url(#paint7_linear_65_38)"/>
<path d="M-303.61 95.6204V96.3385L334.035 165.273L334.123 164.561L-303.61 95.6204Z" fill="url(#paint8_linear_65_38)"/>
<path d="M-303.61 154.241V154.953L312.305 185.072L312.346 184.36L-303.61 154.241Z" fill="url(#paint9_linear_65_38)"/>
<path d="M290.573 204.156L-303.619 207.624L-303.614 208.335L290.578 204.868L290.573 204.156Z" fill="url(#paint10_linear_65_38)"/>
<path d="M687.729 -157.393L290.297 204.257L290.848 204.759L688.831 -157.393H687.729Z" fill="url(#paint11_linear_65_38)"/>
<path d="M673.754 -157.393L276.254 204.319L276.805 204.827L674.863 -157.393H673.754Z" fill="url(#paint12_linear_65_38)"/>
<path d="M659.194 -157.393L261.592 204.412L262.15 204.913L660.303 -157.393H659.194Z" fill="url(#paint13_linear_65_38)"/>
<path d="M644.036 -157.393L246.359 204.48L246.91 204.988L645.145 -157.393H644.036Z" fill="url(#paint14_linear_65_38)"/>
<path d="M628.24 -157.393L230.461 204.573L231.012 205.081L629.342 -157.393H628.24Z" fill="url(#paint15_linear_65_38)"/>
<path d="M611.755 -157.393L213.867 204.672L214.425 205.173L612.864 -157.393H611.755Z" fill="url(#paint16_linear_65_38)"/>
<path d="M594.543 -157.393L196.525 204.79L197.083 205.297L595.652 -157.393H594.543Z" fill="url(#paint17_linear_65_38)"/>
<path d="M576.562 -157.393L178.477 204.851L179.028 205.353L577.664 -157.393H576.562Z" fill="url(#paint18_linear_65_38)"/>
<path d="M557.743 -157.393L159.549 204.951L160.1 205.452L558.852 -157.393H557.743Z" fill="url(#paint19_linear_65_38)"/>
<path d="M517.373 -157.393L118.92 205.192L119.471 205.693L518.482 -157.393H517.373Z" fill="url(#paint20_linear_65_38)"/>
<path d="M538.033 -157.393L139.703 205.081L140.254 205.582L539.142 -157.393H538.033Z" fill="url(#paint21_linear_65_38)"/>
<path d="M495.69 -157.393L97.1016 205.31L97.6526 205.811L496.799 -157.393H495.69Z" fill="url(#paint22_linear_65_38)"/>
<path d="M448.924 -157.393L50.0566 205.563L50.6077 206.071L450.033 -157.393H448.924Z" fill="url(#paint23_linear_65_38)"/>
<path d="M472.899 -157.393L74.1738 205.433L74.7317 205.935L474.008 -157.393H472.899Z" fill="url(#paint24_linear_65_38)"/>
<path d="M423.73 -157.393L24.6719 205.731L25.2298 206.238L424.832 -157.393H423.73Z" fill="url(#paint25_linear_65_38)"/>
<path d="M368.841 -157.393L-30.5098 205.997L-29.9519 206.504L369.95 -157.393H368.841Z" fill="url(#paint26_linear_65_38)"/>
<path d="M397 -157.393L-2.17383 205.848L-1.62275 206.35L398.109 -157.393H397Z" fill="url(#paint27_linear_65_38)"/>
<path d="M339.029 -157.393L-60.4922 206.164L-59.9411 206.665L340.138 -157.393H339.029Z" fill="url(#paint28_linear_65_38)"/>
<path d="M273.886 -157.393L-126.029 206.517L-125.478 207.018L274.988 -157.393H273.886Z" fill="url(#paint29_linear_65_38)"/>
<path d="M307.434 -157.393L-92.2773 206.331L-91.7263 206.839L308.543 -157.393H307.434Z" fill="url(#paint30_linear_65_38)"/>
<path d="M238.189 -157.393L-161.938 206.709L-161.386 207.216L239.298 -157.393H238.189Z" fill="url(#paint31_linear_65_38)"/>
<path d="M159.494 -157.393L-241.108 207.136L-240.551 207.643L160.603 -157.393H159.494Z" fill="url(#paint32_linear_65_38)"/>
<path d="M200.138 -157.393L-200.213 206.919L-199.662 207.421L201.247 -157.393H200.138Z" fill="url(#paint33_linear_65_38)"/>
<path d="M-303.61 182.923L70.3842 -157.393H69.2753L-303.61 181.921V182.923Z" fill="url(#paint34_linear_65_38)"/>
<path d="M115.98 -157.393L-284.881 207.377L-284.33 207.879L117.089 -157.393H115.98Z" fill="url(#paint35_linear_65_38)"/>
<path d="M-303.61 137.198L20.1278 -157.393H19.0188L-303.61 136.189V137.198Z" fill="url(#paint36_linear_65_38)"/>
<path d="M872.48 733.964L290.643 204.511L-303.61 207.724V975.227L-176.183 1091.18H872.48V733.964Z" fill="#F6F3E0"/>
<path d="M85.3584 1091.18L-303.61 737.232V738.241L84.2495 1091.18H85.3584Z" fill="url(#paint37_linear_65_38)"/>
<path d="M178.524 1091.18L-303.61 652.455V653.464L177.422 1091.18H178.524Z" fill="url(#paint38_linear_65_38)"/>
<path d="M262.947 1091.18L-303.61 575.633V576.642L261.838 1091.18H262.947Z" fill="url(#paint39_linear_65_38)"/>
<path d="M339.804 1091.18L-303.61 505.695V506.704L338.695 1091.18H339.804Z" fill="url(#paint40_linear_65_38)"/>
<path d="M410.063 1091.18L-303.61 441.762V442.771L408.954 1091.18H410.063Z" fill="url(#paint41_linear_65_38)"/>
<path d="M474.545 1091.18L-303.61 383.085V384.095L473.436 1091.18H474.545Z" fill="url(#paint42_linear_65_38)"/>
<path d="M533.931 1091.18L-303.61 329.046V330.055L532.823 1091.18H533.931Z" fill="url(#paint43_linear_65_38)"/>
<path d="M588.801 1091.18L-303.61 279.117V280.12L587.698 1091.18H588.801Z" fill="url(#paint44_linear_65_38)"/>
<path d="M639.656 1091.18L-303.61 232.84V233.843L638.554 1091.18H639.656Z" fill="url(#paint45_linear_65_38)"/>
<path d="M686.919 1091.18L-284.33 207.377L-284.881 207.879L685.81 1091.18H686.919Z" fill="url(#paint46_linear_65_38)"/>
<path d="M730.956 1091.18L-240.551 207.136L-241.108 207.644L729.847 1091.18H730.956Z" fill="url(#paint47_linear_65_38)"/>
<path d="M772.09 1091.18L-199.662 206.919L-200.213 207.421L770.981 1091.18H772.09Z" fill="url(#paint48_linear_65_38)"/>
<path d="M810.597 1091.18L-161.386 206.709L-161.938 207.216L809.488 1091.18H810.597Z" fill="url(#paint49_linear_65_38)"/>
<path d="M846.716 1091.18L-125.478 206.517L-126.029 207.018L845.607 1091.18H846.716Z" fill="url(#paint50_linear_65_38)"/>
<path d="M872.481 1083.73L-91.7263 206.331L-92.2773 206.839L872.481 1084.74V1083.73Z" fill="url(#paint51_linear_65_38)"/>
<path d="M872.48 1054.64L-59.9411 206.164L-60.4922 206.665L872.48 1055.65V1054.64Z" fill="url(#paint52_linear_65_38)"/>
<path d="M872.48 1027.19L-29.9519 205.997L-30.5098 206.504L872.48 1028.2V1027.19Z" fill="url(#paint53_linear_65_38)"/>
<path d="M872.48 1001.25L-1.62275 205.848L-2.17383 206.35L872.48 1002.26V1001.25Z" fill="url(#paint54_linear_65_38)"/>
<path d="M872.481 976.706L25.1965 205.7L24.6387 206.207L872.481 977.715V976.706Z" fill="url(#paint55_linear_65_38)"/>
<path d="M872.479 953.441L50.6058 205.563L50.0547 206.071L872.479 954.45V953.441Z" fill="url(#paint56_linear_65_38)"/>
<path d="M872.481 931.364L74.7317 205.433L74.1738 205.935L872.481 932.367V931.364Z" fill="url(#paint57_linear_65_38)"/>
<path d="M872.481 910.378L97.6526 205.31L97.1016 205.811L872.481 911.387V910.378Z" fill="url(#paint58_linear_65_38)"/>
<path d="M872.481 890.406L119.471 205.192L118.92 205.693L872.481 891.415V890.406Z" fill="url(#paint59_linear_65_38)"/>
<path d="M872.48 871.381L140.254 205.081L139.703 205.582L872.48 872.391V871.381Z" fill="url(#paint60_linear_65_38)"/>
<path d="M872.48 853.236L160.079 204.969L159.521 205.477L872.48 854.245V853.236Z" fill="url(#paint61_linear_65_38)"/>
<path d="M872.48 835.908L179.006 204.87L178.455 205.372L872.48 836.917V835.908Z" fill="url(#paint62_linear_65_38)"/>
<path d="M872.48 819.347L197.103 204.771L196.545 205.279L872.48 820.357V819.347Z" fill="url(#paint63_linear_65_38)"/>
<path d="M872.481 803.499L214.419 204.678L213.861 205.18L872.481 804.502V803.499Z" fill="url(#paint64_linear_65_38)"/>
<path d="M872.48 788.319L230.997 204.585L230.439 205.093L872.48 789.328V788.319Z" fill="url(#paint65_linear_65_38)"/>
<path d="M872.481 773.771L246.891 204.499L246.34 205.006L872.481 774.78V773.771Z" fill="url(#paint66_linear_65_38)"/>
<path d="M872.48 759.81L262.137 204.418L261.586 204.926L872.48 760.819V759.81Z" fill="url(#paint67_linear_65_38)"/>
<path d="M872.48 746.407L276.784 204.338L276.227 204.845L872.48 747.416V746.407Z" fill="url(#paint68_linear_65_38)"/>
<path d="M872.48 733.524L290.854 204.263L290.303 204.771L872.48 734.533V733.524Z" fill="url(#paint69_linear_65_38)"/>
<path d="M501.057 1091.18L758.755 630.385L758.054 630.063L500.18 1091.18H501.057Z" fill="url(#paint70_linear_65_38)"/>
<path d="M431.411 1091.18L737.48 611.051L736.8 610.692L430.506 1091.18H431.411Z" fill="url(#paint71_linear_65_38)"/>
<path d="M354.874 1091.18L716.201 591.717L715.548 591.327L353.936 1091.18H354.874Z" fill="url(#paint72_linear_65_38)"/>
<path d="M270.362 1091.18L694.926 572.383L694.294 571.956L269.383 1091.18H270.362Z" fill="url(#paint73_linear_65_38)"/>
<path d="M176.564 1091.18L673.645 553.049L673.047 552.591L175.537 1091.18H176.564Z" fill="url(#paint74_linear_65_38)"/>
<path d="M71.861 1091.18L652.365 533.715L651.8 533.226L70.7793 1091.18H71.861Z" fill="url(#paint75_linear_65_38)"/>
<path d="M-45.7702 1091.18L631.083 514.381L630.546 513.861L-46.9199 1091.18H-45.7702Z" fill="url(#paint76_linear_65_38)"/>
<path d="M-177.408 1090.07L609.803 495.047L609.299 494.496L-177.966 1089.56L-177.408 1090.07Z" fill="url(#paint77_linear_65_38)"/>
<path d="M-241.693 1031.57L588.521 475.707L588.052 475.131L-242.258 1031.06L-241.693 1031.57Z" fill="url(#paint78_linear_65_38)"/>
<path d="M-303.61 971.661L567.234 456.367L566.805 455.772L-303.61 970.806V971.661Z" fill="url(#paint79_linear_65_38)"/>
<path d="M-303.61 879.82L545.953 437.026L545.565 436.414L-303.61 879.003V879.82Z" fill="url(#paint80_linear_65_38)"/>
<path d="M-303.61 796.225L524.665 417.686L524.318 417.049L-303.61 795.42V796.225Z" fill="url(#paint81_linear_65_38)"/>
<path d="M-303.61 719.799L503.384 398.346L503.071 397.69L-303.61 719.019V719.799Z" fill="url(#paint82_linear_65_38)"/>
<path d="M-303.61 649.669L482.103 379L481.824 378.337L-303.61 648.908V649.669Z" fill="url(#paint83_linear_65_38)"/>
<path d="M-303.61 585.086L460.816 359.66L460.578 358.979L-303.61 584.337V585.086Z" fill="url(#paint84_linear_65_38)"/>
<path d="M-303.61 525.413L439.535 340.313L439.331 339.626L-303.61 524.676V525.413Z" fill="url(#paint85_linear_65_38)"/>
<path d="M-303.61 470.116L418.254 320.967L418.084 320.267L-303.61 469.386V470.116Z" fill="url(#paint86_linear_65_38)"/>
<path d="M-303.61 418.726L396.973 301.621L396.83 300.915L-303.61 418.002V418.726Z" fill="url(#paint87_linear_65_38)"/>
<path d="M-303.61 370.846L375.692 282.268L375.583 281.562L-303.61 370.122V370.846Z" fill="url(#paint88_linear_65_38)"/>
<path d="M-303.61 326.124L354.418 262.921L354.329 262.209L-303.61 325.405V326.124Z" fill="url(#paint89_linear_65_38)"/>
<path d="M-303.61 284.268L333.137 243.575L333.083 242.863L-303.61 283.549V284.268Z" fill="url(#paint90_linear_65_38)"/>
<path d="M-303.61 244.999L311.856 224.223L311.829 223.511L-303.61 244.281V244.999Z" fill="url(#paint91_linear_65_38)"/>
<path d="M290.587 204.164L-303.612 207.378L-303.608 208.09L290.591 204.876L290.587 204.164Z" fill="url(#paint92_linear_65_38)"/>
<path d="M872.482 -157.393H638.018L118.309 315.525L749.504 889.892L872.482 777.98V-157.393Z" fill="#F5F0DE"/>
<path d="M197.458 243.494L196.904 243.998L828.096 818.362L828.65 817.858L197.458 243.494Z" fill="url(#paint93_linear_65_38)"/>
<path d="M223.752 219.567L223.199 220.071L854.391 794.434L854.944 793.931L223.752 219.567Z" fill="url(#paint94_linear_65_38)"/>
<path d="M872.481 762.026L250.055 195.639L249.504 196.141L872.481 763.036V762.026Z" fill="url(#paint95_linear_65_38)"/>
<path d="M872.482 714.171L276.351 171.712L275.793 172.213L872.482 715.18V714.171Z" fill="url(#paint96_linear_65_38)"/>
<path d="M872.482 666.316L302.646 147.784L302.088 148.286L872.482 667.325V666.316Z" fill="url(#paint97_linear_65_38)"/>
<path d="M872.482 618.467L328.941 123.857L328.383 124.358L872.482 619.47V618.467Z" fill="url(#paint98_linear_65_38)"/>
<path d="M872.482 570.612L355.236 99.9292L354.678 100.431L872.482 571.621V570.612Z" fill="url(#paint99_linear_65_38)"/>
<path d="M872.482 522.757L381.531 76.0017L380.973 76.5032L872.482 523.766V522.757Z" fill="url(#paint100_linear_65_38)"/>
<path d="M872.482 474.902L407.819 52.074L407.268 52.5816L872.482 475.911V474.902Z" fill="url(#paint101_linear_65_38)"/>
<path d="M872.482 427.047L434.114 28.1465L433.562 28.6541L872.482 428.056V427.047Z" fill="url(#paint102_linear_65_38)"/>
<path d="M872.481 379.192L460.409 4.21899L459.857 4.72664L872.481 380.201V379.192Z" fill="url(#paint103_linear_65_38)"/>
<path d="M872.481 331.342L486.703 -19.7087L486.152 -19.2011L872.481 332.345V331.342Z" fill="url(#paint104_linear_65_38)"/>
<path d="M872.481 283.487L512.998 -43.6301L512.447 -43.1287L872.481 284.496V283.487Z" fill="url(#paint105_linear_65_38)"/>
<path d="M171.168 267.418L170.615 267.921L801.807 842.285L802.361 841.781L171.168 267.418Z" fill="url(#paint106_linear_65_38)"/>
<path d="M144.874 291.345L144.32 291.848L775.513 866.212L776.066 865.709L144.874 291.345Z" fill="url(#paint107_linear_65_38)"/>
<path d="M118.581 315.273L118.027 315.777L749.219 890.14L749.773 889.637L118.581 315.273Z" fill="url(#paint108_linear_65_38)"/>
<path d="M872.482 339.496L508.57 670.644L509.121 671.151L872.482 340.505V339.496Z" fill="url(#paint109_linear_65_38)"/>
<path d="M872.48 284.979L478.613 643.392L479.171 643.893L872.48 285.989V284.979Z" fill="url(#paint110_linear_65_38)"/>
<path d="M872.481 230.333L448.584 616.065L449.142 616.567L872.481 231.342V230.333Z" fill="url(#paint111_linear_65_38)"/>
<path d="M872.483 175.538L418.48 588.671L419.038 589.172L872.483 176.547V175.538Z" fill="url(#paint112_linear_65_38)"/>
<path d="M872.482 121.028L388.531 561.413L389.082 561.914L872.482 122.037V121.028Z" fill="url(#paint113_linear_65_38)"/>
<path d="M872.481 66.375L358.5 534.086L359.051 534.588L872.481 67.3841V66.375Z" fill="url(#paint114_linear_65_38)"/>
<path d="M872.482 11.0227L328.084 506.413L328.642 506.915L872.482 12.0318V11.0227Z" fill="url(#paint115_linear_65_38)"/>
<path d="M872.483 -43.4875L298.129 479.155L298.687 479.656L872.483 -42.4784V-43.4875Z" fill="url(#paint116_linear_65_38)"/>
<path d="M872.482 -97.9299L268.221 451.934L268.772 452.441L872.482 -96.9208V-97.9299Z" fill="url(#paint117_linear_65_38)"/>
<path d="M872.481 -152.793L238.074 424.502L238.625 425.01L872.481 -151.784V-152.793Z" fill="url(#paint118_linear_65_38)"/>
<path d="M817.538 -157.393L208.072 397.201L208.63 397.708L818.647 -157.393H817.538Z" fill="url(#paint119_linear_65_38)"/>
<path d="M757.423 -157.393L178.049 369.825L178.6 370.326L758.532 -157.393H757.423Z" fill="url(#paint120_linear_65_38)"/>
<path d="M697.677 -157.393L148.135 342.666L148.693 343.173L698.786 -157.393H697.677Z" fill="url(#paint121_linear_65_38)"/>
<path d="M637.459 -157.393L118.029 315.271L118.587 315.773L638.568 -157.393H637.459Z" fill="url(#paint122_linear_65_38)"/>
</g>
<defs>
<linearGradient id="paint0_linear_65_38" x1="433.612" y1="-157.393" x2="433.612" y2="6.79428" gradientUnits="userSpaceOnUse">
<stop stop-color="#D39659"/>
<stop offset="1" stop-color="#E7BA8E" stop-opacity="0"/>
</linearGradient>
<linearGradient id="paint1_linear_65_38" x1="382.185" y1="-157.393" x2="382.185" y2="26.6173" gradientUnits="userSpaceOnUse">
<stop stop-color="#D39659"/>
<stop offset="1" stop-color="#E7BA8E" stop-opacity="0"/>
</linearGradient>
<linearGradient id="paint2_linear_65_38" x1="320.517" y1="-157.393" x2="320.517" y2="46.4342" gradientUnits="userSpaceOnUse">
<stop stop-color="#D39659"/>
<stop offset="1" stop-color="#E7BA8E" stop-opacity="0"/>
</linearGradient>
<linearGradient id="paint3_linear_65_38" x1="244.176" y1="-157.393" x2="244.176" y2="66.2511" gradientUnits="userSpaceOnUse">
<stop stop-color="#D39659"/>
<stop offset="1" stop-color="#E7BA8E" stop-opacity="0"/>
</linearGradient>
<linearGradient id="paint4_linear_65_38" x1="145.738" y1="-157.393" x2="145.738" y2="86.0617" gradientUnits="userSpaceOnUse">
<stop stop-color="#D39659"/>
<stop offset="1" stop-color="#E7BA8E" stop-opacity="0"/>
</linearGradient>
<linearGradient id="paint5_linear_65_38" x1="47.9331" y1="-133.564" x2="47.9331" y2="105.872" gradientUnits="userSpaceOnUse">
<stop stop-color="#D39659"/>
<stop offset="1" stop-color="#E7BA8E" stop-opacity="0"/>
</linearGradient>
<linearGradient id="paint6_linear_65_38" x1="37.0375" y1="-46.4036" x2="37.0375" y2="125.671" gradientUnits="userSpaceOnUse">
<stop stop-color="#D39659"/>
<stop offset="1" stop-color="#E7BA8E" stop-opacity="0"/>
</linearGradient>
<linearGradient id="paint7_linear_65_38" x1="26.1487" y1="29.2856" x2="26.1487" y2="145.475" gradientUnits="userSpaceOnUse">
<stop stop-color="#D39659"/>
<stop offset="1" stop-color="#E7BA8E" stop-opacity="0"/>
</linearGradient>
<linearGradient id="paint8_linear_65_38" x1="15.2566" y1="95.6204" x2="15.2566" y2="165.273" gradientUnits="userSpaceOnUse">
<stop stop-color="#D39659"/>
<stop offset="1" stop-color="#E7BA8E" stop-opacity="0"/>
</linearGradient>
<linearGradient id="paint9_linear_65_38" x1="4.36777" y1="154.241" x2="4.36777" y2="185.072" gradientUnits="userSpaceOnUse">
<stop stop-color="#D39659"/>
<stop offset="1" stop-color="#E7BA8E" stop-opacity="0"/>
</linearGradient>
<linearGradient id="paint10_linear_65_38" x1="-6.52299" y1="205.89" x2="-6.51883" y2="206.602" gradientUnits="userSpaceOnUse">
<stop stop-color="#D39659"/>
<stop offset="1" stop-color="#E7BA8E" stop-opacity="0"/>
</linearGradient>
<linearGradient id="paint11_linear_65_38" x1="385.7" y1="369.224" x2="601.415" y2="278.343" gradientUnits="userSpaceOnUse">
<stop stop-color="#E16F00"/>
<stop offset="1" stop-color="#F6F3E0"/>
</linearGradient>
<linearGradient id="paint12_linear_65_38" x1="371.675" y1="369.323" x2="587.43" y2="278.425" gradientUnits="userSpaceOnUse">
<stop stop-color="#E16F00"/>
<stop offset="1" stop-color="#F6F3E0"/>
</linearGradient>
<linearGradient id="paint13_linear_65_38" x1="357.037" y1="369.449" x2="572.847" y2="278.526" gradientUnits="userSpaceOnUse">
<stop stop-color="#E16F00"/>
<stop offset="1" stop-color="#F6F3E0"/>
</linearGradient>
<linearGradient id="paint14_linear_65_38" x1="341.823" y1="369.557" x2="557.674" y2="278.618" gradientUnits="userSpaceOnUse">
<stop stop-color="#E16F00"/>
<stop offset="1" stop-color="#F6F3E0"/>
</linearGradient>
<linearGradient id="paint15_linear_65_38" x1="325.947" y1="369.692" x2="541.851" y2="278.733" gradientUnits="userSpaceOnUse">
<stop stop-color="#E16F00"/>
<stop offset="1" stop-color="#F6F3E0"/>
</linearGradient>
<linearGradient id="paint16_linear_65_38" x1="309.381" y1="369.827" x2="525.345" y2="278.839" gradientUnits="userSpaceOnUse">
<stop stop-color="#E16F00"/>
<stop offset="1" stop-color="#F6F3E0"/>
</linearGradient>
<linearGradient id="paint17_linear_65_38" x1="292.07" y1="370.007" x2="508.105" y2="278.991" gradientUnits="userSpaceOnUse">
<stop stop-color="#E16F00"/>
<stop offset="1" stop-color="#F6F3E0"/>
</linearGradient>
<linearGradient id="paint18_linear_65_38" x1="274.036" y1="370.088" x2="490.104" y2="279.058" gradientUnits="userSpaceOnUse">
<stop stop-color="#E16F00"/>
<stop offset="1" stop-color="#F6F3E0"/>
</linearGradient>
<linearGradient id="paint19_linear_65_38" x1="255.136" y1="370.232" x2="471.266" y2="279.175" gradientUnits="userSpaceOnUse">
<stop stop-color="#E16F00"/>
<stop offset="1" stop-color="#F6F3E0"/>
</linearGradient>
<linearGradient id="paint20_linear_65_38" x1="214.569" y1="370.584" x2="430.84" y2="279.468" gradientUnits="userSpaceOnUse">
<stop stop-color="#E16F00"/>
<stop offset="1" stop-color="#F6F3E0"/>
</linearGradient>
<linearGradient id="paint21_linear_65_38" x1="235.323" y1="370.421" x2="451.527" y2="279.334" gradientUnits="userSpaceOnUse">
<stop stop-color="#E16F00"/>
<stop offset="1" stop-color="#F6F3E0"/>
</linearGradient>
<linearGradient id="paint22_linear_65_38" x1="192.783" y1="370.755" x2="409.127" y2="279.607" gradientUnits="userSpaceOnUse">
<stop stop-color="#E16F00"/>
<stop offset="1" stop-color="#F6F3E0"/>
</linearGradient>
<linearGradient id="paint23_linear_65_38" x1="145.805" y1="371.133" x2="362.301" y2="279.922" gradientUnits="userSpaceOnUse">
<stop stop-color="#E16F00"/>
<stop offset="1" stop-color="#F6F3E0"/>
</linearGradient>
<linearGradient id="paint24_linear_65_38" x1="169.888" y1="370.935" x2="386.305" y2="279.756" gradientUnits="userSpaceOnUse">
<stop stop-color="#E16F00"/>
<stop offset="1" stop-color="#F6F3E0"/>
</linearGradient>
<linearGradient id="paint25_linear_65_38" x1="120.464" y1="371.376" x2="337.059" y2="280.124" gradientUnits="userSpaceOnUse">
<stop stop-color="#E16F00"/>
<stop offset="1" stop-color="#F6F3E0"/>
</linearGradient>
<linearGradient id="paint26_linear_65_38" x1="65.3544" y1="371.763" x2="282.11" y2="280.442" gradientUnits="userSpaceOnUse">
<stop stop-color="#E16F00"/>
<stop offset="1" stop-color="#F6F3E0"/>
</linearGradient>
<linearGradient id="paint27_linear_65_38" x1="93.648" y1="371.538" x2="310.309" y2="280.258" gradientUnits="userSpaceOnUse">
<stop stop-color="#E16F00"/>
<stop offset="1" stop-color="#F6F3E0"/>
</linearGradient>
<linearGradient id="paint28_linear_65_38" x1="35.4127" y1="371.997" x2="252.262" y2="280.638" gradientUnits="userSpaceOnUse">
<stop stop-color="#E16F00"/>
<stop offset="1" stop-color="#F6F3E0"/>
</linearGradient>
<linearGradient id="paint29_linear_65_38" x1="-30.0316" y1="372.51" x2="187.028" y2="281.063" gradientUnits="userSpaceOnUse">
<stop stop-color="#E16F00"/>
<stop offset="1" stop-color="#F6F3E0"/>
</linearGradient>
<linearGradient id="paint30_linear_65_38" x1="3.67311" y1="372.249" x2="220.625" y2="280.847" gradientUnits="userSpaceOnUse">
<stop stop-color="#E16F00"/>
<stop offset="1" stop-color="#F6F3E0"/>
</linearGradient>
<linearGradient id="paint31_linear_65_38" x1="-65.8877" y1="372.798" x2="151.289" y2="281.301" gradientUnits="userSpaceOnUse">
<stop stop-color="#E16F00"/>
<stop offset="1" stop-color="#F6F3E0"/>
</linearGradient>
<linearGradient id="paint32_linear_65_38" x1="-144.945" y1="373.419" x2="72.4892" y2="281.813" gradientUnits="userSpaceOnUse">
<stop stop-color="#E16F00"/>
<stop offset="1" stop-color="#F6F3E0"/>
</linearGradient>
<linearGradient id="paint33_linear_65_38" x1="-104.109" y1="373.095" x2="113.189" y2="281.547" gradientUnits="userSpaceOnUse">
<stop stop-color="#E16F00"/>
<stop offset="1" stop-color="#F6F3E0"/>
</linearGradient>
<linearGradient id="paint34_linear_65_38" x1="-214.082" y1="337.473" x2="-11.5664" y2="252.269" gradientUnits="userSpaceOnUse">
<stop stop-color="#E16F00"/>
<stop offset="1" stop-color="#F6F3E0"/>
</linearGradient>
<linearGradient id="paint35_linear_65_38" x1="-188.655" y1="373.761" x2="28.9186" y2="282.096" gradientUnits="userSpaceOnUse">
<stop stop-color="#E16F00"/>
<stop offset="1" stop-color="#F6F3E0"/>
</linearGradient>
<linearGradient id="paint36_linear_65_38" x1="-226.112" y1="270.982" x2="-50.8096" y2="197.228" gradientUnits="userSpaceOnUse">
<stop stop-color="#E16F00"/>
<stop offset="1" stop-color="#F6F3E0"/>
</linearGradient>
<linearGradient id="paint37_linear_65_38" x1="-109.126" y1="737.232" x2="-109.126" y2="1091.18" gradientUnits="userSpaceOnUse">
<stop stop-color="#D39659"/>
<stop offset="1" stop-color="#E7BA8E" stop-opacity="0"/>
</linearGradient>
<linearGradient id="paint38_linear_65_38" x1="-62.5433" y1="652.455" x2="-62.5433" y2="1091.18" gradientUnits="userSpaceOnUse">
<stop stop-color="#D39659"/>
<stop offset="1" stop-color="#E7BA8E" stop-opacity="0"/>
</linearGradient>
<linearGradient id="paint39_linear_65_38" x1="-20.3318" y1="575.633" x2="-20.3318" y2="1091.18" gradientUnits="userSpaceOnUse">
<stop stop-color="#D39659"/>
<stop offset="1" stop-color="#E7BA8E" stop-opacity="0"/>
</linearGradient>
<linearGradient id="paint40_linear_65_38" x1="18.0969" y1="505.695" x2="18.0969" y2="1091.18" gradientUnits="userSpaceOnUse">
<stop stop-color="#D39659"/>
<stop offset="1" stop-color="#E7BA8E" stop-opacity="0"/>
</linearGradient>
<linearGradient id="paint41_linear_65_38" x1="53.2261" y1="441.762" x2="53.2261" y2="1091.18" gradientUnits="userSpaceOnUse">
<stop stop-color="#D39659"/>
<stop offset="1" stop-color="#E7BA8E" stop-opacity="0"/>
</linearGradient>
<linearGradient id="paint42_linear_65_38" x1="85.4673" y1="383.085" x2="85.4673" y2="1091.18" gradientUnits="userSpaceOnUse">
<stop stop-color="#D39659"/>
<stop offset="1" stop-color="#E7BA8E" stop-opacity="0"/>
</linearGradient>
<linearGradient id="paint43_linear_65_38" x1="115.161" y1="329.046" x2="115.161" y2="1091.18" gradientUnits="userSpaceOnUse">
<stop stop-color="#D39659"/>
<stop offset="1" stop-color="#E7BA8E" stop-opacity="0"/>
</linearGradient>
<linearGradient id="paint44_linear_65_38" x1="142.595" y1="279.117" x2="142.595" y2="1091.18" gradientUnits="userSpaceOnUse">
<stop stop-color="#D39659"/>
<stop offset="1" stop-color="#E7BA8E" stop-opacity="0"/>
</linearGradient>
<linearGradient id="paint45_linear_65_38" x1="168.023" y1="232.84" x2="168.023" y2="1091.18" gradientUnits="userSpaceOnUse">
<stop stop-color="#D39659"/>
<stop offset="1" stop-color="#E7BA8E" stop-opacity="0"/>
</linearGradient>
<linearGradient id="paint46_linear_65_38" x1="201.019" y1="207.377" x2="201.019" y2="1091.18" gradientUnits="userSpaceOnUse">
<stop stop-color="#D39659"/>
<stop offset="1" stop-color="#E7BA8E" stop-opacity="0"/>
</linearGradient>
<linearGradient id="paint47_linear_65_38" x1="244.924" y1="207.136" x2="244.924" y2="1091.18" gradientUnits="userSpaceOnUse">
<stop stop-color="#D39659"/>
<stop offset="1" stop-color="#E7BA8E" stop-opacity="0"/>
</linearGradient>
<linearGradient id="paint48_linear_65_38" x1="285.939" y1="206.919" x2="285.939" y2="1091.18" gradientUnits="userSpaceOnUse">
<stop stop-color="#D39659"/>
<stop offset="1" stop-color="#E7BA8E" stop-opacity="0"/>
</linearGradient>
<linearGradient id="paint49_linear_65_38" x1="324.33" y1="206.709" x2="324.33" y2="1091.18" gradientUnits="userSpaceOnUse">
<stop stop-color="#D39659"/>
<stop offset="1" stop-color="#E7BA8E" stop-opacity="0"/>
</linearGradient>
<linearGradient id="paint50_linear_65_38" x1="360.343" y1="206.517" x2="360.343" y2="1091.18" gradientUnits="userSpaceOnUse">
<stop stop-color="#D39659"/>
<stop offset="1" stop-color="#E7BA8E" stop-opacity="0"/>
</linearGradient>
<linearGradient id="paint51_linear_65_38" x1="390.102" y1="206.331" x2="390.102" y2="1084.74" gradientUnits="userSpaceOnUse">
<stop stop-color="#D39659"/>
<stop offset="1" stop-color="#E7BA8E" stop-opacity="0"/>
</linearGradient>
<linearGradient id="paint52_linear_65_38" x1="405.994" y1="206.164" x2="405.994" y2="1055.65" gradientUnits="userSpaceOnUse">
<stop stop-color="#D39659"/>
<stop offset="1" stop-color="#E7BA8E" stop-opacity="0"/>
</linearGradient>
<linearGradient id="paint53_linear_65_38" x1="420.985" y1="205.997" x2="420.985" y2="1028.2" gradientUnits="userSpaceOnUse">
<stop stop-color="#D39659"/>
<stop offset="1" stop-color="#E7BA8E" stop-opacity="0"/>
</linearGradient>
<linearGradient id="paint54_linear_65_38" x1="435.153" y1="205.848" x2="435.153" y2="1002.26" gradientUnits="userSpaceOnUse">
<stop stop-color="#D39659"/>
<stop offset="1" stop-color="#E7BA8E" stop-opacity="0"/>
</linearGradient>
<linearGradient id="paint55_linear_65_38" x1="448.56" y1="205.7" x2="448.56" y2="977.715" gradientUnits="userSpaceOnUse">
<stop stop-color="#D39659"/>
<stop offset="1" stop-color="#E7BA8E" stop-opacity="0"/>
</linearGradient>
<linearGradient id="paint56_linear_65_38" x1="461.267" y1="205.563" x2="461.267" y2="954.45" gradientUnits="userSpaceOnUse">
<stop stop-color="#D39659"/>
<stop offset="1" stop-color="#E7BA8E" stop-opacity="0"/>
</linearGradient>
<linearGradient id="paint57_linear_65_38" x1="473.327" y1="205.433" x2="473.327" y2="932.367" gradientUnits="userSpaceOnUse">
<stop stop-color="#D39659"/>
<stop offset="1" stop-color="#E7BA8E" stop-opacity="0"/>
</linearGradient>
<linearGradient id="paint58_linear_65_38" x1="484.791" y1="205.31" x2="484.791" y2="911.387" gradientUnits="userSpaceOnUse">
<stop stop-color="#D39659"/>
<stop offset="1" stop-color="#E7BA8E" stop-opacity="0"/>
</linearGradient>
<linearGradient id="paint59_linear_65_38" x1="495.7" y1="205.192" x2="495.7" y2="891.415" gradientUnits="userSpaceOnUse">
<stop stop-color="#D39659"/>
<stop offset="1" stop-color="#E7BA8E" stop-opacity="0"/>
</linearGradient>
<linearGradient id="paint60_linear_65_38" x1="506.092" y1="205.081" x2="506.092" y2="872.391" gradientUnits="userSpaceOnUse">
<stop stop-color="#D39659"/>
<stop offset="1" stop-color="#E7BA8E" stop-opacity="0"/>
</linearGradient>
<linearGradient id="paint61_linear_65_38" x1="516.001" y1="204.969" x2="516.001" y2="854.245" gradientUnits="userSpaceOnUse">
<stop stop-color="#D39659"/>
<stop offset="1" stop-color="#E7BA8E" stop-opacity="0"/>
</linearGradient>
<linearGradient id="paint62_linear_65_38" x1="525.468" y1="204.87" x2="525.468" y2="836.917" gradientUnits="userSpaceOnUse">
<stop stop-color="#D39659"/>
<stop offset="1" stop-color="#E7BA8E" stop-opacity="0"/>
</linearGradient>
<linearGradient id="paint63_linear_65_38" x1="534.512" y1="204.771" x2="534.512" y2="820.357" gradientUnits="userSpaceOnUse">
<stop stop-color="#D39659"/>
<stop offset="1" stop-color="#E7BA8E" stop-opacity="0"/>
</linearGradient>
<linearGradient id="paint64_linear_65_38" x1="543.171" y1="204.678" x2="543.171" y2="804.502" gradientUnits="userSpaceOnUse">
<stop stop-color="#D39659"/>
<stop offset="1" stop-color="#E7BA8E" stop-opacity="0"/>
</linearGradient>
<linearGradient id="paint65_linear_65_38" x1="551.46" y1="204.585" x2="551.46" y2="789.328" gradientUnits="userSpaceOnUse">
<stop stop-color="#D39659"/>
<stop offset="1" stop-color="#E7BA8E" stop-opacity="0"/>
</linearGradient>
<linearGradient id="paint66_linear_65_38" x1="559.41" y1="204.499" x2="559.41" y2="774.78" gradientUnits="userSpaceOnUse">
<stop stop-color="#D39659"/>
<stop offset="1" stop-color="#E7BA8E" stop-opacity="0"/>
</linearGradient>
<linearGradient id="paint67_linear_65_38" x1="567.033" y1="204.418" x2="567.033" y2="760.819" gradientUnits="userSpaceOnUse">
<stop stop-color="#D39659"/>
<stop offset="1" stop-color="#E7BA8E" stop-opacity="0"/>
</linearGradient>
<linearGradient id="paint68_linear_65_38" x1="574.353" y1="204.338" x2="574.353" y2="747.416" gradientUnits="userSpaceOnUse">
<stop stop-color="#D39659"/>
<stop offset="1" stop-color="#E7BA8E" stop-opacity="0"/>
</linearGradient>
<linearGradient id="paint69_linear_65_38" x1="581.391" y1="204.263" x2="581.391" y2="734.533" gradientUnits="userSpaceOnUse">
<stop stop-color="#D39659"/>
<stop offset="1" stop-color="#E7BA8E" stop-opacity="0"/>
</linearGradient>
<linearGradient id="paint70_linear_65_38" x1="629.467" y1="630.063" x2="629.467" y2="1091.18" gradientUnits="userSpaceOnUse">
<stop stop-color="#D39659"/>
<stop offset="1" stop-color="#E7BA8E" stop-opacity="0"/>
</linearGradient>
<linearGradient id="paint71_linear_65_38" x1="583.993" y1="610.692" x2="583.993" y2="1091.18" gradientUnits="userSpaceOnUse">
<stop stop-color="#D39659"/>
<stop offset="1" stop-color="#E7BA8E" stop-opacity="0"/>
</linearGradient>
<linearGradient id="paint72_linear_65_38" x1="535.068" y1="591.327" x2="535.068" y2="1091.18" gradientUnits="userSpaceOnUse">
<stop stop-color="#D39659"/>
<stop offset="1" stop-color="#E7BA8E" stop-opacity="0"/>
</linearGradient>
<linearGradient id="paint73_linear_65_38" x1="482.155" y1="571.956" x2="482.155" y2="1091.18" gradientUnits="userSpaceOnUse">
<stop stop-color="#D39659"/>
<stop offset="1" stop-color="#E7BA8E" stop-opacity="0"/>
</linearGradient>
<linearGradient id="paint74_linear_65_38" x1="424.591" y1="552.591" x2="424.591" y2="1091.18" gradientUnits="userSpaceOnUse">
<stop stop-color="#D39659"/>
<stop offset="1" stop-color="#E7BA8E" stop-opacity="0"/>
</linearGradient>
<linearGradient id="paint75_linear_65_38" x1="361.572" y1="533.226" x2="361.572" y2="1091.18" gradientUnits="userSpaceOnUse">
<stop stop-color="#D39659"/>
<stop offset="1" stop-color="#E7BA8E" stop-opacity="0"/>
</linearGradient>
<linearGradient id="paint76_linear_65_38" x1="292.082" y1="513.861" x2="292.082" y2="1091.18" gradientUnits="userSpaceOnUse">
<stop stop-color="#D39659"/>
<stop offset="1" stop-color="#E7BA8E" stop-opacity="0"/>
</linearGradient>
<linearGradient id="paint77_linear_65_38" x1="215.918" y1="494.496" x2="215.918" y2="1090.07" gradientUnits="userSpaceOnUse">
<stop stop-color="#D39659"/>
<stop offset="1" stop-color="#E7BA8E" stop-opacity="0"/>
</linearGradient>
<linearGradient id="paint78_linear_65_38" x1="173.132" y1="475.131" x2="173.132" y2="1031.57" gradientUnits="userSpaceOnUse">
<stop stop-color="#D39659"/>
<stop offset="1" stop-color="#E7BA8E" stop-opacity="0"/>
</linearGradient>
<linearGradient id="paint79_linear_65_38" x1="131.812" y1="455.772" x2="131.812" y2="971.661" gradientUnits="userSpaceOnUse">
<stop stop-color="#D39659"/>
<stop offset="1" stop-color="#E7BA8E" stop-opacity="0"/>
</linearGradient>
<linearGradient id="paint80_linear_65_38" x1="121.171" y1="436.414" x2="121.171" y2="879.82" gradientUnits="userSpaceOnUse">
<stop stop-color="#D39659"/>
<stop offset="1" stop-color="#E7BA8E" stop-opacity="0"/>
</linearGradient>
<linearGradient id="paint81_linear_65_38" x1="110.527" y1="417.049" x2="110.527" y2="796.225" gradientUnits="userSpaceOnUse">
<stop stop-color="#D39659"/>
<stop offset="1" stop-color="#E7BA8E" stop-opacity="0"/>
</linearGradient>
<linearGradient id="paint82_linear_65_38" x1="99.8871" y1="397.69" x2="99.8871" y2="719.799" gradientUnits="userSpaceOnUse">
<stop stop-color="#D39659"/>
<stop offset="1" stop-color="#E7BA8E" stop-opacity="0"/>
</linearGradient>
<linearGradient id="paint83_linear_65_38" x1="89.2466" y1="378.337" x2="89.2466" y2="649.669" gradientUnits="userSpaceOnUse">
<stop stop-color="#D39659"/>
<stop offset="1" stop-color="#E7BA8E" stop-opacity="0"/>
</linearGradient>
<linearGradient id="paint84_linear_65_38" x1="78.6027" y1="358.979" x2="78.6027" y2="585.086" gradientUnits="userSpaceOnUse">
<stop stop-color="#D39659"/>
<stop offset="1" stop-color="#E7BA8E" stop-opacity="0"/>
</linearGradient>
<linearGradient id="paint85_linear_65_38" x1="67.9622" y1="339.626" x2="67.9622" y2="525.413" gradientUnits="userSpaceOnUse">
<stop stop-color="#D39659"/>
<stop offset="1" stop-color="#E7BA8E" stop-opacity="0"/>
</linearGradient>
<linearGradient id="paint86_linear_65_38" x1="57.3218" y1="320.267" x2="57.3218" y2="470.116" gradientUnits="userSpaceOnUse">
<stop stop-color="#D39659"/>
<stop offset="1" stop-color="#E7BA8E" stop-opacity="0"/>
</linearGradient>
<linearGradient id="paint87_linear_65_38" x1="46.6813" y1="300.915" x2="46.6813" y2="418.726" gradientUnits="userSpaceOnUse">
<stop stop-color="#D39659"/>
<stop offset="1" stop-color="#E7BA8E" stop-opacity="0"/>
</linearGradient>
<linearGradient id="paint88_linear_65_38" x1="36.0408" y1="281.562" x2="36.0408" y2="370.846" gradientUnits="userSpaceOnUse">
<stop stop-color="#D39659"/>
<stop offset="1" stop-color="#E7BA8E" stop-opacity="0"/>
</linearGradient>
<linearGradient id="paint89_linear_65_38" x1="25.4038" y1="262.209" x2="25.4038" y2="326.124" gradientUnits="userSpaceOnUse">
<stop stop-color="#D39659"/>
<stop offset="1" stop-color="#E7BA8E" stop-opacity="0"/>
</linearGradient>
<linearGradient id="paint90_linear_65_38" x1="14.7633" y1="242.863" x2="14.7633" y2="284.268" gradientUnits="userSpaceOnUse">
<stop stop-color="#D39659"/>
<stop offset="1" stop-color="#E7BA8E" stop-opacity="0"/>
</linearGradient>
<linearGradient id="paint91_linear_65_38" x1="4.12286" y1="223.511" x2="4.12286" y2="244.999" gradientUnits="userSpaceOnUse">
<stop stop-color="#D39659"/>
<stop offset="1" stop-color="#E7BA8E" stop-opacity="0"/>
</linearGradient>
<linearGradient id="paint92_linear_65_38" x1="-6.51279" y1="205.771" x2="-6.50894" y2="206.483" gradientUnits="userSpaceOnUse">
<stop stop-color="#D39659"/>
<stop offset="1" stop-color="#E7BA8E" stop-opacity="0"/>
</linearGradient>
<linearGradient id="paint93_linear_65_38" x1="485.493" y1="506.544" x2="485.885" y2="506.113" gradientUnits="userSpaceOnUse">
<stop stop-color="#C6813F"/>
<stop offset="1" stop-color="#F6F3E0"/>
</linearGradient>
<linearGradient id="paint94_linear_65_38" x1="511.788" y1="482.617" x2="512.18" y2="482.186" gradientUnits="userSpaceOnUse">
<stop stop-color="#C6813F"/>
<stop offset="1" stop-color="#F6F3E0"/>
</linearGradient>
<linearGradient id="paint95_linear_65_38" x1="286.639" y1="455.03" x2="675.725" y2="259.87" gradientUnits="userSpaceOnUse">
<stop stop-color="#C6813F"/>
<stop offset="1" stop-color="#F6F3E0"/>
</linearGradient>
<linearGradient id="paint96_linear_65_38" x1="311.362" y1="420.164" x2="684.033" y2="233.242" gradientUnits="userSpaceOnUse">
<stop stop-color="#C6813F"/>
<stop offset="1" stop-color="#F6F3E0"/>
</linearGradient>
<linearGradient id="paint97_linear_65_38" x1="336.089" y1="385.298" x2="692.343" y2="206.618" gradientUnits="userSpaceOnUse">
<stop stop-color="#C6813F"/>
<stop offset="1" stop-color="#F6F3E0"/>
</linearGradient>
<linearGradient id="paint98_linear_65_38" x1="360.816" y1="350.431" x2="700.654" y2="179.993" gradientUnits="userSpaceOnUse">
<stop stop-color="#C6813F"/>
<stop offset="1" stop-color="#F6F3E0"/>
</linearGradient>
<linearGradient id="paint99_linear_65_38" x1="385.544" y1="315.568" x2="708.966" y2="153.373" gradientUnits="userSpaceOnUse">
<stop stop-color="#C6813F"/>
<stop offset="1" stop-color="#F6F3E0"/>
</linearGradient>
<linearGradient id="paint100_linear_65_38" x1="410.271" y1="280.702" x2="717.277" y2="126.749" gradientUnits="userSpaceOnUse">
<stop stop-color="#C6813F"/>
<stop offset="1" stop-color="#F6F3E0"/>
</linearGradient>
<linearGradient id="paint101_linear_65_38" x1="434.999" y1="245.835" x2="725.588" y2="100.124" gradientUnits="userSpaceOnUse">
<stop stop-color="#C6813F"/>
<stop offset="1" stop-color="#F6F3E0"/>
</linearGradient>
<linearGradient id="paint102_linear_65_38" x1="459.726" y1="210.969" x2="733.898" y2="73.4996" gradientUnits="userSpaceOnUse">
<stop stop-color="#C6813F"/>
<stop offset="1" stop-color="#F6F3E0"/>
</linearGradient>
<linearGradient id="paint103_linear_65_38" x1="484.454" y1="176.103" x2="742.209" y2="46.8752" gradientUnits="userSpaceOnUse">
<stop stop-color="#C6813F"/>
<stop offset="1" stop-color="#F6F3E0"/>
</linearGradient>
<linearGradient id="paint104_linear_65_38" x1="509.181" y1="141.236" x2="750.519" y2="20.2506" gradientUnits="userSpaceOnUse">
<stop stop-color="#C6813F"/>
<stop offset="1" stop-color="#F6F3E0"/>
</linearGradient>
<linearGradient id="paint105_linear_65_38" x1="533.909" y1="106.376" x2="758.83" y2="-6.36763" gradientUnits="userSpaceOnUse">
<stop stop-color="#C6813F"/>
<stop offset="1" stop-color="#F6F3E0"/>
</linearGradient>
<linearGradient id="paint106_linear_65_38" x1="459.204" y1="530.467" x2="459.596" y2="530.037" gradientUnits="userSpaceOnUse">
<stop stop-color="#C6813F"/>
<stop offset="1" stop-color="#F6F3E0"/>
</linearGradient>
<linearGradient id="paint107_linear_65_38" x1="432.909" y1="554.395" x2="433.301" y2="553.964" gradientUnits="userSpaceOnUse">
<stop stop-color="#C6813F"/>
<stop offset="1" stop-color="#F6F3E0"/>
</linearGradient>
<linearGradient id="paint108_linear_65_38" x1="406.616" y1="578.323" x2="407.008" y2="577.892" gradientUnits="userSpaceOnUse">
<stop stop-color="#C6813F"/>
<stop offset="1" stop-color="#F6F3E0"/>
</linearGradient>
<linearGradient id="paint109_linear_65_38" x1="530.263" y1="491.115" x2="757.605" y2="377.156" gradientUnits="userSpaceOnUse">
<stop stop-color="#C6813F"/>
<stop offset="1" stop-color="#F6F3E0"/>
</linearGradient>
<linearGradient id="paint110_linear_65_38" x1="502.092" y1="449.06" x2="748.136" y2="325.712" gradientUnits="userSpaceOnUse">
<stop stop-color="#C6813F"/>
<stop offset="1" stop-color="#F6F3E0"/>
</linearGradient>
<linearGradient id="paint111_linear_65_38" x1="473.852" y1="406.904" x2="738.644" y2="274.141" gradientUnits="userSpaceOnUse">
<stop stop-color="#C6813F"/>
<stop offset="1" stop-color="#F6F3E0"/>
</linearGradient>
<linearGradient id="paint112_linear_65_38" x1="445.543" y1="364.635" x2="729.132" y2="222.438" gradientUnits="userSpaceOnUse">
<stop stop-color="#C6813F"/>
<stop offset="1" stop-color="#F6F3E0"/>
</linearGradient>
<linearGradient id="paint113_linear_65_38" x1="417.379" y1="322.583" x2="719.666" y2="170.999" gradientUnits="userSpaceOnUse">
<stop stop-color="#C6813F"/>
<stop offset="1" stop-color="#F6F3E0"/>
</linearGradient>
<linearGradient id="paint114_linear_65_38" x1="389.138" y1="280.423" x2="710.174" y2="119.427" gradientUnits="userSpaceOnUse">
<stop stop-color="#C6813F"/>
<stop offset="1" stop-color="#F6F3E0"/>
</linearGradient>
<linearGradient id="paint115_linear_65_38" x1="360.535" y1="237.725" x2="700.562" y2="67.1941" gradientUnits="userSpaceOnUse">
<stop stop-color="#C6813F"/>
<stop offset="1" stop-color="#F6F3E0"/>
</linearGradient>
<linearGradient id="paint116_linear_65_38" x1="332.366" y1="195.673" x2="691.092" y2="15.752" gradientUnits="userSpaceOnUse">
<stop stop-color="#C6813F"/>
<stop offset="1" stop-color="#F6F3E0"/>
</linearGradient>
<linearGradient id="paint117_linear_65_38" x1="304.241" y1="153.678" x2="681.643" y2="-35.6148" gradientUnits="userSpaceOnUse">
<stop stop-color="#C6813F"/>
<stop offset="1" stop-color="#F6F3E0"/>
</linearGradient>
<linearGradient id="paint118_linear_65_38" x1="275.891" y1="111.355" x2="672.114" y2="-87.386" gradientUnits="userSpaceOnUse">
<stop stop-color="#C6813F"/>
<stop offset="1" stop-color="#F6F3E0"/>
</linearGradient>
<linearGradient id="paint119_linear_65_38" x1="244.469" y1="96.3773" x2="625.532" y2="-95.1033" gradientUnits="userSpaceOnUse">
<stop stop-color="#C6813F"/>
<stop offset="1" stop-color="#F6F3E0"/>
</linearGradient>
<linearGradient id="paint120_linear_65_38" x1="212.651" y1="83.8593" x2="574.928" y2="-98.1895" gradientUnits="userSpaceOnUse">
<stop stop-color="#C6813F"/>
<stop offset="1" stop-color="#F6F3E0"/>
</linearGradient>
<linearGradient id="paint121_linear_65_38" x1="180.959" y1="71.446" x2="524.608" y2="-101.253" gradientUnits="userSpaceOnUse">
<stop stop-color="#C6813F"/>
<stop offset="1" stop-color="#F6F3E0"/>
</linearGradient>
<linearGradient id="paint122_linear_65_38" x1="149.059" y1="58.9195" x2="473.908" y2="-104.342" gradientUnits="userSpaceOnUse">
<stop stop-color="#C6813F"/>
<stop offset="1" stop-color="#F6F3E0"/>
</linearGradient>
</defs>
</svg>
