<svg width="527" height="784" viewBox="0 0 527 784" fill="none" xmlns="http://www.w3.org/2000/svg">
<g clip-path="url(#clip0_120_1523)">
<mask id="mask0_120_1523" style="mask-type:luminance" maskUnits="userSpaceOnUse" x="-40" y="-1" width="647" height="824">
<path d="M607 823L607 -1L-40 -1L-40 823L607 823Z" fill="white"/>
</mask>
<g mask="url(#mask0_120_1523)">
<path d="M-303.61 -157.393V206.771L290.576 204.505L688.28 -157.393H-303.61Z" fill="#30302B"/>
<path d="M358.827 -157.393L507.8 6.79425L508.399 6.33614L359.848 -157.393H358.827Z" fill="url(#paint0_linear_120_1523)"/>
<path d="M277.751 -157.393L486.077 26.6173L486.622 26.1035L278.874 -157.393H277.751Z" fill="url(#paint1_linear_120_1523)"/>
<path d="M176.198 -157.393L464.354 46.4342L464.837 45.8708L177.477 -157.393H176.198Z" fill="url(#paint2_linear_120_1523)"/>
<path d="M45.3076 -157.393L442.638 66.251L443.046 65.6443L46.7976 -157.393H45.3076Z" fill="url(#paint3_linear_120_1523)"/>
<path d="M-129.784 -157.393L420.915 86.0617L421.262 85.424L-127.994 -157.393H-129.784Z" fill="url(#paint4_linear_120_1523)"/>
<path d="M-303.61 -133.564V-132.803L399.198 105.872L399.477 105.204L-303.61 -133.564Z" fill="url(#paint5_linear_120_1523)"/>
<path d="M-303.61 -46.4036V-45.6669L377.482 125.671L377.686 124.984L-303.61 -46.4036Z" fill="url(#paint6_linear_120_1523)"/>
<path d="M-303.61 29.2855V30.0099L355.759 145.475L355.908 144.776L-303.61 29.2855Z" fill="url(#paint7_linear_120_1523)"/>
<path d="M-303.61 95.6204V96.3385L334.036 165.273L334.124 164.561L-303.61 95.6204Z" fill="url(#paint8_linear_120_1523)"/>
<path d="M-303.61 154.241V154.953L312.306 185.072L312.346 184.36L-303.61 154.241Z" fill="url(#paint9_linear_120_1523)"/>
<path d="M290.574 204.156L-303.619 207.624L-303.614 208.335L290.579 204.868L290.574 204.156Z" fill="url(#paint10_linear_120_1523)"/>
<path d="M687.729 -157.393L290.297 204.257L290.848 204.759L688.831 -157.393H687.729Z" fill="url(#paint11_linear_120_1523)"/>
<path d="M673.755 -157.393L276.254 204.319L276.805 204.827L674.864 -157.393H673.755Z" fill="url(#paint12_linear_120_1523)"/>
<path d="M659.195 -157.393L261.593 204.412L262.151 204.913L660.304 -157.393H659.195Z" fill="url(#paint13_linear_120_1523)"/>
<path d="M644.037 -157.393L246.36 204.48L246.911 204.988L645.146 -157.393H644.037Z" fill="url(#paint14_linear_120_1523)"/>
<path d="M628.24 -157.393L230.461 204.573L231.012 205.08L629.342 -157.393H628.24Z" fill="url(#paint15_linear_120_1523)"/>
<path d="M611.756 -157.393L213.868 204.672L214.426 205.173L612.865 -157.393H611.756Z" fill="url(#paint16_linear_120_1523)"/>
<path d="M594.543 -157.393L196.526 204.79L197.084 205.297L595.652 -157.393H594.543Z" fill="url(#paint17_linear_120_1523)"/>
<path d="M576.562 -157.393L178.477 204.851L179.028 205.353L577.664 -157.393H576.562Z" fill="url(#paint18_linear_120_1523)"/>
<path d="M557.744 -157.393L159.55 204.951L160.101 205.452L558.853 -157.393H557.744Z" fill="url(#paint19_linear_120_1523)"/>
<path d="M517.373 -157.393L118.92 205.192L119.471 205.693L518.482 -157.393H517.373Z" fill="url(#paint20_linear_120_1523)"/>
<path d="M538.034 -157.393L139.704 205.08L140.255 205.582L539.143 -157.393H538.034Z" fill="url(#paint21_linear_120_1523)"/>
<path d="M495.69 -157.393L97.1016 205.31L97.6526 205.811L496.799 -157.393H495.69Z" fill="url(#paint22_linear_120_1523)"/>
<path d="M448.924 -157.393L50.0562 205.563L50.6072 206.071L450.033 -157.393H448.924Z" fill="url(#paint23_linear_120_1523)"/>
<path d="M472.899 -157.393L74.1743 205.433L74.7322 205.935L474.008 -157.393H472.899Z" fill="url(#paint24_linear_120_1523)"/>
<path d="M423.731 -157.393L24.6729 205.73L25.2307 206.238L424.833 -157.393H423.731Z" fill="url(#paint25_linear_120_1523)"/>
<path d="M368.841 -157.393L-30.5093 205.997L-29.9514 206.504L369.95 -157.393H368.841Z" fill="url(#paint26_linear_120_1523)"/>
<path d="M397.001 -157.393L-2.17285 205.848L-1.62178 206.35L398.11 -157.393H397.001Z" fill="url(#paint27_linear_120_1523)"/>
<path d="M339.029 -157.393L-60.4917 206.164L-59.9406 206.665L340.138 -157.393H339.029Z" fill="url(#paint28_linear_120_1523)"/>
<path d="M273.887 -157.393L-126.028 206.517L-125.477 207.018L274.989 -157.393H273.887Z" fill="url(#paint29_linear_120_1523)"/>
<path d="M307.434 -157.393L-92.2769 206.331L-91.7258 206.839L308.543 -157.393H307.434Z" fill="url(#paint30_linear_120_1523)"/>
<path d="M238.19 -157.393L-161.937 206.709L-161.385 207.216L239.299 -157.393H238.19Z" fill="url(#paint31_linear_120_1523)"/>
<path d="M159.495 -157.393L-241.107 207.136L-240.55 207.643L160.604 -157.393H159.495Z" fill="url(#paint32_linear_120_1523)"/>
<path d="M200.138 -157.393L-200.212 206.919L-199.661 207.421L201.247 -157.393H200.138Z" fill="url(#paint33_linear_120_1523)"/>
<path d="M-303.61 182.923L70.3847 -157.393H69.2758L-303.61 181.921V182.923Z" fill="url(#paint34_linear_120_1523)"/>
<path d="M115.981 -157.393L-284.88 207.377L-284.329 207.879L117.09 -157.393H115.981Z" fill="url(#paint35_linear_120_1523)"/>
<path d="M-303.61 137.198L20.1283 -157.393H19.0193L-303.61 136.189V137.198Z" fill="url(#paint36_linear_120_1523)"/>
<path d="M872.481 733.964L290.644 204.511L-303.61 207.724V975.226L-176.183 1091.18H872.481V733.964Z" fill="#30302B"/>
<path d="M85.3594 1091.18L-303.609 737.232V738.241L84.2504 1091.18H85.3594Z" fill="url(#paint37_linear_120_1523)"/>
<path d="M178.525 1091.18L-303.609 652.455V653.464L177.423 1091.18H178.525Z" fill="url(#paint38_linear_120_1523)"/>
<path d="M262.948 1091.18L-303.609 575.633V576.642L261.839 1091.18H262.948Z" fill="url(#paint39_linear_120_1523)"/>
<path d="M339.805 1091.18L-303.609 505.695V506.704L338.696 1091.18H339.805Z" fill="url(#paint40_linear_120_1523)"/>
<path d="M410.064 1091.18L-303.609 441.762V442.771L408.955 1091.18H410.064Z" fill="url(#paint41_linear_120_1523)"/>
<path d="M474.546 1091.18L-303.609 383.086V384.095L473.437 1091.18H474.546Z" fill="url(#paint42_linear_120_1523)"/>
<path d="M533.932 1091.18L-303.609 329.046V330.055L532.823 1091.18H533.932Z" fill="url(#paint43_linear_120_1523)"/>
<path d="M588.802 1091.18L-303.609 279.117V280.12L587.699 1091.18H588.802Z" fill="url(#paint44_linear_120_1523)"/>
<path d="M639.657 1091.18L-303.609 232.84V233.843L638.555 1091.18H639.657Z" fill="url(#paint45_linear_120_1523)"/>
<path d="M686.919 1091.18L-284.329 207.377L-284.88 207.879L685.811 1091.18H686.919Z" fill="url(#paint46_linear_120_1523)"/>
<path d="M730.957 1091.18L-240.55 207.136L-241.107 207.644L729.848 1091.18H730.957Z" fill="url(#paint47_linear_120_1523)"/>
<path d="M772.091 1091.18L-199.661 206.919L-200.212 207.421L770.982 1091.18H772.091Z" fill="url(#paint48_linear_120_1523)"/>
<path d="M810.598 1091.18L-161.385 206.709L-161.937 207.216L809.489 1091.18H810.598Z" fill="url(#paint49_linear_120_1523)"/>
<path d="M846.717 1091.18L-125.477 206.517L-126.028 207.018L845.608 1091.18H846.717Z" fill="url(#paint50_linear_120_1523)"/>
<path d="M872.482 1083.73L-91.7253 206.331L-92.2764 206.839L872.482 1084.74V1083.73Z" fill="url(#paint51_linear_120_1523)"/>
<path d="M872.481 1054.64L-59.9401 206.164L-60.4912 206.665L872.481 1055.65V1054.64Z" fill="url(#paint52_linear_120_1523)"/>
<path d="M872.481 1027.19L-29.9509 205.997L-30.5088 206.504L872.481 1028.2V1027.19Z" fill="url(#paint53_linear_120_1523)"/>
<path d="M872.481 1001.25L-1.62178 205.848L-2.17285 206.35L872.481 1002.26V1001.25Z" fill="url(#paint54_linear_120_1523)"/>
<path d="M872.481 976.706L25.197 205.7L24.6392 206.207L872.481 977.715V976.706Z" fill="url(#paint55_linear_120_1523)"/>
<path d="M872.481 953.441L50.6077 205.563L50.0566 206.071L872.481 954.45V953.441Z" fill="url(#paint56_linear_120_1523)"/>
<path d="M872.482 931.365L74.7327 205.433L74.1748 205.935L872.482 932.367V931.365Z" fill="url(#paint57_linear_120_1523)"/>
<path d="M872.482 910.378L97.6531 205.31L97.1021 205.811L872.482 911.387V910.378Z" fill="url(#paint58_linear_120_1523)"/>
<path d="M872.481 890.406L119.471 205.192L118.92 205.693L872.481 891.415V890.406Z" fill="url(#paint59_linear_120_1523)"/>
<path d="M872.481 871.382L140.256 205.081L139.705 205.582L872.481 872.391V871.382Z" fill="url(#paint60_linear_120_1523)"/>
<path d="M872.482 853.236L160.081 204.969L159.523 205.477L872.482 854.245V853.236Z" fill="url(#paint61_linear_120_1523)"/>
<path d="M872.481 835.908L179.008 204.87L178.457 205.372L872.481 836.917V835.908Z" fill="url(#paint62_linear_120_1523)"/>
<path d="M872.482 819.348L197.105 204.771L196.547 205.279L872.482 820.357V819.348Z" fill="url(#paint63_linear_120_1523)"/>
<path d="M872.482 803.499L214.42 204.678L213.862 205.18L872.482 804.502V803.499Z" fill="url(#paint64_linear_120_1523)"/>
<path d="M872.481 788.319L230.999 204.585L230.441 205.093L872.481 789.328V788.319Z" fill="url(#paint65_linear_120_1523)"/>
<path d="M872.482 773.771L246.892 204.499L246.341 205.006L872.482 774.78V773.771Z" fill="url(#paint66_linear_120_1523)"/>
<path d="M872.481 759.81L262.138 204.418L261.587 204.926L872.481 760.819V759.81Z" fill="url(#paint67_linear_120_1523)"/>
<path d="M872.481 746.407L276.785 204.338L276.228 204.845L872.481 747.416V746.407Z" fill="url(#paint68_linear_120_1523)"/>
<path d="M872.481 733.524L290.855 204.263L290.304 204.771L872.481 734.533V733.524Z" fill="url(#paint69_linear_120_1523)"/>
<path d="M501.058 1091.18L758.756 630.385L758.055 630.063L500.181 1091.18H501.058Z" fill="url(#paint70_linear_120_1523)"/>
<path d="M431.413 1091.18L737.482 611.051L736.802 610.692L430.508 1091.18H431.413Z" fill="url(#paint71_linear_120_1523)"/>
<path d="M354.874 1091.18L716.201 591.717L715.548 591.327L353.936 1091.18H354.874Z" fill="url(#paint72_linear_120_1523)"/>
<path d="M270.363 1091.18L694.927 572.383L694.294 571.956L269.383 1091.18H270.363Z" fill="url(#paint73_linear_120_1523)"/>
<path d="M176.565 1091.18L673.646 553.049L673.047 552.591L175.538 1091.18H176.565Z" fill="url(#paint74_linear_120_1523)"/>
<path d="M71.861 1091.18L652.365 533.715L651.8 533.226L70.7793 1091.18H71.861Z" fill="url(#paint75_linear_120_1523)"/>
<path d="M-45.7687 1091.18L631.084 514.381L630.547 513.861L-46.9185 1091.18H-45.7687Z" fill="url(#paint76_linear_120_1523)"/>
<path d="M-177.407 1090.07L609.804 495.047L609.3 494.496L-177.965 1089.56L-177.407 1090.07Z" fill="url(#paint77_linear_120_1523)"/>
<path d="M-241.692 1031.57L588.522 475.707L588.053 475.131L-242.257 1031.06L-241.692 1031.57Z" fill="url(#paint78_linear_120_1523)"/>
<path d="M-303.61 971.661L567.234 456.366L566.806 455.772L-303.61 970.806V971.661Z" fill="url(#paint79_linear_120_1523)"/>
<path d="M-303.61 879.82L545.954 437.026L545.566 436.413L-303.61 879.002V879.82Z" fill="url(#paint80_linear_120_1523)"/>
<path d="M-303.61 796.225L524.666 417.686L524.319 417.048L-303.61 795.42V796.225Z" fill="url(#paint81_linear_120_1523)"/>
<path d="M-303.61 719.799L503.385 398.346L503.072 397.69L-303.61 719.019V719.799Z" fill="url(#paint82_linear_120_1523)"/>
<path d="M-303.61 649.669L482.104 379L481.825 378.337L-303.61 648.908V649.669Z" fill="url(#paint83_linear_120_1523)"/>
<path d="M-303.61 585.086L460.816 359.659L460.578 358.978L-303.61 584.337V585.086Z" fill="url(#paint84_linear_120_1523)"/>
<path d="M-303.61 525.413L439.535 340.313L439.331 339.626L-303.61 524.676V525.413Z" fill="url(#paint85_linear_120_1523)"/>
<path d="M-303.61 470.116L418.254 320.967L418.084 320.267L-303.61 469.386V470.116Z" fill="url(#paint86_linear_120_1523)"/>
<path d="M-303.61 418.726L396.973 301.62L396.831 300.915L-303.61 418.002V418.726Z" fill="url(#paint87_linear_120_1523)"/>
<path d="M-303.61 370.846L375.693 282.268L375.584 281.562L-303.61 370.122V370.846Z" fill="url(#paint88_linear_120_1523)"/>
<path d="M-303.61 326.124L354.418 262.921L354.33 262.21L-303.61 325.406V326.124Z" fill="url(#paint89_linear_120_1523)"/>
<path d="M-303.61 284.267L333.138 243.575L333.083 242.863L-303.61 283.549V284.267Z" fill="url(#paint90_linear_120_1523)"/>
<path d="M-303.61 244.999L311.857 224.223L311.829 223.511L-303.61 244.281V244.999Z" fill="url(#paint91_linear_120_1523)"/>
<path d="M290.588 204.164L-303.611 207.378L-303.607 208.09L290.592 204.876L290.588 204.164Z" fill="url(#paint92_linear_120_1523)"/>
<path d="M872.482 -157.393H638.017L118.308 315.525L749.504 889.892L872.482 777.98V-157.393Z" fill="#30302B"/>
<path d="M197.458 243.494L196.904 243.998L828.096 818.362L828.65 817.858L197.458 243.494Z" fill="url(#paint93_linear_120_1523)"/>
<path d="M223.752 219.567L223.199 220.07L854.391 794.434L854.944 793.931L223.752 219.567Z" fill="url(#paint94_linear_120_1523)"/>
<path d="M872.482 762.026L250.055 195.639L249.504 196.141L872.482 763.036V762.026Z" fill="url(#paint95_linear_120_1523)"/>
<path d="M872.482 714.171L276.35 171.712L275.792 172.213L872.482 715.18V714.171Z" fill="url(#paint96_linear_120_1523)"/>
<path d="M872.481 666.316L302.645 147.784L302.087 148.286L872.481 667.325V666.316Z" fill="url(#paint97_linear_120_1523)"/>
<path d="M872.481 618.467L328.94 123.857L328.382 124.358L872.481 619.47V618.467Z" fill="url(#paint98_linear_120_1523)"/>
<path d="M872.481 570.612L355.235 99.9291L354.677 100.431L872.481 571.621V570.612Z" fill="url(#paint99_linear_120_1523)"/>
<path d="M872.481 522.757L381.53 76.0016L380.972 76.503L872.481 523.766V522.757Z" fill="url(#paint100_linear_120_1523)"/>
<path d="M872.481 474.902L407.818 52.074L407.267 52.5817L872.481 475.911V474.902Z" fill="url(#paint101_linear_120_1523)"/>
<path d="M872.482 427.047L434.114 28.1465L433.562 28.6541L872.482 428.056V427.047Z" fill="url(#paint102_linear_120_1523)"/>
<path d="M872.481 379.191L460.409 4.21887L459.857 4.72652L872.481 380.201V379.191Z" fill="url(#paint103_linear_120_1523)"/>
<path d="M872.481 331.343L486.703 -19.7087L486.152 -19.2011L872.481 332.345V331.343Z" fill="url(#paint104_linear_120_1523)"/>
<path d="M872.481 283.487L512.998 -43.6301L512.447 -43.1286L872.481 284.497V283.487Z" fill="url(#paint105_linear_120_1523)"/>
<path d="M171.168 267.418L170.615 267.921L801.807 842.285L802.361 841.781L171.168 267.418Z" fill="url(#paint106_linear_120_1523)"/>
<path d="M144.874 291.345L144.32 291.848L775.513 866.212L776.066 865.709L144.874 291.345Z" fill="url(#paint107_linear_120_1523)"/>
<path d="M118.581 315.273L118.027 315.777L749.219 890.14L749.773 889.637L118.581 315.273Z" fill="url(#paint108_linear_120_1523)"/>
<path d="M872.482 339.496L508.57 670.644L509.121 671.151L872.482 340.505V339.496Z" fill="url(#paint109_linear_120_1523)"/>
<path d="M872.481 284.979L478.614 643.392L479.172 643.893L872.481 285.988V284.979Z" fill="url(#paint110_linear_120_1523)"/>
<path d="M872.482 230.333L448.584 616.065L449.142 616.567L872.482 231.342V230.333Z" fill="url(#paint111_linear_120_1523)"/>
<path d="M872.482 175.538L418.48 588.671L419.038 589.172L872.482 176.547V175.538Z" fill="url(#paint112_linear_120_1523)"/>
<path d="M872.482 121.027L388.531 561.412L389.082 561.914L872.482 122.037V121.027Z" fill="url(#paint113_linear_120_1523)"/>
<path d="M872.482 66.3749L358.501 534.086L359.052 534.588L872.482 67.384V66.3749Z" fill="url(#paint114_linear_120_1523)"/>
<path d="M872.482 11.0226L328.083 506.413L328.641 506.915L872.482 12.0317V11.0226Z" fill="url(#paint115_linear_120_1523)"/>
<path d="M872.482 -43.4877L298.128 479.155L298.686 479.656L872.482 -42.4786V-43.4877Z" fill="url(#paint116_linear_120_1523)"/>
<path d="M872.481 -97.9299L268.22 451.934L268.771 452.441L872.481 -96.9208V-97.9299Z" fill="url(#paint117_linear_120_1523)"/>
<path d="M872.482 -152.793L238.075 424.502L238.626 425.01L872.482 -151.784V-152.793Z" fill="url(#paint118_linear_120_1523)"/>
<path d="M817.538 -157.393L208.072 397.201L208.63 397.708L818.647 -157.393H817.538Z" fill="url(#paint119_linear_120_1523)"/>
<path d="M757.423 -157.393L178.049 369.825L178.6 370.326L758.532 -157.393H757.423Z" fill="url(#paint120_linear_120_1523)"/>
<path d="M697.676 -157.393L148.134 342.666L148.692 343.173L698.785 -157.393H697.676Z" fill="url(#paint121_linear_120_1523)"/>
<path d="M637.459 -157.393L118.029 315.271L118.587 315.773L638.568 -157.393H637.459Z" fill="url(#paint122_linear_120_1523)"/>
</g>
<g filter="url(#filter0_f_120_1523)">
<path d="M103 385.95L431 89.3772L721 450.357L527.5 711.979L103 385.95Z" fill="#E8A75E" fill-opacity="0.5"/>
</g>
</g>
<defs>
<filter id="filter0_f_120_1523" x="-47" y="-60.6228" width="918" height="922.602" filterUnits="userSpaceOnUse" color-interpolation-filters="sRGB">
<feFlood flood-opacity="0" result="BackgroundImageFix"/>
<feBlend mode="normal" in="SourceGraphic" in2="BackgroundImageFix" result="shape"/>
<feGaussianBlur stdDeviation="75" result="effect1_foregroundBlur_120_1523"/>
</filter>
<linearGradient id="paint0_linear_120_1523" x1="433.613" y1="-157.393" x2="433.613" y2="6.79425" gradientUnits="userSpaceOnUse">
<stop stop-color="#D39659"/>
<stop offset="1" stop-color="#E7BA8E" stop-opacity="0"/>
</linearGradient>
<linearGradient id="paint1_linear_120_1523" x1="382.187" y1="-157.393" x2="382.187" y2="26.6173" gradientUnits="userSpaceOnUse">
<stop stop-color="#D39659"/>
<stop offset="1" stop-color="#E7BA8E" stop-opacity="0"/>
</linearGradient>
<linearGradient id="paint2_linear_120_1523" x1="320.518" y1="-157.393" x2="320.518" y2="46.4342" gradientUnits="userSpaceOnUse">
<stop stop-color="#D39659"/>
<stop offset="1" stop-color="#E7BA8E" stop-opacity="0"/>
</linearGradient>
<linearGradient id="paint3_linear_120_1523" x1="244.177" y1="-157.393" x2="244.177" y2="66.251" gradientUnits="userSpaceOnUse">
<stop stop-color="#D39659"/>
<stop offset="1" stop-color="#E7BA8E" stop-opacity="0"/>
</linearGradient>
<linearGradient id="paint4_linear_120_1523" x1="145.739" y1="-157.393" x2="145.739" y2="86.0617" gradientUnits="userSpaceOnUse">
<stop stop-color="#D39659"/>
<stop offset="1" stop-color="#E7BA8E" stop-opacity="0"/>
</linearGradient>
<linearGradient id="paint5_linear_120_1523" x1="47.9336" y1="-133.564" x2="47.9336" y2="105.872" gradientUnits="userSpaceOnUse">
<stop stop-color="#D39659"/>
<stop offset="1" stop-color="#E7BA8E" stop-opacity="0"/>
</linearGradient>
<linearGradient id="paint6_linear_120_1523" x1="37.038" y1="-46.4036" x2="37.038" y2="125.671" gradientUnits="userSpaceOnUse">
<stop stop-color="#D39659"/>
<stop offset="1" stop-color="#E7BA8E" stop-opacity="0"/>
</linearGradient>
<linearGradient id="paint7_linear_120_1523" x1="26.1492" y1="29.2855" x2="26.1492" y2="145.475" gradientUnits="userSpaceOnUse">
<stop stop-color="#D39659"/>
<stop offset="1" stop-color="#E7BA8E" stop-opacity="0"/>
</linearGradient>
<linearGradient id="paint8_linear_120_1523" x1="15.257" y1="95.6204" x2="15.257" y2="165.273" gradientUnits="userSpaceOnUse">
<stop stop-color="#D39659"/>
<stop offset="1" stop-color="#E7BA8E" stop-opacity="0"/>
</linearGradient>
<linearGradient id="paint9_linear_120_1523" x1="4.36826" y1="154.241" x2="4.36826" y2="185.072" gradientUnits="userSpaceOnUse">
<stop stop-color="#D39659"/>
<stop offset="1" stop-color="#E7BA8E" stop-opacity="0"/>
</linearGradient>
<linearGradient id="paint10_linear_120_1523" x1="-6.5225" y1="205.89" x2="-6.51834" y2="206.602" gradientUnits="userSpaceOnUse">
<stop stop-color="#D39659"/>
<stop offset="1" stop-color="#E7BA8E" stop-opacity="0"/>
</linearGradient>
<linearGradient id="paint11_linear_120_1523" x1="385.7" y1="369.224" x2="601.415" y2="278.343" gradientUnits="userSpaceOnUse">
<stop stop-color="#E16F00"/>
<stop offset="1" stop-color="#F6F3E0"/>
</linearGradient>
<linearGradient id="paint12_linear_120_1523" x1="371.676" y1="369.323" x2="587.431" y2="278.424" gradientUnits="userSpaceOnUse">
<stop stop-color="#E16F00"/>
<stop offset="1" stop-color="#F6F3E0"/>
</linearGradient>
<linearGradient id="paint13_linear_120_1523" x1="357.039" y1="369.449" x2="572.848" y2="278.526" gradientUnits="userSpaceOnUse">
<stop stop-color="#E16F00"/>
<stop offset="1" stop-color="#F6F3E0"/>
</linearGradient>
<linearGradient id="paint14_linear_120_1523" x1="341.824" y1="369.557" x2="557.675" y2="278.618" gradientUnits="userSpaceOnUse">
<stop stop-color="#E16F00"/>
<stop offset="1" stop-color="#F6F3E0"/>
</linearGradient>
<linearGradient id="paint15_linear_120_1523" x1="325.947" y1="369.692" x2="541.851" y2="278.733" gradientUnits="userSpaceOnUse">
<stop stop-color="#E16F00"/>
<stop offset="1" stop-color="#F6F3E0"/>
</linearGradient>
<linearGradient id="paint16_linear_120_1523" x1="309.382" y1="369.827" x2="525.346" y2="278.839" gradientUnits="userSpaceOnUse">
<stop stop-color="#E16F00"/>
<stop offset="1" stop-color="#F6F3E0"/>
</linearGradient>
<linearGradient id="paint17_linear_120_1523" x1="292.071" y1="370.007" x2="508.106" y2="278.991" gradientUnits="userSpaceOnUse">
<stop stop-color="#E16F00"/>
<stop offset="1" stop-color="#F6F3E0"/>
</linearGradient>
<linearGradient id="paint18_linear_120_1523" x1="274.036" y1="370.088" x2="490.104" y2="279.058" gradientUnits="userSpaceOnUse">
<stop stop-color="#E16F00"/>
<stop offset="1" stop-color="#F6F3E0"/>
</linearGradient>
<linearGradient id="paint19_linear_120_1523" x1="255.137" y1="370.232" x2="471.267" y2="279.175" gradientUnits="userSpaceOnUse">
<stop stop-color="#E16F00"/>
<stop offset="1" stop-color="#F6F3E0"/>
</linearGradient>
<linearGradient id="paint20_linear_120_1523" x1="214.569" y1="370.583" x2="430.84" y2="279.468" gradientUnits="userSpaceOnUse">
<stop stop-color="#E16F00"/>
<stop offset="1" stop-color="#F6F3E0"/>
</linearGradient>
<linearGradient id="paint21_linear_120_1523" x1="235.324" y1="370.421" x2="451.528" y2="279.334" gradientUnits="userSpaceOnUse">
<stop stop-color="#E16F00"/>
<stop offset="1" stop-color="#F6F3E0"/>
</linearGradient>
<linearGradient id="paint22_linear_120_1523" x1="192.783" y1="370.755" x2="409.127" y2="279.607" gradientUnits="userSpaceOnUse">
<stop stop-color="#E16F00"/>
<stop offset="1" stop-color="#F6F3E0"/>
</linearGradient>
<linearGradient id="paint23_linear_120_1523" x1="145.805" y1="371.133" x2="362.3" y2="279.922" gradientUnits="userSpaceOnUse">
<stop stop-color="#E16F00"/>
<stop offset="1" stop-color="#F6F3E0"/>
</linearGradient>
<linearGradient id="paint24_linear_120_1523" x1="169.889" y1="370.935" x2="386.306" y2="279.756" gradientUnits="userSpaceOnUse">
<stop stop-color="#E16F00"/>
<stop offset="1" stop-color="#F6F3E0"/>
</linearGradient>
<linearGradient id="paint25_linear_120_1523" x1="120.465" y1="371.376" x2="337.06" y2="280.124" gradientUnits="userSpaceOnUse">
<stop stop-color="#E16F00"/>
<stop offset="1" stop-color="#F6F3E0"/>
</linearGradient>
<linearGradient id="paint26_linear_120_1523" x1="65.3549" y1="371.763" x2="282.111" y2="280.441" gradientUnits="userSpaceOnUse">
<stop stop-color="#E16F00"/>
<stop offset="1" stop-color="#F6F3E0"/>
</linearGradient>
<linearGradient id="paint27_linear_120_1523" x1="93.6489" y1="371.538" x2="310.31" y2="280.258" gradientUnits="userSpaceOnUse">
<stop stop-color="#E16F00"/>
<stop offset="1" stop-color="#F6F3E0"/>
</linearGradient>
<linearGradient id="paint28_linear_120_1523" x1="35.4131" y1="371.997" x2="252.262" y2="280.638" gradientUnits="userSpaceOnUse">
<stop stop-color="#E16F00"/>
<stop offset="1" stop-color="#F6F3E0"/>
</linearGradient>
<linearGradient id="paint29_linear_120_1523" x1="-30.0306" y1="372.51" x2="187.029" y2="281.063" gradientUnits="userSpaceOnUse">
<stop stop-color="#E16F00"/>
<stop offset="1" stop-color="#F6F3E0"/>
</linearGradient>
<linearGradient id="paint30_linear_120_1523" x1="3.6736" y1="372.249" x2="220.626" y2="280.847" gradientUnits="userSpaceOnUse">
<stop stop-color="#E16F00"/>
<stop offset="1" stop-color="#F6F3E0"/>
</linearGradient>
<linearGradient id="paint31_linear_120_1523" x1="-65.8867" y1="372.798" x2="151.29" y2="281.301" gradientUnits="userSpaceOnUse">
<stop stop-color="#E16F00"/>
<stop offset="1" stop-color="#F6F3E0"/>
</linearGradient>
<linearGradient id="paint32_linear_120_1523" x1="-144.944" y1="373.419" x2="72.4902" y2="281.813" gradientUnits="userSpaceOnUse">
<stop stop-color="#E16F00"/>
<stop offset="1" stop-color="#F6F3E0"/>
</linearGradient>
<linearGradient id="paint33_linear_120_1523" x1="-104.109" y1="373.095" x2="113.19" y2="281.547" gradientUnits="userSpaceOnUse">
<stop stop-color="#E16F00"/>
<stop offset="1" stop-color="#F6F3E0"/>
</linearGradient>
<linearGradient id="paint34_linear_120_1523" x1="-214.081" y1="337.473" x2="-11.5659" y2="252.269" gradientUnits="userSpaceOnUse">
<stop stop-color="#E16F00"/>
<stop offset="1" stop-color="#F6F3E0"/>
</linearGradient>
<linearGradient id="paint35_linear_120_1523" x1="-188.655" y1="373.761" x2="28.9191" y2="282.096" gradientUnits="userSpaceOnUse">
<stop stop-color="#E16F00"/>
<stop offset="1" stop-color="#F6F3E0"/>
</linearGradient>
<linearGradient id="paint36_linear_120_1523" x1="-226.112" y1="270.982" x2="-50.8091" y2="197.228" gradientUnits="userSpaceOnUse">
<stop stop-color="#E16F00"/>
<stop offset="1" stop-color="#F6F3E0"/>
</linearGradient>
<linearGradient id="paint37_linear_120_1523" x1="-109.125" y1="737.232" x2="-109.125" y2="1091.18" gradientUnits="userSpaceOnUse">
<stop stop-color="#D39659"/>
<stop offset="1" stop-color="#E7BA8E" stop-opacity="0"/>
</linearGradient>
<linearGradient id="paint38_linear_120_1523" x1="-62.5423" y1="652.455" x2="-62.5423" y2="1091.18" gradientUnits="userSpaceOnUse">
<stop stop-color="#D39659"/>
<stop offset="1" stop-color="#E7BA8E" stop-opacity="0"/>
</linearGradient>
<linearGradient id="paint39_linear_120_1523" x1="-20.3309" y1="575.633" x2="-20.3309" y2="1091.18" gradientUnits="userSpaceOnUse">
<stop stop-color="#D39659"/>
<stop offset="1" stop-color="#E7BA8E" stop-opacity="0"/>
</linearGradient>
<linearGradient id="paint40_linear_120_1523" x1="18.0979" y1="505.695" x2="18.0979" y2="1091.18" gradientUnits="userSpaceOnUse">
<stop stop-color="#D39659"/>
<stop offset="1" stop-color="#E7BA8E" stop-opacity="0"/>
</linearGradient>
<linearGradient id="paint41_linear_120_1523" x1="53.2271" y1="441.762" x2="53.2271" y2="1091.18" gradientUnits="userSpaceOnUse">
<stop stop-color="#D39659"/>
<stop offset="1" stop-color="#E7BA8E" stop-opacity="0"/>
</linearGradient>
<linearGradient id="paint42_linear_120_1523" x1="85.4683" y1="383.086" x2="85.4683" y2="1091.18" gradientUnits="userSpaceOnUse">
<stop stop-color="#D39659"/>
<stop offset="1" stop-color="#E7BA8E" stop-opacity="0"/>
</linearGradient>
<linearGradient id="paint43_linear_120_1523" x1="115.162" y1="329.046" x2="115.162" y2="1091.18" gradientUnits="userSpaceOnUse">
<stop stop-color="#D39659"/>
<stop offset="1" stop-color="#E7BA8E" stop-opacity="0"/>
</linearGradient>
<linearGradient id="paint44_linear_120_1523" x1="142.596" y1="279.117" x2="142.596" y2="1091.18" gradientUnits="userSpaceOnUse">
<stop stop-color="#D39659"/>
<stop offset="1" stop-color="#E7BA8E" stop-opacity="0"/>
</linearGradient>
<linearGradient id="paint45_linear_120_1523" x1="168.024" y1="232.84" x2="168.024" y2="1091.18" gradientUnits="userSpaceOnUse">
<stop stop-color="#D39659"/>
<stop offset="1" stop-color="#E7BA8E" stop-opacity="0"/>
</linearGradient>
<linearGradient id="paint46_linear_120_1523" x1="201.02" y1="207.377" x2="201.02" y2="1091.18" gradientUnits="userSpaceOnUse">
<stop stop-color="#D39659"/>
<stop offset="1" stop-color="#E7BA8E" stop-opacity="0"/>
</linearGradient>
<linearGradient id="paint47_linear_120_1523" x1="244.925" y1="207.136" x2="244.925" y2="1091.18" gradientUnits="userSpaceOnUse">
<stop stop-color="#D39659"/>
<stop offset="1" stop-color="#E7BA8E" stop-opacity="0"/>
</linearGradient>
<linearGradient id="paint48_linear_120_1523" x1="285.94" y1="206.919" x2="285.94" y2="1091.18" gradientUnits="userSpaceOnUse">
<stop stop-color="#D39659"/>
<stop offset="1" stop-color="#E7BA8E" stop-opacity="0"/>
</linearGradient>
<linearGradient id="paint49_linear_120_1523" x1="324.331" y1="206.709" x2="324.331" y2="1091.18" gradientUnits="userSpaceOnUse">
<stop stop-color="#D39659"/>
<stop offset="1" stop-color="#E7BA8E" stop-opacity="0"/>
</linearGradient>
<linearGradient id="paint50_linear_120_1523" x1="360.344" y1="206.517" x2="360.344" y2="1091.18" gradientUnits="userSpaceOnUse">
<stop stop-color="#D39659"/>
<stop offset="1" stop-color="#E7BA8E" stop-opacity="0"/>
</linearGradient>
<linearGradient id="paint51_linear_120_1523" x1="390.103" y1="206.331" x2="390.103" y2="1084.74" gradientUnits="userSpaceOnUse">
<stop stop-color="#D39659"/>
<stop offset="1" stop-color="#E7BA8E" stop-opacity="0"/>
</linearGradient>
<linearGradient id="paint52_linear_120_1523" x1="405.995" y1="206.164" x2="405.995" y2="1055.65" gradientUnits="userSpaceOnUse">
<stop stop-color="#D39659"/>
<stop offset="1" stop-color="#E7BA8E" stop-opacity="0"/>
</linearGradient>
<linearGradient id="paint53_linear_120_1523" x1="420.986" y1="205.997" x2="420.986" y2="1028.2" gradientUnits="userSpaceOnUse">
<stop stop-color="#D39659"/>
<stop offset="1" stop-color="#E7BA8E" stop-opacity="0"/>
</linearGradient>
<linearGradient id="paint54_linear_120_1523" x1="435.154" y1="205.848" x2="435.154" y2="1002.26" gradientUnits="userSpaceOnUse">
<stop stop-color="#D39659"/>
<stop offset="1" stop-color="#E7BA8E" stop-opacity="0"/>
</linearGradient>
<linearGradient id="paint55_linear_120_1523" x1="448.56" y1="205.7" x2="448.56" y2="977.715" gradientUnits="userSpaceOnUse">
<stop stop-color="#D39659"/>
<stop offset="1" stop-color="#E7BA8E" stop-opacity="0"/>
</linearGradient>
<linearGradient id="paint56_linear_120_1523" x1="461.269" y1="205.563" x2="461.269" y2="954.45" gradientUnits="userSpaceOnUse">
<stop stop-color="#D39659"/>
<stop offset="1" stop-color="#E7BA8E" stop-opacity="0"/>
</linearGradient>
<linearGradient id="paint57_linear_120_1523" x1="473.328" y1="205.433" x2="473.328" y2="932.367" gradientUnits="userSpaceOnUse">
<stop stop-color="#D39659"/>
<stop offset="1" stop-color="#E7BA8E" stop-opacity="0"/>
</linearGradient>
<linearGradient id="paint58_linear_120_1523" x1="484.792" y1="205.31" x2="484.792" y2="911.387" gradientUnits="userSpaceOnUse">
<stop stop-color="#D39659"/>
<stop offset="1" stop-color="#E7BA8E" stop-opacity="0"/>
</linearGradient>
<linearGradient id="paint59_linear_120_1523" x1="495.701" y1="205.192" x2="495.701" y2="891.415" gradientUnits="userSpaceOnUse">
<stop stop-color="#D39659"/>
<stop offset="1" stop-color="#E7BA8E" stop-opacity="0"/>
</linearGradient>
<linearGradient id="paint60_linear_120_1523" x1="506.093" y1="205.081" x2="506.093" y2="872.391" gradientUnits="userSpaceOnUse">
<stop stop-color="#D39659"/>
<stop offset="1" stop-color="#E7BA8E" stop-opacity="0"/>
</linearGradient>
<linearGradient id="paint61_linear_120_1523" x1="516.002" y1="204.969" x2="516.002" y2="854.245" gradientUnits="userSpaceOnUse">
<stop stop-color="#D39659"/>
<stop offset="1" stop-color="#E7BA8E" stop-opacity="0"/>
</linearGradient>
<linearGradient id="paint62_linear_120_1523" x1="525.469" y1="204.87" x2="525.469" y2="836.917" gradientUnits="userSpaceOnUse">
<stop stop-color="#D39659"/>
<stop offset="1" stop-color="#E7BA8E" stop-opacity="0"/>
</linearGradient>
<linearGradient id="paint63_linear_120_1523" x1="534.514" y1="204.771" x2="534.514" y2="820.357" gradientUnits="userSpaceOnUse">
<stop stop-color="#D39659"/>
<stop offset="1" stop-color="#E7BA8E" stop-opacity="0"/>
</linearGradient>
<linearGradient id="paint64_linear_120_1523" x1="543.172" y1="204.678" x2="543.172" y2="804.502" gradientUnits="userSpaceOnUse">
<stop stop-color="#D39659"/>
<stop offset="1" stop-color="#E7BA8E" stop-opacity="0"/>
</linearGradient>
<linearGradient id="paint65_linear_120_1523" x1="551.461" y1="204.585" x2="551.461" y2="789.328" gradientUnits="userSpaceOnUse">
<stop stop-color="#D39659"/>
<stop offset="1" stop-color="#E7BA8E" stop-opacity="0"/>
</linearGradient>
<linearGradient id="paint66_linear_120_1523" x1="559.411" y1="204.499" x2="559.411" y2="774.78" gradientUnits="userSpaceOnUse">
<stop stop-color="#D39659"/>
<stop offset="1" stop-color="#E7BA8E" stop-opacity="0"/>
</linearGradient>
<linearGradient id="paint67_linear_120_1523" x1="567.034" y1="204.418" x2="567.034" y2="760.819" gradientUnits="userSpaceOnUse">
<stop stop-color="#D39659"/>
<stop offset="1" stop-color="#E7BA8E" stop-opacity="0"/>
</linearGradient>
<linearGradient id="paint68_linear_120_1523" x1="574.354" y1="204.338" x2="574.354" y2="747.416" gradientUnits="userSpaceOnUse">
<stop stop-color="#D39659"/>
<stop offset="1" stop-color="#E7BA8E" stop-opacity="0"/>
</linearGradient>
<linearGradient id="paint69_linear_120_1523" x1="581.392" y1="204.263" x2="581.392" y2="734.533" gradientUnits="userSpaceOnUse">
<stop stop-color="#D39659"/>
<stop offset="1" stop-color="#E7BA8E" stop-opacity="0"/>
</linearGradient>
<linearGradient id="paint70_linear_120_1523" x1="629.468" y1="630.063" x2="629.468" y2="1091.18" gradientUnits="userSpaceOnUse">
<stop stop-color="#D39659"/>
<stop offset="1" stop-color="#E7BA8E" stop-opacity="0"/>
</linearGradient>
<linearGradient id="paint71_linear_120_1523" x1="583.995" y1="610.692" x2="583.995" y2="1091.18" gradientUnits="userSpaceOnUse">
<stop stop-color="#D39659"/>
<stop offset="1" stop-color="#E7BA8E" stop-opacity="0"/>
</linearGradient>
<linearGradient id="paint72_linear_120_1523" x1="535.068" y1="591.327" x2="535.068" y2="1091.18" gradientUnits="userSpaceOnUse">
<stop stop-color="#D39659"/>
<stop offset="1" stop-color="#E7BA8E" stop-opacity="0"/>
</linearGradient>
<linearGradient id="paint73_linear_120_1523" x1="482.155" y1="571.956" x2="482.155" y2="1091.18" gradientUnits="userSpaceOnUse">
<stop stop-color="#D39659"/>
<stop offset="1" stop-color="#E7BA8E" stop-opacity="0"/>
</linearGradient>
<linearGradient id="paint74_linear_120_1523" x1="424.592" y1="552.591" x2="424.592" y2="1091.18" gradientUnits="userSpaceOnUse">
<stop stop-color="#D39659"/>
<stop offset="1" stop-color="#E7BA8E" stop-opacity="0"/>
</linearGradient>
<linearGradient id="paint75_linear_120_1523" x1="361.572" y1="533.226" x2="361.572" y2="1091.18" gradientUnits="userSpaceOnUse">
<stop stop-color="#D39659"/>
<stop offset="1" stop-color="#E7BA8E" stop-opacity="0"/>
</linearGradient>
<linearGradient id="paint76_linear_120_1523" x1="292.083" y1="513.861" x2="292.083" y2="1091.18" gradientUnits="userSpaceOnUse">
<stop stop-color="#D39659"/>
<stop offset="1" stop-color="#E7BA8E" stop-opacity="0"/>
</linearGradient>
<linearGradient id="paint77_linear_120_1523" x1="215.919" y1="494.496" x2="215.919" y2="1090.07" gradientUnits="userSpaceOnUse">
<stop stop-color="#D39659"/>
<stop offset="1" stop-color="#E7BA8E" stop-opacity="0"/>
</linearGradient>
<linearGradient id="paint78_linear_120_1523" x1="173.133" y1="475.131" x2="173.133" y2="1031.57" gradientUnits="userSpaceOnUse">
<stop stop-color="#D39659"/>
<stop offset="1" stop-color="#E7BA8E" stop-opacity="0"/>
</linearGradient>
<linearGradient id="paint79_linear_120_1523" x1="131.812" y1="455.772" x2="131.812" y2="971.661" gradientUnits="userSpaceOnUse">
<stop stop-color="#D39659"/>
<stop offset="1" stop-color="#E7BA8E" stop-opacity="0"/>
</linearGradient>
<linearGradient id="paint80_linear_120_1523" x1="121.172" y1="436.413" x2="121.172" y2="879.82" gradientUnits="userSpaceOnUse">
<stop stop-color="#D39659"/>
<stop offset="1" stop-color="#E7BA8E" stop-opacity="0"/>
</linearGradient>
<linearGradient id="paint81_linear_120_1523" x1="110.528" y1="417.048" x2="110.528" y2="796.225" gradientUnits="userSpaceOnUse">
<stop stop-color="#D39659"/>
<stop offset="1" stop-color="#E7BA8E" stop-opacity="0"/>
</linearGradient>
<linearGradient id="paint82_linear_120_1523" x1="99.8875" y1="397.69" x2="99.8875" y2="719.799" gradientUnits="userSpaceOnUse">
<stop stop-color="#D39659"/>
<stop offset="1" stop-color="#E7BA8E" stop-opacity="0"/>
</linearGradient>
<linearGradient id="paint83_linear_120_1523" x1="89.247" y1="378.337" x2="89.247" y2="649.669" gradientUnits="userSpaceOnUse">
<stop stop-color="#D39659"/>
<stop offset="1" stop-color="#E7BA8E" stop-opacity="0"/>
</linearGradient>
<linearGradient id="paint84_linear_120_1523" x1="78.6031" y1="358.978" x2="78.6031" y2="585.086" gradientUnits="userSpaceOnUse">
<stop stop-color="#D39659"/>
<stop offset="1" stop-color="#E7BA8E" stop-opacity="0"/>
</linearGradient>
<linearGradient id="paint85_linear_120_1523" x1="67.9627" y1="339.626" x2="67.9627" y2="525.413" gradientUnits="userSpaceOnUse">
<stop stop-color="#D39659"/>
<stop offset="1" stop-color="#E7BA8E" stop-opacity="0"/>
</linearGradient>
<linearGradient id="paint86_linear_120_1523" x1="57.3223" y1="320.267" x2="57.3223" y2="470.116" gradientUnits="userSpaceOnUse">
<stop stop-color="#D39659"/>
<stop offset="1" stop-color="#E7BA8E" stop-opacity="0"/>
</linearGradient>
<linearGradient id="paint87_linear_120_1523" x1="46.6818" y1="300.915" x2="46.6818" y2="418.726" gradientUnits="userSpaceOnUse">
<stop stop-color="#D39659"/>
<stop offset="1" stop-color="#E7BA8E" stop-opacity="0"/>
</linearGradient>
<linearGradient id="paint88_linear_120_1523" x1="36.0413" y1="281.562" x2="36.0413" y2="370.846" gradientUnits="userSpaceOnUse">
<stop stop-color="#D39659"/>
<stop offset="1" stop-color="#E7BA8E" stop-opacity="0"/>
</linearGradient>
<linearGradient id="paint89_linear_120_1523" x1="25.4043" y1="262.21" x2="25.4043" y2="326.124" gradientUnits="userSpaceOnUse">
<stop stop-color="#D39659"/>
<stop offset="1" stop-color="#E7BA8E" stop-opacity="0"/>
</linearGradient>
<linearGradient id="paint90_linear_120_1523" x1="14.7638" y1="242.863" x2="14.7638" y2="284.267" gradientUnits="userSpaceOnUse">
<stop stop-color="#D39659"/>
<stop offset="1" stop-color="#E7BA8E" stop-opacity="0"/>
</linearGradient>
<linearGradient id="paint91_linear_120_1523" x1="4.12335" y1="223.511" x2="4.12335" y2="244.999" gradientUnits="userSpaceOnUse">
<stop stop-color="#D39659"/>
<stop offset="1" stop-color="#E7BA8E" stop-opacity="0"/>
</linearGradient>
<linearGradient id="paint92_linear_120_1523" x1="-6.51181" y1="205.771" x2="-6.50796" y2="206.483" gradientUnits="userSpaceOnUse">
<stop stop-color="#D39659"/>
<stop offset="1" stop-color="#E7BA8E" stop-opacity="0"/>
</linearGradient>
<linearGradient id="paint93_linear_120_1523" x1="485.493" y1="506.544" x2="485.885" y2="506.113" gradientUnits="userSpaceOnUse">
<stop stop-color="#C6813F"/>
<stop offset="1" stop-color="#F6F3E0"/>
</linearGradient>
<linearGradient id="paint94_linear_120_1523" x1="511.788" y1="482.617" x2="512.179" y2="482.186" gradientUnits="userSpaceOnUse">
<stop stop-color="#C6813F"/>
<stop offset="1" stop-color="#F6F3E0"/>
</linearGradient>
<linearGradient id="paint95_linear_120_1523" x1="286.64" y1="455.03" x2="675.725" y2="259.87" gradientUnits="userSpaceOnUse">
<stop stop-color="#C6813F"/>
<stop offset="1" stop-color="#F6F3E0"/>
</linearGradient>
<linearGradient id="paint96_linear_120_1523" x1="311.361" y1="420.164" x2="684.032" y2="233.242" gradientUnits="userSpaceOnUse">
<stop stop-color="#C6813F"/>
<stop offset="1" stop-color="#F6F3E0"/>
</linearGradient>
<linearGradient id="paint97_linear_120_1523" x1="336.089" y1="385.298" x2="692.343" y2="206.618" gradientUnits="userSpaceOnUse">
<stop stop-color="#C6813F"/>
<stop offset="1" stop-color="#F6F3E0"/>
</linearGradient>
<linearGradient id="paint98_linear_120_1523" x1="360.816" y1="350.431" x2="700.653" y2="179.993" gradientUnits="userSpaceOnUse">
<stop stop-color="#C6813F"/>
<stop offset="1" stop-color="#F6F3E0"/>
</linearGradient>
<linearGradient id="paint99_linear_120_1523" x1="385.543" y1="315.568" x2="708.966" y2="153.373" gradientUnits="userSpaceOnUse">
<stop stop-color="#C6813F"/>
<stop offset="1" stop-color="#F6F3E0"/>
</linearGradient>
<linearGradient id="paint100_linear_120_1523" x1="410.271" y1="280.702" x2="717.276" y2="126.748" gradientUnits="userSpaceOnUse">
<stop stop-color="#C6813F"/>
<stop offset="1" stop-color="#F6F3E0"/>
</linearGradient>
<linearGradient id="paint101_linear_120_1523" x1="434.998" y1="245.835" x2="725.587" y2="100.124" gradientUnits="userSpaceOnUse">
<stop stop-color="#C6813F"/>
<stop offset="1" stop-color="#F6F3E0"/>
</linearGradient>
<linearGradient id="paint102_linear_120_1523" x1="459.726" y1="210.969" x2="733.898" y2="73.4996" gradientUnits="userSpaceOnUse">
<stop stop-color="#C6813F"/>
<stop offset="1" stop-color="#F6F3E0"/>
</linearGradient>
<linearGradient id="paint103_linear_120_1523" x1="484.454" y1="176.103" x2="742.209" y2="46.8751" gradientUnits="userSpaceOnUse">
<stop stop-color="#C6813F"/>
<stop offset="1" stop-color="#F6F3E0"/>
</linearGradient>
<linearGradient id="paint104_linear_120_1523" x1="509.181" y1="141.236" x2="750.519" y2="20.2506" gradientUnits="userSpaceOnUse">
<stop stop-color="#C6813F"/>
<stop offset="1" stop-color="#F6F3E0"/>
</linearGradient>
<linearGradient id="paint105_linear_120_1523" x1="533.909" y1="106.376" x2="758.83" y2="-6.36757" gradientUnits="userSpaceOnUse">
<stop stop-color="#C6813F"/>
<stop offset="1" stop-color="#F6F3E0"/>
</linearGradient>
<linearGradient id="paint106_linear_120_1523" x1="459.204" y1="530.467" x2="459.596" y2="530.037" gradientUnits="userSpaceOnUse">
<stop stop-color="#C6813F"/>
<stop offset="1" stop-color="#F6F3E0"/>
</linearGradient>
<linearGradient id="paint107_linear_120_1523" x1="432.909" y1="554.395" x2="433.301" y2="553.964" gradientUnits="userSpaceOnUse">
<stop stop-color="#C6813F"/>
<stop offset="1" stop-color="#F6F3E0"/>
</linearGradient>
<linearGradient id="paint108_linear_120_1523" x1="406.616" y1="578.323" x2="407.008" y2="577.892" gradientUnits="userSpaceOnUse">
<stop stop-color="#C6813F"/>
<stop offset="1" stop-color="#F6F3E0"/>
</linearGradient>
<linearGradient id="paint109_linear_120_1523" x1="530.263" y1="491.115" x2="757.605" y2="377.156" gradientUnits="userSpaceOnUse">
<stop stop-color="#C6813F"/>
<stop offset="1" stop-color="#F6F3E0"/>
</linearGradient>
<linearGradient id="paint110_linear_120_1523" x1="502.093" y1="449.06" x2="748.137" y2="325.712" gradientUnits="userSpaceOnUse">
<stop stop-color="#C6813F"/>
<stop offset="1" stop-color="#F6F3E0"/>
</linearGradient>
<linearGradient id="paint111_linear_120_1523" x1="473.853" y1="406.904" x2="738.644" y2="274.141" gradientUnits="userSpaceOnUse">
<stop stop-color="#C6813F"/>
<stop offset="1" stop-color="#F6F3E0"/>
</linearGradient>
<linearGradient id="paint112_linear_120_1523" x1="445.543" y1="364.635" x2="729.132" y2="222.438" gradientUnits="userSpaceOnUse">
<stop stop-color="#C6813F"/>
<stop offset="1" stop-color="#F6F3E0"/>
</linearGradient>
<linearGradient id="paint113_linear_120_1523" x1="417.379" y1="322.583" x2="719.666" y2="170.999" gradientUnits="userSpaceOnUse">
<stop stop-color="#C6813F"/>
<stop offset="1" stop-color="#F6F3E0"/>
</linearGradient>
<linearGradient id="paint114_linear_120_1523" x1="389.139" y1="280.423" x2="710.174" y2="119.426" gradientUnits="userSpaceOnUse">
<stop stop-color="#C6813F"/>
<stop offset="1" stop-color="#F6F3E0"/>
</linearGradient>
<linearGradient id="paint115_linear_120_1523" x1="360.535" y1="237.725" x2="700.561" y2="67.194" gradientUnits="userSpaceOnUse">
<stop stop-color="#C6813F"/>
<stop offset="1" stop-color="#F6F3E0"/>
</linearGradient>
<linearGradient id="paint116_linear_120_1523" x1="332.365" y1="195.673" x2="691.091" y2="15.7518" gradientUnits="userSpaceOnUse">
<stop stop-color="#C6813F"/>
<stop offset="1" stop-color="#F6F3E0"/>
</linearGradient>
<linearGradient id="paint117_linear_120_1523" x1="304.24" y1="153.678" x2="681.642" y2="-35.6148" gradientUnits="userSpaceOnUse">
<stop stop-color="#C6813F"/>
<stop offset="1" stop-color="#F6F3E0"/>
</linearGradient>
<linearGradient id="paint118_linear_120_1523" x1="275.892" y1="111.355" x2="672.115" y2="-87.3861" gradientUnits="userSpaceOnUse">
<stop stop-color="#C6813F"/>
<stop offset="1" stop-color="#F6F3E0"/>
</linearGradient>
<linearGradient id="paint119_linear_120_1523" x1="244.468" y1="96.3772" x2="625.531" y2="-95.1033" gradientUnits="userSpaceOnUse">
<stop stop-color="#C6813F"/>
<stop offset="1" stop-color="#F6F3E0"/>
</linearGradient>
<linearGradient id="paint120_linear_120_1523" x1="212.651" y1="83.8592" x2="574.928" y2="-98.1896" gradientUnits="userSpaceOnUse">
<stop stop-color="#C6813F"/>
<stop offset="1" stop-color="#F6F3E0"/>
</linearGradient>
<linearGradient id="paint121_linear_120_1523" x1="180.958" y1="71.446" x2="524.608" y2="-101.253" gradientUnits="userSpaceOnUse">
<stop stop-color="#C6813F"/>
<stop offset="1" stop-color="#F6F3E0"/>
</linearGradient>
<linearGradient id="paint122_linear_120_1523" x1="149.059" y1="58.9195" x2="473.908" y2="-104.342" gradientUnits="userSpaceOnUse">
<stop stop-color="#C6813F"/>
<stop offset="1" stop-color="#F6F3E0"/>
</linearGradient>
<clipPath id="clip0_120_1523">
<rect width="647" height="824" fill="white" transform="translate(-40 -1)"/>
</clipPath>
</defs>
</svg>
