<svg width="151" height="74" viewBox="0 0 151 74" fill="none" xmlns="http://www.w3.org/2000/svg">
<mask id="path-1-outside-1_864_1350" maskUnits="userSpaceOnUse" x="77.6602" y="28.76" width="73" height="36" fill="black">
<rect fill="white" x="77.6602" y="28.76" width="73" height="36"/>
<path d="M78.6602 37C78.6602 35.7733 78.8268 34.7067 79.1602 33.8C79.4935 32.8933 79.9402 32.1467 80.5002 31.56C81.0735 30.96 81.7202 30.5133 82.4402 30.22C83.1602 29.9267 83.9068 29.78 84.6802 29.78C85.4268 29.78 86.0402 29.86 86.5202 30.02C87.0135 30.18 87.3668 30.3667 87.5802 30.58V32.3H87.2602C87.0335 32.0333 86.7135 31.8267 86.3002 31.68C85.8868 31.52 85.3735 31.44 84.7602 31.44C83.9335 31.44 83.1935 31.6533 82.5402 32.08C81.9002 32.5067 81.3935 33.1333 81.0202 33.96C80.6602 34.7867 80.4802 35.8 80.4802 37C80.4802 38.2 80.6602 39.2133 81.0202 40.04C81.3935 40.8667 81.9002 41.4933 82.5402 41.92C83.1802 42.3467 83.9135 42.56 84.7402 42.56C85.3535 42.56 85.8668 42.4867 86.2802 42.34C86.7068 42.18 87.0335 41.9667 87.2602 41.7H87.5802V43.42C87.3668 43.62 87.0135 43.8067 86.5202 43.98C86.0402 44.14 85.4135 44.22 84.6402 44.22C83.8535 44.22 83.1002 44.0733 82.3802 43.78C81.6602 43.4867 81.0202 43.0467 80.4602 42.46C79.9002 41.86 79.4602 41.1067 79.1402 40.2C78.8202 39.2933 78.6602 38.2267 78.6602 37Z"/>
<path d="M91.5341 30H93.2541V44H91.4941L91.5341 30ZM96.2541 30C97.0407 30 97.7407 30.16 98.3541 30.48C98.9674 30.7867 99.4474 31.2533 99.7941 31.88C100.154 32.5067 100.334 33.2867 100.334 34.22C100.334 35.1267 100.147 35.8933 99.7741 36.52C99.4141 37.1467 98.9341 37.6267 98.3341 37.96C97.7341 38.28 97.0807 38.44 96.3741 38.44H92.1541V30H96.2541ZM93.1341 36.9H96.1141C96.5674 36.9 96.9741 36.8 97.3341 36.6C97.6941 36.4 97.9807 36.1067 98.1941 35.72C98.4207 35.32 98.5341 34.8467 98.5341 34.3C98.5341 33.7 98.4207 33.2 98.1941 32.8C97.9807 32.4 97.6941 32.1 97.3341 31.9C96.9741 31.7 96.5674 31.6 96.1141 31.6H93.1341V36.9ZM95.5341 37.46L97.1941 37.24L100.334 43.68V44H98.5341L95.5341 37.46Z"/>
<path d="M103.063 30H104.863L107.223 37.34H108.903L111.263 30H113.063V30.36L110.183 38.98H108.943V44H107.183V39H105.943L103.063 30.36V30Z"/>
<path d="M116.353 44V30H120.813C121.667 30 122.42 30.16 123.073 30.48C123.727 30.7867 124.247 31.2733 124.633 31.94C125.02 32.6067 125.213 33.46 125.213 34.5C125.213 35.54 125.013 36.4067 124.613 37.1C124.227 37.7933 123.7 38.32 123.033 38.68C122.38 39.0267 121.64 39.2 120.813 39.2H118.113V44H116.353ZM118.113 37.64H120.653C121.173 37.64 121.64 37.5333 122.053 37.32C122.467 37.0933 122.793 36.7533 123.033 36.3C123.287 35.8467 123.413 35.2867 123.413 34.62C123.413 33.9667 123.287 33.4133 123.033 32.96C122.793 32.5067 122.467 32.1667 122.053 31.94C121.64 31.7133 121.173 31.6 120.653 31.6H118.113V37.64Z"/>
<path d="M135.55 30V31.62H132.47V44H130.71V31.62H127.59V30H135.55Z"/>
<path d="M138.23 37C138.23 35.2933 138.504 33.9133 139.05 32.86C139.597 31.7933 140.31 31.0133 141.19 30.52C142.084 30.0133 143.05 29.76 144.09 29.76C145.13 29.76 146.09 30.0133 146.97 30.52C147.864 31.0133 148.584 31.7933 149.13 32.86C149.677 33.9133 149.95 35.2933 149.95 37C149.95 38.6933 149.677 40.0733 149.13 41.14C148.584 42.2067 147.864 42.9933 146.97 43.5C146.09 43.9933 145.13 44.24 144.09 44.24C143.05 44.24 142.084 43.9933 141.19 43.5C140.31 42.9933 139.597 42.2067 139.05 41.14C138.504 40.0733 138.23 38.6933 138.23 37ZM140.05 37C140.05 38.24 140.224 39.2733 140.57 40.1C140.93 40.9267 141.417 41.5467 142.03 41.96C142.644 42.36 143.33 42.56 144.09 42.56C144.837 42.56 145.517 42.36 146.13 41.96C146.744 41.5467 147.23 40.9267 147.59 40.1C147.964 39.2733 148.15 38.24 148.15 37C148.15 35.7467 147.964 34.7133 147.59 33.9C147.217 33.0733 146.724 32.46 146.11 32.06C145.497 31.6467 144.824 31.44 144.09 31.44C143.33 31.44 142.644 31.6467 142.03 32.06C141.417 32.4733 140.93 33.0933 140.57 33.92C140.224 34.7333 140.05 35.76 140.05 37Z"/>
<path d="M87.1002 50H88.8802V64H87.1002V57.8H81.0002V64H79.2402V50H81.0002V56.2H87.1002V50Z"/>
<path d="M102.449 59.4C102.449 60.3333 102.309 61.1133 102.029 61.74C101.749 62.3533 101.376 62.8467 100.909 63.22C100.456 63.58 99.9557 63.84 99.4091 64C98.8757 64.1467 98.3424 64.22 97.8091 64.22C97.2757 64.22 96.7291 64.1467 96.1691 64C95.6224 63.84 95.1157 63.58 94.6491 63.22C94.1957 62.8467 93.8291 62.3533 93.5491 61.74C93.2691 61.1133 93.1291 60.3333 93.1291 59.4V50H94.9091V59.26C94.9091 59.9667 95.0291 60.56 95.2691 61.04C95.5224 61.52 95.8691 61.8867 96.3091 62.14C96.7491 62.3933 97.2491 62.52 97.8091 62.52C98.3691 62.52 98.8624 62.3933 99.2891 62.14C99.7157 61.8867 100.049 61.52 100.289 61.04C100.542 60.56 100.669 59.9667 100.669 59.26V50H102.449V59.4Z"/>
<path d="M106.697 64V50H112.357C113.344 50 114.144 50.3 114.757 50.9C115.371 51.4867 115.677 52.3133 115.677 53.38C115.677 54.0467 115.571 54.6 115.357 55.04C115.144 55.48 114.884 55.8133 114.577 56.04C114.284 56.2667 113.997 56.4267 113.717 56.52V56.62C114.091 56.7133 114.457 56.8933 114.817 57.16C115.177 57.4267 115.477 57.8 115.717 58.28C115.971 58.7467 116.097 59.3467 116.097 60.08C116.097 60.9867 115.924 61.7267 115.577 62.3C115.244 62.8733 114.784 63.3 114.197 63.58C113.624 63.86 112.957 64 112.197 64H106.697ZM108.457 62.4H111.897C112.657 62.4 113.237 62.1933 113.637 61.78C114.051 61.3667 114.257 60.7533 114.257 59.94C114.257 59.18 114.024 58.5933 113.557 58.18C113.091 57.7667 112.524 57.56 111.857 57.56H108.457V62.4ZM108.457 56.12H111.897C112.524 56.12 113.017 55.9267 113.377 55.54C113.737 55.14 113.917 54.58 113.917 53.86C113.917 53.1133 113.737 52.54 113.377 52.14C113.017 51.74 112.524 51.54 111.897 51.54H108.457V56.12Z"/>
</mask>
<path d="M78.6602 37C78.6602 35.7733 78.8268 34.7067 79.1602 33.8C79.4935 32.8933 79.9402 32.1467 80.5002 31.56C81.0735 30.96 81.7202 30.5133 82.4402 30.22C83.1602 29.9267 83.9068 29.78 84.6802 29.78C85.4268 29.78 86.0402 29.86 86.5202 30.02C87.0135 30.18 87.3668 30.3667 87.5802 30.58V32.3H87.2602C87.0335 32.0333 86.7135 31.8267 86.3002 31.68C85.8868 31.52 85.3735 31.44 84.7602 31.44C83.9335 31.44 83.1935 31.6533 82.5402 32.08C81.9002 32.5067 81.3935 33.1333 81.0202 33.96C80.6602 34.7867 80.4802 35.8 80.4802 37C80.4802 38.2 80.6602 39.2133 81.0202 40.04C81.3935 40.8667 81.9002 41.4933 82.5402 41.92C83.1802 42.3467 83.9135 42.56 84.7402 42.56C85.3535 42.56 85.8668 42.4867 86.2802 42.34C86.7068 42.18 87.0335 41.9667 87.2602 41.7H87.5802V43.42C87.3668 43.62 87.0135 43.8067 86.5202 43.98C86.0402 44.14 85.4135 44.22 84.6402 44.22C83.8535 44.22 83.1002 44.0733 82.3802 43.78C81.6602 43.4867 81.0202 43.0467 80.4602 42.46C79.9002 41.86 79.4602 41.1067 79.1402 40.2C78.8202 39.2933 78.6602 38.2267 78.6602 37Z" fill="url(#paint0_linear_864_1350)"/>
<path d="M91.5341 30H93.2541V44H91.4941L91.5341 30ZM96.2541 30C97.0407 30 97.7407 30.16 98.3541 30.48C98.9674 30.7867 99.4474 31.2533 99.7941 31.88C100.154 32.5067 100.334 33.2867 100.334 34.22C100.334 35.1267 100.147 35.8933 99.7741 36.52C99.4141 37.1467 98.9341 37.6267 98.3341 37.96C97.7341 38.28 97.0807 38.44 96.3741 38.44H92.1541V30H96.2541ZM93.1341 36.9H96.1141C96.5674 36.9 96.9741 36.8 97.3341 36.6C97.6941 36.4 97.9807 36.1067 98.1941 35.72C98.4207 35.32 98.5341 34.8467 98.5341 34.3C98.5341 33.7 98.4207 33.2 98.1941 32.8C97.9807 32.4 97.6941 32.1 97.3341 31.9C96.9741 31.7 96.5674 31.6 96.1141 31.6H93.1341V36.9ZM95.5341 37.46L97.1941 37.24L100.334 43.68V44H98.5341L95.5341 37.46Z" fill="url(#paint1_linear_864_1350)"/>
<path d="M103.063 30H104.863L107.223 37.34H108.903L111.263 30H113.063V30.36L110.183 38.98H108.943V44H107.183V39H105.943L103.063 30.36V30Z" fill="url(#paint2_linear_864_1350)"/>
<path d="M116.353 44V30H120.813C121.667 30 122.42 30.16 123.073 30.48C123.727 30.7867 124.247 31.2733 124.633 31.94C125.02 32.6067 125.213 33.46 125.213 34.5C125.213 35.54 125.013 36.4067 124.613 37.1C124.227 37.7933 123.7 38.32 123.033 38.68C122.38 39.0267 121.64 39.2 120.813 39.2H118.113V44H116.353ZM118.113 37.64H120.653C121.173 37.64 121.64 37.5333 122.053 37.32C122.467 37.0933 122.793 36.7533 123.033 36.3C123.287 35.8467 123.413 35.2867 123.413 34.62C123.413 33.9667 123.287 33.4133 123.033 32.96C122.793 32.5067 122.467 32.1667 122.053 31.94C121.64 31.7133 121.173 31.6 120.653 31.6H118.113V37.64Z" fill="url(#paint3_linear_864_1350)"/>
<path d="M135.55 30V31.62H132.47V44H130.71V31.62H127.59V30H135.55Z" fill="url(#paint4_linear_864_1350)"/>
<path d="M138.23 37C138.23 35.2933 138.504 33.9133 139.05 32.86C139.597 31.7933 140.31 31.0133 141.19 30.52C142.084 30.0133 143.05 29.76 144.09 29.76C145.13 29.76 146.09 30.0133 146.97 30.52C147.864 31.0133 148.584 31.7933 149.13 32.86C149.677 33.9133 149.95 35.2933 149.95 37C149.95 38.6933 149.677 40.0733 149.13 41.14C148.584 42.2067 147.864 42.9933 146.97 43.5C146.09 43.9933 145.13 44.24 144.09 44.24C143.05 44.24 142.084 43.9933 141.19 43.5C140.31 42.9933 139.597 42.2067 139.05 41.14C138.504 40.0733 138.23 38.6933 138.23 37ZM140.05 37C140.05 38.24 140.224 39.2733 140.57 40.1C140.93 40.9267 141.417 41.5467 142.03 41.96C142.644 42.36 143.33 42.56 144.09 42.56C144.837 42.56 145.517 42.36 146.13 41.96C146.744 41.5467 147.23 40.9267 147.59 40.1C147.964 39.2733 148.15 38.24 148.15 37C148.15 35.7467 147.964 34.7133 147.59 33.9C147.217 33.0733 146.724 32.46 146.11 32.06C145.497 31.6467 144.824 31.44 144.09 31.44C143.33 31.44 142.644 31.6467 142.03 32.06C141.417 32.4733 140.93 33.0933 140.57 33.92C140.224 34.7333 140.05 35.76 140.05 37Z" fill="url(#paint5_linear_864_1350)"/>
<path d="M87.1002 50H88.8802V64H87.1002V57.8H81.0002V64H79.2402V50H81.0002V56.2H87.1002V50Z" fill="url(#paint6_linear_864_1350)"/>
<path d="M102.449 59.4C102.449 60.3333 102.309 61.1133 102.029 61.74C101.749 62.3533 101.376 62.8467 100.909 63.22C100.456 63.58 99.9557 63.84 99.4091 64C98.8757 64.1467 98.3424 64.22 97.8091 64.22C97.2757 64.22 96.7291 64.1467 96.1691 64C95.6224 63.84 95.1157 63.58 94.6491 63.22C94.1957 62.8467 93.8291 62.3533 93.5491 61.74C93.2691 61.1133 93.1291 60.3333 93.1291 59.4V50H94.9091V59.26C94.9091 59.9667 95.0291 60.56 95.2691 61.04C95.5224 61.52 95.8691 61.8867 96.3091 62.14C96.7491 62.3933 97.2491 62.52 97.8091 62.52C98.3691 62.52 98.8624 62.3933 99.2891 62.14C99.7157 61.8867 100.049 61.52 100.289 61.04C100.542 60.56 100.669 59.9667 100.669 59.26V50H102.449V59.4Z" fill="url(#paint7_linear_864_1350)"/>
<path d="M106.697 64V50H112.357C113.344 50 114.144 50.3 114.757 50.9C115.371 51.4867 115.677 52.3133 115.677 53.38C115.677 54.0467 115.571 54.6 115.357 55.04C115.144 55.48 114.884 55.8133 114.577 56.04C114.284 56.2667 113.997 56.4267 113.717 56.52V56.62C114.091 56.7133 114.457 56.8933 114.817 57.16C115.177 57.4267 115.477 57.8 115.717 58.28C115.971 58.7467 116.097 59.3467 116.097 60.08C116.097 60.9867 115.924 61.7267 115.577 62.3C115.244 62.8733 114.784 63.3 114.197 63.58C113.624 63.86 112.957 64 112.197 64H106.697ZM108.457 62.4H111.897C112.657 62.4 113.237 62.1933 113.637 61.78C114.051 61.3667 114.257 60.7533 114.257 59.94C114.257 59.18 114.024 58.5933 113.557 58.18C113.091 57.7667 112.524 57.56 111.857 57.56H108.457V62.4ZM108.457 56.12H111.897C112.524 56.12 113.017 55.9267 113.377 55.54C113.737 55.14 113.917 54.58 113.917 53.86C113.917 53.1133 113.737 52.54 113.377 52.14C113.017 51.74 112.524 51.54 111.897 51.54H108.457V56.12Z" fill="url(#paint8_linear_864_1350)"/>
<path d="M78.6602 37C78.6602 35.7733 78.8268 34.7067 79.1602 33.8C79.4935 32.8933 79.9402 32.1467 80.5002 31.56C81.0735 30.96 81.7202 30.5133 82.4402 30.22C83.1602 29.9267 83.9068 29.78 84.6802 29.78C85.4268 29.78 86.0402 29.86 86.5202 30.02C87.0135 30.18 87.3668 30.3667 87.5802 30.58V32.3H87.2602C87.0335 32.0333 86.7135 31.8267 86.3002 31.68C85.8868 31.52 85.3735 31.44 84.7602 31.44C83.9335 31.44 83.1935 31.6533 82.5402 32.08C81.9002 32.5067 81.3935 33.1333 81.0202 33.96C80.6602 34.7867 80.4802 35.8 80.4802 37C80.4802 38.2 80.6602 39.2133 81.0202 40.04C81.3935 40.8667 81.9002 41.4933 82.5402 41.92C83.1802 42.3467 83.9135 42.56 84.7402 42.56C85.3535 42.56 85.8668 42.4867 86.2802 42.34C86.7068 42.18 87.0335 41.9667 87.2602 41.7H87.5802V43.42C87.3668 43.62 87.0135 43.8067 86.5202 43.98C86.0402 44.14 85.4135 44.22 84.6402 44.22C83.8535 44.22 83.1002 44.0733 82.3802 43.78C81.6602 43.4867 81.0202 43.0467 80.4602 42.46C79.9002 41.86 79.4602 41.1067 79.1402 40.2C78.8202 39.2933 78.6602 38.2267 78.6602 37Z" stroke="url(#paint9_linear_864_1350)" mask="url(#path-1-outside-1_864_1350)"/>
<path d="M91.5341 30H93.2541V44H91.4941L91.5341 30ZM96.2541 30C97.0407 30 97.7407 30.16 98.3541 30.48C98.9674 30.7867 99.4474 31.2533 99.7941 31.88C100.154 32.5067 100.334 33.2867 100.334 34.22C100.334 35.1267 100.147 35.8933 99.7741 36.52C99.4141 37.1467 98.9341 37.6267 98.3341 37.96C97.7341 38.28 97.0807 38.44 96.3741 38.44H92.1541V30H96.2541ZM93.1341 36.9H96.1141C96.5674 36.9 96.9741 36.8 97.3341 36.6C97.6941 36.4 97.9807 36.1067 98.1941 35.72C98.4207 35.32 98.5341 34.8467 98.5341 34.3C98.5341 33.7 98.4207 33.2 98.1941 32.8C97.9807 32.4 97.6941 32.1 97.3341 31.9C96.9741 31.7 96.5674 31.6 96.1141 31.6H93.1341V36.9ZM95.5341 37.46L97.1941 37.24L100.334 43.68V44H98.5341L95.5341 37.46Z" stroke="url(#paint10_linear_864_1350)" mask="url(#path-1-outside-1_864_1350)"/>
<path d="M103.063 30H104.863L107.223 37.34H108.903L111.263 30H113.063V30.36L110.183 38.98H108.943V44H107.183V39H105.943L103.063 30.36V30Z" stroke="url(#paint11_linear_864_1350)" mask="url(#path-1-outside-1_864_1350)"/>
<path d="M116.353 44V30H120.813C121.667 30 122.42 30.16 123.073 30.48C123.727 30.7867 124.247 31.2733 124.633 31.94C125.02 32.6067 125.213 33.46 125.213 34.5C125.213 35.54 125.013 36.4067 124.613 37.1C124.227 37.7933 123.7 38.32 123.033 38.68C122.38 39.0267 121.64 39.2 120.813 39.2H118.113V44H116.353ZM118.113 37.64H120.653C121.173 37.64 121.64 37.5333 122.053 37.32C122.467 37.0933 122.793 36.7533 123.033 36.3C123.287 35.8467 123.413 35.2867 123.413 34.62C123.413 33.9667 123.287 33.4133 123.033 32.96C122.793 32.5067 122.467 32.1667 122.053 31.94C121.64 31.7133 121.173 31.6 120.653 31.6H118.113V37.64Z" stroke="url(#paint12_linear_864_1350)" mask="url(#path-1-outside-1_864_1350)"/>
<path d="M135.55 30V31.62H132.47V44H130.71V31.62H127.59V30H135.55Z" stroke="url(#paint13_linear_864_1350)" mask="url(#path-1-outside-1_864_1350)"/>
<path d="M138.23 37C138.23 35.2933 138.504 33.9133 139.05 32.86C139.597 31.7933 140.31 31.0133 141.19 30.52C142.084 30.0133 143.05 29.76 144.09 29.76C145.13 29.76 146.09 30.0133 146.97 30.52C147.864 31.0133 148.584 31.7933 149.13 32.86C149.677 33.9133 149.95 35.2933 149.95 37C149.95 38.6933 149.677 40.0733 149.13 41.14C148.584 42.2067 147.864 42.9933 146.97 43.5C146.09 43.9933 145.13 44.24 144.09 44.24C143.05 44.24 142.084 43.9933 141.19 43.5C140.31 42.9933 139.597 42.2067 139.05 41.14C138.504 40.0733 138.23 38.6933 138.23 37ZM140.05 37C140.05 38.24 140.224 39.2733 140.57 40.1C140.93 40.9267 141.417 41.5467 142.03 41.96C142.644 42.36 143.33 42.56 144.09 42.56C144.837 42.56 145.517 42.36 146.13 41.96C146.744 41.5467 147.23 40.9267 147.59 40.1C147.964 39.2733 148.15 38.24 148.15 37C148.15 35.7467 147.964 34.7133 147.59 33.9C147.217 33.0733 146.724 32.46 146.11 32.06C145.497 31.6467 144.824 31.44 144.09 31.44C143.33 31.44 142.644 31.6467 142.03 32.06C141.417 32.4733 140.93 33.0933 140.57 33.92C140.224 34.7333 140.05 35.76 140.05 37Z" stroke="url(#paint14_linear_864_1350)" mask="url(#path-1-outside-1_864_1350)"/>
<path d="M87.1002 50H88.8802V64H87.1002V57.8H81.0002V64H79.2402V50H81.0002V56.2H87.1002V50Z" stroke="url(#paint15_linear_864_1350)" mask="url(#path-1-outside-1_864_1350)"/>
<path d="M102.449 59.4C102.449 60.3333 102.309 61.1133 102.029 61.74C101.749 62.3533 101.376 62.8467 100.909 63.22C100.456 63.58 99.9557 63.84 99.4091 64C98.8757 64.1467 98.3424 64.22 97.8091 64.22C97.2757 64.22 96.7291 64.1467 96.1691 64C95.6224 63.84 95.1157 63.58 94.6491 63.22C94.1957 62.8467 93.8291 62.3533 93.5491 61.74C93.2691 61.1133 93.1291 60.3333 93.1291 59.4V50H94.9091V59.26C94.9091 59.9667 95.0291 60.56 95.2691 61.04C95.5224 61.52 95.8691 61.8867 96.3091 62.14C96.7491 62.3933 97.2491 62.52 97.8091 62.52C98.3691 62.52 98.8624 62.3933 99.2891 62.14C99.7157 61.8867 100.049 61.52 100.289 61.04C100.542 60.56 100.669 59.9667 100.669 59.26V50H102.449V59.4Z" stroke="url(#paint16_linear_864_1350)" mask="url(#path-1-outside-1_864_1350)"/>
<path d="M106.697 64V50H112.357C113.344 50 114.144 50.3 114.757 50.9C115.371 51.4867 115.677 52.3133 115.677 53.38C115.677 54.0467 115.571 54.6 115.357 55.04C115.144 55.48 114.884 55.8133 114.577 56.04C114.284 56.2667 113.997 56.4267 113.717 56.52V56.62C114.091 56.7133 114.457 56.8933 114.817 57.16C115.177 57.4267 115.477 57.8 115.717 58.28C115.971 58.7467 116.097 59.3467 116.097 60.08C116.097 60.9867 115.924 61.7267 115.577 62.3C115.244 62.8733 114.784 63.3 114.197 63.58C113.624 63.86 112.957 64 112.197 64H106.697ZM108.457 62.4H111.897C112.657 62.4 113.237 62.1933 113.637 61.78C114.051 61.3667 114.257 60.7533 114.257 59.94C114.257 59.18 114.024 58.5933 113.557 58.18C113.091 57.7667 112.524 57.56 111.857 57.56H108.457V62.4ZM108.457 56.12H111.897C112.524 56.12 113.017 55.9267 113.377 55.54C113.737 55.14 113.917 54.58 113.917 53.86C113.917 53.1133 113.737 52.54 113.377 52.14C113.017 51.74 112.524 51.54 111.897 51.54H108.457V56.12Z" stroke="url(#paint17_linear_864_1350)" mask="url(#path-1-outside-1_864_1350)"/>
<path d="M78.6602 17.3C78.6602 15.936 78.8362 14.7553 79.1882 13.758C79.5548 12.7607 80.0535 11.9393 80.6842 11.294C81.3148 10.634 82.0262 10.15 82.8182 9.842C83.6102 9.51933 84.4315 9.358 85.2822 9.358C86.1035 9.358 86.7782 9.446 87.3062 9.622C87.8488 9.78333 88.2375 9.974 88.4722 10.194V12.79H88.0762C87.8562 12.5553 87.5408 12.3427 87.1302 12.152C86.7195 11.9613 86.2135 11.866 85.6122 11.866C84.8055 11.866 84.0868 12.0787 83.4562 12.504C82.8402 12.9147 82.3488 13.5233 81.9822 14.33C81.6302 15.1367 81.4542 16.1267 81.4542 17.3C81.4542 18.4733 81.6302 19.4633 81.9822 20.27C82.3342 21.0767 82.8255 21.6927 83.4562 22.118C84.0868 22.5287 84.8055 22.734 85.6122 22.734C86.2135 22.734 86.7195 22.6387 87.1302 22.448C87.5408 22.2573 87.8562 22.0447 88.0762 21.81H88.4722V24.406C88.2375 24.6113 87.8488 24.802 87.3062 24.978C86.7782 25.154 86.0962 25.242 85.2602 25.242C84.3948 25.242 83.5662 25.088 82.7742 24.78C81.9822 24.4573 81.2782 23.9733 80.6622 23.328C80.0462 22.668 79.5548 21.8393 79.1882 20.842C78.8362 19.8447 78.6602 18.664 78.6602 17.3Z" fill="url(#paint18_linear_864_1350)"/>
<path d="M89.5098 17.3C89.5098 15.4373 89.8104 13.9193 90.4118 12.746C91.0131 11.5727 91.7978 10.7147 92.7658 10.172C93.7484 9.61467 94.8118 9.336 95.9558 9.336C97.0998 9.336 98.1558 9.61467 99.1238 10.172C100.106 10.7147 100.898 11.5727 101.5 12.746C102.101 13.9193 102.402 15.4373 102.402 17.3C102.402 19.1627 102.101 20.6807 101.5 21.854C100.898 23.0273 100.106 23.8927 99.1238 24.45C98.1558 24.9927 97.0998 25.264 95.9558 25.264C94.8118 25.264 93.7484 24.9927 92.7658 24.45C91.7978 23.8927 91.0131 23.0273 90.4118 21.854C89.8104 20.6807 89.5098 19.1627 89.5098 17.3ZM92.3038 17.3C92.3038 18.5027 92.4651 19.5 92.7878 20.292C93.1104 21.084 93.5431 21.6853 94.0858 22.096C94.6431 22.492 95.2591 22.69 95.9338 22.69C96.6084 22.69 97.2244 22.492 97.7818 22.096C98.3538 21.6853 98.8011 21.084 99.1238 20.292C99.4611 19.5 99.6298 18.5027 99.6298 17.3C99.6298 16.0827 99.4611 15.078 99.1238 14.286C98.7864 13.494 98.3391 12.9 97.7818 12.504C97.2244 12.108 96.6158 11.91 95.9558 11.91C95.2664 11.91 94.6431 12.1153 94.0858 12.526C93.5431 12.922 93.1104 13.516 92.7878 14.308C92.4651 15.1 92.3038 16.0973 92.3038 17.3Z" fill="url(#paint19_linear_864_1350)"/>
<path d="M104.133 9.6H106.839V25H104.133V9.6Z" fill="url(#paint20_linear_864_1350)"/>
<path d="M116.814 9.6H119.454V25H116.308L112.04 14.528H111.776L111.886 25H109.224V9.6H112.37L116.66 20.182H116.924L116.814 9.6Z" fill="url(#paint21_linear_864_1350)"/>
<mask id="path-3-inside-2_864_1350" fill="white">
<path fill-rule="evenodd" clip-rule="evenodd" d="M22.623 71.2021C18.1843 69.3266 14.193 66.6025 10.8394 63.2388C4.14449 56.5238 0 47.2446 0 36.9939C0 26.7431 4.14449 17.4639 10.8394 10.7489C14.193 7.38525 18.1904 4.66113 22.623 2.78561V9.15623C19.766 10.6444 17.1604 12.5629 14.9042 14.8258C9.25153 20.4954 5.75079 28.3357 5.75079 36.9877C5.75079 45.6458 9.25153 53.48 14.9042 59.1496C17.1604 61.4125 19.766 63.3311 22.623 64.8192V71.2021ZM34.1246 68.2074V61.0558C34.0572 61.0497 33.9897 61.0374 33.9284 61.0312C34.9339 61.1604 35.9639 61.228 37.0062 61.228C38.0484 61.228 39.0722 61.1604 40.0777 61.0312C40.0103 61.0374 39.949 61.0497 39.8815 61.0558V68.2074V74C41.8434 73.8463 43.7685 73.545 45.6323 73.0961V67.1313V59.6354L45.5894 59.6538C48.8081 58.424 51.6958 56.53 54.0868 54.1318C56.4656 51.7459 58.354 48.8619 59.574 45.652H57.0174H53.2653C52.4008 47.2754 51.3034 48.7574 50.0159 50.0548C46.6868 53.3939 42.0825 55.46 37 55.46C31.9175 55.46 27.3132 53.3939 23.9841 50.0548C20.655 46.7158 18.595 42.0977 18.595 37C18.595 31.9023 20.655 27.2842 23.9841 23.9452C27.3132 20.6061 31.9175 18.54 37 18.54C42.0825 18.54 46.6868 20.6061 50.0159 23.9452C51.3034 25.2365 52.4008 26.7185 53.2653 28.348H57.0174H59.574C58.3478 25.1381 56.4656 22.2541 54.0868 19.8682C51.6958 17.47 48.8081 15.5699 45.5894 14.3462L45.6323 14.3646V6.86871V0.90394C43.7685 0.455045 41.8434 0.153731 39.8815 0V5.7926V12.9442C39.949 12.9503 40.0164 12.9626 40.0777 12.9688C39.0722 12.8396 38.0423 12.772 37.0062 12.772C35.9639 12.772 34.94 12.8396 33.9284 12.9688C33.9959 12.9626 34.0633 12.9503 34.1246 12.9442V5.7926V0C32.1627 0.153731 30.2376 0.455045 28.3738 0.90394V6.86871V14.3646L28.4168 14.3462C25.198 15.576 22.3104 17.47 19.9193 19.8682C15.548 24.2526 12.8442 30.3096 12.8442 37C12.8442 43.6904 15.548 49.7474 19.9193 54.1318C22.3104 56.53 25.198 58.424 28.4168 59.6538L28.3738 59.6354V67.1313V73.0961C30.2376 73.545 32.1627 73.8463 34.1246 74V68.2074ZM33.9223 61.0312C33.8242 61.0189 33.7261 61.0066 33.628 60.9944C33.7261 61.0005 33.8242 61.0189 33.9223 61.0312ZM33.3153 60.9452C33.2234 60.9329 33.1253 60.9144 33.0333 60.9021C33.1253 60.9144 33.2234 60.9267 33.3153 60.9452ZM32.1259 60.7299C32.034 60.7115 31.9359 60.693 31.8439 60.6684C31.9359 60.693 32.0278 60.7115 32.1259 60.7299ZM31.8317 60.6684C31.7336 60.65 31.6416 60.6254 31.5435 60.6008L31.8317 60.6684ZM31.5435 60.6008C31.4454 60.5762 31.3535 60.5578 31.2554 60.5332C31.3473 60.5578 31.4454 60.5823 31.5435 60.6008ZM31.2554 60.5332C31.1634 60.5086 31.0653 60.484 30.9733 60.4655C31.0653 60.484 31.1573 60.5086 31.2554 60.5332ZM30.955 60.4594C30.863 60.4348 30.7772 60.4102 30.6852 60.3856C30.771 60.4102 30.863 60.4348 30.955 60.4594ZM29.8084 60.1335C29.7165 60.1027 29.6306 60.0781 29.5387 60.0474C29.6245 60.072 29.7165 60.1027 29.8084 60.1335ZM29.5326 60.0412C29.4406 60.0105 29.3486 59.9797 29.2567 59.949C29.3486 59.9797 29.4345 60.0105 29.5326 60.0412ZM45.5833 59.6477C45.4913 59.6846 45.3994 59.7153 45.3135 59.7522C45.3994 59.7215 45.4913 59.6846 45.5833 59.6477ZM44.4613 60.0474C44.3755 60.0781 44.2835 60.1027 44.1916 60.1335C44.2835 60.1027 44.3694 60.072 44.4613 60.0474ZM44.1793 60.1335C43.8973 60.2195 43.6214 60.2995 43.3332 60.3794C43.6152 60.3056 43.8973 60.2257 44.1793 60.1335ZM43.3148 60.3856C43.2229 60.4102 43.137 60.4348 43.0451 60.4594C43.137 60.4348 43.229 60.4102 43.3148 60.3856ZM43.0267 60.4655C42.9347 60.4901 42.8428 60.5147 42.7508 60.5332C42.8428 60.5086 42.9347 60.484 43.0267 60.4655ZM42.7447 60.5332C42.6466 60.5578 42.5546 60.5823 42.4565 60.6008C42.5546 60.5823 42.6527 60.5578 42.7447 60.5332ZM42.4565 60.6008C42.3584 60.6254 42.2665 60.6438 42.1684 60.6684C42.2603 60.65 42.3584 60.6254 42.4565 60.6008ZM42.1561 60.6684C42.0641 60.6869 41.9722 60.7115 41.8741 60.7299C41.9722 60.7115 42.0641 60.693 42.1561 60.6684ZM41.5614 60.7914C41.4694 60.8099 41.3713 60.8283 41.2794 60.8406C41.3775 60.8283 41.4694 60.8099 41.5614 60.7914ZM41.2732 60.8468C41.1813 60.8652 41.0832 60.8775 40.9851 60.896C41.0832 60.8775 41.1751 60.8652 41.2732 60.8468ZM40.0777 12.9565C40.1758 12.9688 40.2739 12.9811 40.372 12.9934C40.2739 12.9872 40.1758 12.9688 40.0777 12.9565ZM40.6847 13.0425C40.7767 13.0548 40.8747 13.0733 40.9667 13.0856C40.8747 13.0733 40.7767 13.061 40.6847 13.0425ZM40.9851 13.0917C41.0771 13.1102 41.1751 13.1225 41.2732 13.1409C41.1751 13.1225 41.0832 13.1102 40.9851 13.0917ZM41.5859 13.2024C41.6779 13.2209 41.7699 13.2393 41.8618 13.2578C41.7699 13.2332 41.6779 13.2147 41.5859 13.2024ZM41.8741 13.2578C41.9661 13.2762 42.0641 13.2947 42.1561 13.3193C42.0641 13.2947 41.9722 13.2762 41.8741 13.2578ZM42.1684 13.3193C42.2665 13.3377 42.3584 13.3623 42.4565 13.3869L42.1684 13.3193ZM42.4565 13.3869C42.6466 13.4299 42.8366 13.4791 43.0267 13.5283C42.8366 13.473 42.6527 13.4299 42.4565 13.3869ZM43.0451 13.5283C43.137 13.5529 43.2229 13.5775 43.3148 13.6021C43.229 13.5775 43.137 13.5529 43.0451 13.5283ZM44.1916 13.8542C44.2835 13.885 44.3694 13.9096 44.4613 13.9403C44.3694 13.9157 44.2835 13.885 44.1916 13.8542ZM44.4675 13.9465C44.7495 14.0387 45.0254 14.1371 45.3012 14.2355C45.0315 14.131 44.7495 14.0387 44.4675 13.9465ZM45.3074 14.2355C45.3993 14.2724 45.4913 14.3031 45.5833 14.34C45.4913 14.3031 45.3993 14.2662 45.3074 14.2355ZM28.4168 14.34C28.5087 14.3031 28.6007 14.2724 28.6927 14.2355C28.6007 14.2662 28.5087 14.3031 28.4168 14.34ZM28.6927 14.2355C28.8766 14.1679 29.0605 14.1002 29.2505 14.0387C29.0666 14.1002 28.8766 14.1679 28.6927 14.2355ZM29.5387 13.9403C29.6306 13.9096 29.7165 13.885 29.8084 13.8542C29.7165 13.885 29.6245 13.9157 29.5387 13.9403ZM29.8207 13.8481C30.1027 13.762 30.3786 13.6821 30.6668 13.6021C30.3848 13.6821 30.1027 13.762 29.8207 13.8481ZM30.6852 13.6021C30.7772 13.5775 30.863 13.5529 30.955 13.5283C30.863 13.5529 30.771 13.5775 30.6852 13.6021ZM30.9733 13.5222C31.0653 13.4976 31.1634 13.473 31.2554 13.4545C31.1573 13.4791 31.0653 13.4976 30.9733 13.5222ZM31.2554 13.4545C31.3535 13.43 31.4454 13.4053 31.5435 13.3869C31.4454 13.4053 31.3473 13.43 31.2554 13.4545ZM31.5435 13.3869C31.6416 13.3623 31.7336 13.3439 31.8317 13.3193L31.5435 13.3869ZM31.8439 13.3193C31.9359 13.3008 32.0278 13.2824 32.1259 13.2578C32.0278 13.2762 31.9359 13.2947 31.8439 13.3193ZM32.7268 13.1409C32.8187 13.1225 32.9168 13.1102 33.0149 13.0917C32.9168 13.1102 32.8249 13.1225 32.7268 13.1409ZM33.3276 13.0425C33.4257 13.0302 33.5177 13.0118 33.6157 12.9995C33.5238 13.0118 33.4257 13.0302 33.3276 13.0425ZM33.628 12.9995C33.7261 12.9872 33.8242 12.9749 33.9223 12.9626C33.8242 12.9688 33.7261 12.9872 33.628 12.9995ZM51.377 2.78561C55.8158 4.66113 59.807 7.38525 63.1606 10.7489C69.8555 17.4639 74 26.7431 74 36.9939C74 47.2446 69.8555 56.5238 63.1606 63.2388C59.807 66.6025 55.8096 69.3266 51.377 71.2021V64.8315C54.234 63.3434 56.8396 61.4248 59.0958 59.1619C64.7485 53.4923 68.2492 45.652 68.2492 37C68.2492 28.3419 64.7485 20.5077 59.0958 14.8381C56.8396 12.5752 54.234 10.6566 51.377 9.16852V2.78561Z"/>
</mask>
<path fill-rule="evenodd" clip-rule="evenodd" d="M22.623 71.2021C18.1843 69.3266 14.193 66.6025 10.8394 63.2388C4.14449 56.5238 0 47.2446 0 36.9939C0 26.7431 4.14449 17.4639 10.8394 10.7489C14.193 7.38525 18.1904 4.66113 22.623 2.78561V9.15623C19.766 10.6444 17.1604 12.5629 14.9042 14.8258C9.25153 20.4954 5.75079 28.3357 5.75079 36.9877C5.75079 45.6458 9.25153 53.48 14.9042 59.1496C17.1604 61.4125 19.766 63.3311 22.623 64.8192V71.2021ZM34.1246 68.2074V61.0558C34.0572 61.0497 33.9897 61.0374 33.9284 61.0312C34.9339 61.1604 35.9639 61.228 37.0062 61.228C38.0484 61.228 39.0722 61.1604 40.0777 61.0312C40.0103 61.0374 39.949 61.0497 39.8815 61.0558V68.2074V74C41.8434 73.8463 43.7685 73.545 45.6323 73.0961V67.1313V59.6354L45.5894 59.6538C48.8081 58.424 51.6958 56.53 54.0868 54.1318C56.4656 51.7459 58.354 48.8619 59.574 45.652H57.0174H53.2653C52.4008 47.2754 51.3034 48.7574 50.0159 50.0548C46.6868 53.3939 42.0825 55.46 37 55.46C31.9175 55.46 27.3132 53.3939 23.9841 50.0548C20.655 46.7158 18.595 42.0977 18.595 37C18.595 31.9023 20.655 27.2842 23.9841 23.9452C27.3132 20.6061 31.9175 18.54 37 18.54C42.0825 18.54 46.6868 20.6061 50.0159 23.9452C51.3034 25.2365 52.4008 26.7185 53.2653 28.348H57.0174H59.574C58.3478 25.1381 56.4656 22.2541 54.0868 19.8682C51.6958 17.47 48.8081 15.5699 45.5894 14.3462L45.6323 14.3646V6.86871V0.90394C43.7685 0.455045 41.8434 0.153731 39.8815 0V5.7926V12.9442C39.949 12.9503 40.0164 12.9626 40.0777 12.9688C39.0722 12.8396 38.0423 12.772 37.0062 12.772C35.9639 12.772 34.94 12.8396 33.9284 12.9688C33.9959 12.9626 34.0633 12.9503 34.1246 12.9442V5.7926V0C32.1627 0.153731 30.2376 0.455045 28.3738 0.90394V6.86871V14.3646L28.4168 14.3462C25.198 15.576 22.3104 17.47 19.9193 19.8682C15.548 24.2526 12.8442 30.3096 12.8442 37C12.8442 43.6904 15.548 49.7474 19.9193 54.1318C22.3104 56.53 25.198 58.424 28.4168 59.6538L28.3738 59.6354V67.1313V73.0961C30.2376 73.545 32.1627 73.8463 34.1246 74V68.2074ZM33.9223 61.0312C33.8242 61.0189 33.7261 61.0066 33.628 60.9944C33.7261 61.0005 33.8242 61.0189 33.9223 61.0312ZM33.3153 60.9452C33.2234 60.9329 33.1253 60.9144 33.0333 60.9021C33.1253 60.9144 33.2234 60.9267 33.3153 60.9452ZM32.1259 60.7299C32.034 60.7115 31.9359 60.693 31.8439 60.6684C31.9359 60.693 32.0278 60.7115 32.1259 60.7299ZM31.8317 60.6684C31.7336 60.65 31.6416 60.6254 31.5435 60.6008L31.8317 60.6684ZM31.5435 60.6008C31.4454 60.5762 31.3535 60.5578 31.2554 60.5332C31.3473 60.5578 31.4454 60.5823 31.5435 60.6008ZM31.2554 60.5332C31.1634 60.5086 31.0653 60.484 30.9733 60.4655C31.0653 60.484 31.1573 60.5086 31.2554 60.5332ZM30.955 60.4594C30.863 60.4348 30.7772 60.4102 30.6852 60.3856C30.771 60.4102 30.863 60.4348 30.955 60.4594ZM29.8084 60.1335C29.7165 60.1027 29.6306 60.0781 29.5387 60.0474C29.6245 60.072 29.7165 60.1027 29.8084 60.1335ZM29.5326 60.0412C29.4406 60.0105 29.3486 59.9797 29.2567 59.949C29.3486 59.9797 29.4345 60.0105 29.5326 60.0412ZM45.5833 59.6477C45.4913 59.6846 45.3994 59.7153 45.3135 59.7522C45.3994 59.7215 45.4913 59.6846 45.5833 59.6477ZM44.4613 60.0474C44.3755 60.0781 44.2835 60.1027 44.1916 60.1335C44.2835 60.1027 44.3694 60.072 44.4613 60.0474ZM44.1793 60.1335C43.8973 60.2195 43.6214 60.2995 43.3332 60.3794C43.6152 60.3056 43.8973 60.2257 44.1793 60.1335ZM43.3148 60.3856C43.2229 60.4102 43.137 60.4348 43.0451 60.4594C43.137 60.4348 43.229 60.4102 43.3148 60.3856ZM43.0267 60.4655C42.9347 60.4901 42.8428 60.5147 42.7508 60.5332C42.8428 60.5086 42.9347 60.484 43.0267 60.4655ZM42.7447 60.5332C42.6466 60.5578 42.5546 60.5823 42.4565 60.6008C42.5546 60.5823 42.6527 60.5578 42.7447 60.5332ZM42.4565 60.6008C42.3584 60.6254 42.2665 60.6438 42.1684 60.6684C42.2603 60.65 42.3584 60.6254 42.4565 60.6008ZM42.1561 60.6684C42.0641 60.6869 41.9722 60.7115 41.8741 60.7299C41.9722 60.7115 42.0641 60.693 42.1561 60.6684ZM41.5614 60.7914C41.4694 60.8099 41.3713 60.8283 41.2794 60.8406C41.3775 60.8283 41.4694 60.8099 41.5614 60.7914ZM41.2732 60.8468C41.1813 60.8652 41.0832 60.8775 40.9851 60.896C41.0832 60.8775 41.1751 60.8652 41.2732 60.8468ZM40.0777 12.9565C40.1758 12.9688 40.2739 12.9811 40.372 12.9934C40.2739 12.9872 40.1758 12.9688 40.0777 12.9565ZM40.6847 13.0425C40.7767 13.0548 40.8747 13.0733 40.9667 13.0856C40.8747 13.0733 40.7767 13.061 40.6847 13.0425ZM40.9851 13.0917C41.0771 13.1102 41.1751 13.1225 41.2732 13.1409C41.1751 13.1225 41.0832 13.1102 40.9851 13.0917ZM41.5859 13.2024C41.6779 13.2209 41.7699 13.2393 41.8618 13.2578C41.7699 13.2332 41.6779 13.2147 41.5859 13.2024ZM41.8741 13.2578C41.9661 13.2762 42.0641 13.2947 42.1561 13.3193C42.0641 13.2947 41.9722 13.2762 41.8741 13.2578ZM42.1684 13.3193C42.2665 13.3377 42.3584 13.3623 42.4565 13.3869L42.1684 13.3193ZM42.4565 13.3869C42.6466 13.4299 42.8366 13.4791 43.0267 13.5283C42.8366 13.473 42.6527 13.4299 42.4565 13.3869ZM43.0451 13.5283C43.137 13.5529 43.2229 13.5775 43.3148 13.6021C43.229 13.5775 43.137 13.5529 43.0451 13.5283ZM44.1916 13.8542C44.2835 13.885 44.3694 13.9096 44.4613 13.9403C44.3694 13.9157 44.2835 13.885 44.1916 13.8542ZM44.4675 13.9465C44.7495 14.0387 45.0254 14.1371 45.3012 14.2355C45.0315 14.131 44.7495 14.0387 44.4675 13.9465ZM45.3074 14.2355C45.3993 14.2724 45.4913 14.3031 45.5833 14.34C45.4913 14.3031 45.3993 14.2662 45.3074 14.2355ZM28.4168 14.34C28.5087 14.3031 28.6007 14.2724 28.6927 14.2355C28.6007 14.2662 28.5087 14.3031 28.4168 14.34ZM28.6927 14.2355C28.8766 14.1679 29.0605 14.1002 29.2505 14.0387C29.0666 14.1002 28.8766 14.1679 28.6927 14.2355ZM29.5387 13.9403C29.6306 13.9096 29.7165 13.885 29.8084 13.8542C29.7165 13.885 29.6245 13.9157 29.5387 13.9403ZM29.8207 13.8481C30.1027 13.762 30.3786 13.6821 30.6668 13.6021C30.3848 13.6821 30.1027 13.762 29.8207 13.8481ZM30.6852 13.6021C30.7772 13.5775 30.863 13.5529 30.955 13.5283C30.863 13.5529 30.771 13.5775 30.6852 13.6021ZM30.9733 13.5222C31.0653 13.4976 31.1634 13.473 31.2554 13.4545C31.1573 13.4791 31.0653 13.4976 30.9733 13.5222ZM31.2554 13.4545C31.3535 13.43 31.4454 13.4053 31.5435 13.3869C31.4454 13.4053 31.3473 13.43 31.2554 13.4545ZM31.5435 13.3869C31.6416 13.3623 31.7336 13.3439 31.8317 13.3193L31.5435 13.3869ZM31.8439 13.3193C31.9359 13.3008 32.0278 13.2824 32.1259 13.2578C32.0278 13.2762 31.9359 13.2947 31.8439 13.3193ZM32.7268 13.1409C32.8187 13.1225 32.9168 13.1102 33.0149 13.0917C32.9168 13.1102 32.8249 13.1225 32.7268 13.1409ZM33.3276 13.0425C33.4257 13.0302 33.5177 13.0118 33.6157 12.9995C33.5238 13.0118 33.4257 13.0302 33.3276 13.0425ZM33.628 12.9995C33.7261 12.9872 33.8242 12.9749 33.9223 12.9626C33.8242 12.9688 33.7261 12.9872 33.628 12.9995ZM51.377 2.78561C55.8158 4.66113 59.807 7.38525 63.1606 10.7489C69.8555 17.4639 74 26.7431 74 36.9939C74 47.2446 69.8555 56.5238 63.1606 63.2388C59.807 66.6025 55.8096 69.3266 51.377 71.2021V64.8315C54.234 63.3434 56.8396 61.4248 59.0958 59.1619C64.7485 53.4923 68.2492 45.652 68.2492 37C68.2492 28.3419 64.7485 20.5077 59.0958 14.8381C56.8396 12.5752 54.234 10.6566 51.377 9.16852V2.78561Z" fill="url(#paint22_linear_864_1350)"/>
<path d="M28.6927 59.7522L28.8652 59.2829L28.8582 59.2804L28.8512 59.278L28.6927 59.7522ZM33.6779 60.4921C33.6391 60.4872 33.6003 60.481 33.5515 60.4731C33.5053 60.4656 33.4491 60.4565 33.3898 60.449L33.2654 61.4413C33.3042 61.4461 33.3431 61.4524 33.3919 61.4603C33.4381 61.4677 33.4943 61.4769 33.5535 61.4843L33.6779 60.4921ZM33.1073 60.4046C33.051 60.394 32.9973 60.3853 32.9507 60.3778C32.9023 60.37 32.8609 60.3632 32.8192 60.3554L32.6343 61.3382C32.6907 61.3488 32.7444 61.3574 32.791 61.365C32.8394 61.3728 32.8807 61.3795 32.9225 61.3873L33.1073 60.4046ZM32.819 60.3565C32.7712 60.347 32.7221 60.3374 32.6749 60.3283C32.6271 60.319 32.5812 60.3101 32.537 60.3012L32.3403 61.2817C32.3881 61.2912 32.4371 61.3008 32.4843 61.3099C32.5321 61.3192 32.5781 61.3281 32.6223 61.337L32.819 60.3565ZM32.5124 60.295C32.4664 60.2858 32.4205 60.2766 32.3745 60.2674C32.3285 60.2582 32.2825 60.2489 32.2366 60.2397L32.0399 61.2202C32.0859 61.2294 32.1318 61.2386 32.1778 61.2478C32.2238 61.2571 32.2697 61.2663 32.3157 61.2755L32.5124 60.295ZM30.8031 59.9045C30.5204 59.8244 30.2431 59.7458 29.9667 59.6614L29.6747 60.6178C29.9623 60.7056 30.2492 60.7869 30.5304 60.8666L30.8031 59.9045ZM29.4091 59.4748C29.2312 59.4153 29.046 59.3494 28.8652 59.2829L28.5201 60.2215C28.7071 60.2903 28.9021 60.3597 29.092 60.4232L29.4091 59.4748ZM28.8512 59.278C28.7756 59.2527 28.6974 59.2215 28.6029 59.1836L28.2306 60.1117C28.32 60.1476 28.4258 60.1902 28.5341 60.2264L28.8512 59.278ZM45.1287 59.2829C44.9433 59.3511 44.7686 59.4153 44.5894 59.4733L44.8973 60.4247C45.0982 60.3597 45.2913 60.2886 45.4738 60.2215L45.1287 59.2829ZM44.5909 59.4748C44.5449 59.4902 44.499 59.5055 44.453 59.5209C44.407 59.5363 44.361 59.5517 44.315 59.567L44.6321 60.5154C44.6781 60.5 44.7241 60.4847 44.7701 60.4693C44.8161 60.4539 44.8621 60.4385 44.908 60.4232L44.5909 59.4748ZM41.7635 60.2397C41.7175 60.2489 41.6715 60.2581 41.6255 60.2674C41.5796 60.2766 41.5336 60.2858 41.4876 60.295L41.6843 61.2755C41.7302 61.2663 41.7762 61.2571 41.8222 61.2478C41.8682 61.2386 41.9142 61.2294 41.9602 61.2202L41.7635 60.2397ZM40.8684 60.4057C40.7963 60.4202 40.7178 60.4301 40.6184 60.4434L40.751 61.4346C40.8355 61.4233 40.9532 61.4086 41.065 61.3862L40.8684 60.4057ZM40.6102 60.449C40.5509 60.4565 40.4948 60.4656 40.4485 60.4731C40.3997 60.481 40.3609 60.4872 40.322 60.4921L40.4464 61.4843C40.5057 61.4769 40.5619 61.4677 40.6081 61.4603C40.6569 61.4524 40.6958 61.4461 40.7346 61.4413L40.6102 60.449ZM40.3098 60.4921C40.2608 60.4982 40.2117 60.5044 40.1627 60.5105C40.1136 60.5167 40.0646 60.5228 40.0155 60.529L40.1399 61.5212C40.1889 61.5151 40.238 61.5089 40.287 61.5028C40.3361 61.4966 40.3852 61.4905 40.4342 61.4843L40.3098 60.4921ZM40.322 13.4956C40.3609 13.5005 40.3997 13.5067 40.4485 13.5146C40.4948 13.5221 40.5509 13.5312 40.6102 13.5387L40.7346 12.5464C40.6958 12.5416 40.6569 12.5353 40.6081 12.5274C40.5619 12.52 40.5057 12.5108 40.4464 12.5034L40.322 13.4956ZM41.181 13.6312C41.2288 13.6407 41.2779 13.6503 41.3251 13.6594C41.3729 13.6687 41.4189 13.6776 41.4631 13.6865L41.6597 12.706C41.612 12.6965 41.5629 12.6869 41.5157 12.6778C41.4679 12.6685 41.4219 12.6596 41.3777 12.6507L41.181 13.6312ZM43.1969 14.0832C43.4797 14.1633 43.7569 14.2419 44.0333 14.3263L44.3253 13.3699C44.0376 13.2821 43.7508 13.2008 43.4696 13.1211L43.1969 14.0832ZM29.4091 14.5129C29.4551 14.4976 29.5011 14.4822 29.5471 14.4668C29.5931 14.4514 29.639 14.436 29.685 14.4207L29.3679 13.4723C29.3219 13.4877 29.2759 13.503 29.2299 13.5184C29.1839 13.5338 29.138 13.5492 29.092 13.5645L29.4091 14.5129ZM32.2366 13.7418C32.2825 13.7326 32.3285 13.7234 32.3745 13.7142C32.4205 13.705 32.4664 13.6957 32.5124 13.6865L32.3157 12.706C32.2697 12.7153 32.2238 12.7245 32.1778 12.7337C32.1318 12.7429 32.0859 12.7522 32.0399 12.7614L32.2366 13.7418ZM32.537 13.6865C32.5812 13.6776 32.6271 13.6687 32.6749 13.6594C32.7221 13.6503 32.7712 13.6407 32.819 13.6312L32.6223 12.6507C32.5781 12.6596 32.5321 12.6685 32.4843 12.6778C32.4371 12.6869 32.3881 12.6965 32.3403 12.706L32.537 13.6865ZM33.1316 13.582C33.2037 13.5675 33.2822 13.5576 33.3816 13.5443L33.2491 12.5531C33.1646 12.5644 33.0468 12.5791 32.935 12.6015L33.1316 13.582ZM22.623 71.2021L22.2338 72.1232L23.623 72.7102V71.2021H22.623ZM10.8394 63.2388L10.1313 63.9449L10.8394 63.2388ZM10.8394 10.7489L10.1313 10.0428L10.8394 10.7489ZM22.623 2.78561H23.623V1.27666L22.2334 1.86465L22.623 2.78561ZM22.623 9.15623L23.085 10.0431L23.623 9.76289V9.15623H22.623ZM22.623 64.8192H23.623V64.2125L23.085 63.9323L22.623 64.8192ZM34.1246 61.0558H35.1246V60.1429L34.2154 60.06L34.1246 61.0558ZM33.9284 61.0312L34.0282 60.0362L33.801 62.0231L33.9284 61.0312ZM40.0777 61.0312L40.2051 62.0231L39.9869 60.0354L40.0777 61.0312ZM39.8815 61.0558L39.7907 60.06L38.8815 60.1429V61.0558H39.8815ZM39.8815 74H38.8815V75.0814L39.9597 74.9969L39.8815 74ZM45.6323 73.0961L45.8665 74.0683L46.6323 73.8838V73.0961H45.6323ZM45.6323 59.6354H46.6323V58.1166L45.2371 58.7168L45.6323 59.6354ZM45.5894 59.6538L45.1943 58.7352L45.9463 60.588L45.5894 59.6538ZM59.574 45.652L60.5088 46.0073L61.0239 44.652H59.574V45.652ZM53.2653 45.652V44.652H52.6648L52.3826 45.182L53.2653 45.652ZM50.0159 50.0548L50.7241 50.7609L50.7257 50.7592L50.0159 50.0548ZM50.0159 23.9452L49.3077 24.6512L50.0159 23.9452ZM53.2653 28.348L52.3819 28.8166L52.6638 29.348H53.2653V28.348ZM59.574 28.348V29.348H61.0265L60.5082 27.9912L59.574 28.348ZM45.5894 14.3462L45.9448 13.4115L45.1943 15.2648L45.5894 14.3462ZM45.6323 14.3646L45.2371 15.2833L46.6323 15.8834V14.3646H45.6323ZM45.6323 0.90394H46.6323V0.116194L45.8665 -0.0682599L45.6323 0.90394ZM39.8815 0L39.9597 -0.996944L38.8815 -1.08142V0H39.8815ZM39.8815 12.9442H38.8815V13.8571L39.7907 13.94L39.8815 12.9442ZM40.0777 12.9688L39.9779 13.9638L40.2051 11.9769L40.0777 12.9688ZM33.9284 12.9688L33.8018 11.9768L34.0192 13.9646L33.9284 12.9688ZM34.1246 12.9442L34.2244 13.9392L35.1246 13.8489V12.9442H34.1246ZM34.1246 0H35.1246V-1.08142L34.0465 -0.996944L34.1246 0ZM28.3738 0.90394L28.1397 -0.0682599L27.3738 0.116194V0.90394H28.3738ZM28.3738 14.3646H27.3738V15.8829L28.7687 15.2834L28.3738 14.3646ZM28.4168 14.3462L28.8116 15.2649L28.0598 13.4121L28.4168 14.3462ZM19.9193 19.8682L19.2112 19.1622L19.9193 19.8682ZM19.9193 54.1318L19.2112 54.8378L19.9193 54.1318ZM28.4168 59.6538L28.0598 60.588L28.8116 58.7351L28.4168 59.6538ZM28.3738 59.6354L28.7687 58.7166L27.3738 58.1171V59.6354H28.3738ZM28.3738 73.0961H27.3738V73.8838L28.1397 74.0683L28.3738 73.0961ZM34.1246 74L34.0465 74.9969L35.1246 75.0814V74H34.1246ZM33.628 60.9944L33.6906 59.9963L33.5036 61.9866L33.628 60.9944ZM33.3153 60.9452L33.1828 61.9363L33.512 59.9647L33.3153 60.9452ZM32.1259 60.7299L31.9411 61.7127L32.3226 59.7495L32.1259 60.7299ZM31.8317 60.6684L31.6469 61.6512L32.0602 59.6949L31.8317 60.6684ZM30.6852 60.3856L30.9436 59.4195L30.4097 61.3469L30.6852 60.3856ZM29.5387 60.0474L29.8142 59.0861L29.2216 60.9958L29.5387 60.0474ZM29.5326 60.0412L29.2335 60.9954L29.8497 59.0928L29.5326 60.0412ZM45.3135 59.7522L44.9186 58.8335L45.6507 60.6936L45.3135 59.7522ZM44.4613 60.0474L44.7985 60.9888L44.2029 59.0813L44.4613 60.0474ZM44.1793 60.1335L44.4901 61.0839L43.8873 59.177L44.1793 60.1335ZM43.3332 60.3794L43.0659 59.4158L43.5863 61.3469L43.3332 60.3794ZM43.3148 60.3856L43.5903 61.3469L43.0565 59.4195L43.3148 60.3856ZM43.0267 60.4655L43.285 61.4316L42.83 59.4851L43.0267 60.4655ZM42.7508 60.5332L42.4924 59.5671L42.9475 61.5136L42.7508 60.5332ZM42.7447 60.5332L43.0031 61.4992L42.5014 59.5632L42.7447 60.5332ZM42.4565 60.6008L42.2717 59.618L42.2423 59.6235L42.2133 59.6308L42.4565 60.6008ZM42.1684 60.6684L41.9251 59.6985L42.365 61.6489L42.1684 60.6684ZM42.1561 60.6684L42.4145 61.6345L41.9594 59.688L42.1561 60.6684ZM41.2794 60.8406L41.1468 59.8494L41.4038 61.8329L41.2794 60.8406ZM41.2732 60.8468L41.4699 61.8272L41.0884 59.864L41.2732 60.8468ZM40.372 12.9934L40.3094 13.9914L40.4964 12.0011L40.372 12.9934ZM40.6847 13.0425L40.8172 12.0514L40.488 14.023L40.6847 13.0425ZM40.9851 13.0917L41.1699 12.109L40.7884 14.0722L40.9851 13.0917ZM41.5859 13.2024L41.7185 12.2113L41.3892 14.1829L41.5859 13.2024ZM41.8618 13.2578L41.6651 14.2382L42.1202 12.2917L41.8618 13.2578ZM41.8741 13.2578L42.0589 12.275L41.6774 14.2382L41.8741 13.2578ZM42.1684 13.3193L42.3532 12.3365L41.9398 14.2928L42.1684 13.3193ZM42.4565 13.3869L42.228 14.3605L42.2356 14.3622L42.4565 13.3869ZM43.0267 13.5283L42.7761 14.4964L43.3062 12.5682L43.0267 13.5283ZM43.3148 13.6021L43.0565 14.5682L43.5903 12.6408L43.3148 13.6021ZM44.4613 13.9403L44.2029 14.9064L44.7784 12.9919L44.4613 13.9403ZM45.3012 14.2355L44.9653 15.1774L45.6626 13.3031L45.3012 14.2355ZM45.3074 14.2355L45.6245 13.2871L44.935 15.1636L45.3074 14.2355ZM29.2505 14.0387L29.5676 14.9871L28.9427 13.0873L29.2505 14.0387ZM29.5387 13.9403L29.2216 12.9919L29.8142 14.9017L29.5387 13.9403ZM30.6668 13.6021L30.9395 14.5642L30.3995 12.6385L30.6668 13.6021ZM30.6852 13.6021L30.4097 12.6408L30.9436 14.5682L30.6852 13.6021ZM31.5435 13.3869L31.7283 14.3697L31.7503 14.3655L31.772 14.3604L31.5435 13.3869ZM31.8317 13.3193L32.0749 14.2892L31.6032 12.3457L31.8317 13.3193ZM31.8439 13.3193L31.5855 12.3532L32.0406 14.2997L31.8439 13.3193ZM32.1259 13.2578L32.3692 14.2277L31.9411 12.275L32.1259 13.2578ZM32.7268 13.1409L32.5301 12.1605L32.9116 14.1237L32.7268 13.1409ZM33.6157 12.9995L33.7483 13.9907L33.4913 12.0073L33.6157 12.9995ZM33.9223 12.9626L34.0467 13.9548L33.8597 11.9646L33.9223 12.9626ZM51.377 2.78561L51.7662 1.86446L50.377 1.27747V2.78561H51.377ZM51.377 71.2021H50.377V72.711L51.7667 72.1231L51.377 71.2021ZM51.377 64.8315L50.915 63.9446L50.377 64.2248V64.8315H51.377ZM59.0958 59.1619L58.3876 58.4558L59.0958 59.1619ZM59.0958 14.8381L58.3876 15.5442L59.0958 14.8381ZM51.377 9.16852H50.377V9.77518L50.915 10.0554L51.377 9.16852ZM23.0123 70.281C18.6954 68.4569 14.8119 65.8068 11.5476 62.5328L10.1313 63.9449C13.5742 67.3981 17.6732 70.1962 22.2338 72.1232L23.0123 70.281ZM11.5476 62.5328C5.03214 55.9978 1 46.9696 1 36.9939H-1C-1 47.5196 3.25683 57.0499 10.1313 63.9449L11.5476 62.5328ZM1 36.9939C1 27.0181 5.03214 17.9899 11.5476 11.4549L10.1313 10.0428C3.25683 16.9378 -1 26.4681 -1 36.9939H1ZM11.5476 11.4549C14.8116 8.1812 18.7012 5.53081 23.0127 3.70656L22.2334 1.86465C17.6796 3.79144 13.5745 6.58929 10.1313 10.0428L11.5476 11.4549ZM21.623 2.78561V9.15623H23.623V2.78561H21.623ZM22.1611 8.26933C19.2129 9.80493 16.5243 11.7846 14.1961 14.1198L15.6124 15.5319C17.7965 13.3412 20.3192 11.4838 23.085 10.0431L22.1611 8.26933ZM14.1961 14.1198C8.36386 19.9694 4.75079 28.0607 4.75079 36.9877H6.75079C6.75079 28.6107 10.1392 21.0214 15.6124 15.5319L14.1961 14.1198ZM4.75079 36.9877C4.75079 45.9209 8.36393 54.0061 14.1961 59.8556L15.6124 58.4435C10.1391 52.9539 6.75079 45.3708 6.75079 36.9877H4.75079ZM14.1961 59.8556C16.5243 62.1908 19.2129 64.1705 22.1611 65.7061L23.085 63.9323C20.3192 62.4916 17.7965 60.6342 15.6124 58.4435L14.1961 59.8556ZM21.623 64.8192V71.2021H23.623V64.8192H21.623ZM35.1246 68.2074V61.0558H33.1246V68.2074H35.1246ZM34.2154 60.06C34.2086 60.0594 34.1967 60.0579 34.1629 60.0532C34.1374 60.0496 34.0828 60.0417 34.0282 60.0362L33.8286 62.0263C33.8353 62.0269 33.8451 62.0282 33.8856 62.0339C33.9176 62.0384 33.9732 62.0462 34.0338 62.0517L34.2154 60.06ZM33.801 62.0231C34.8482 62.1576 35.9208 62.228 37.0062 62.228V60.228C36.007 60.228 35.0196 60.1632 34.0558 60.0394L33.801 62.0231ZM37.0062 62.228C38.0918 62.228 39.1582 62.1576 40.2051 62.0231L39.9503 60.0394C38.9863 60.1632 38.005 60.228 37.0062 60.228V62.228ZM39.9869 60.0354C39.9235 60.0412 39.8664 60.0495 39.8377 60.0537C39.8021 60.0588 39.7948 60.0596 39.7907 60.06L39.9724 62.0517C40.0357 62.0459 40.0928 62.0375 40.1215 62.0334C40.1572 62.0283 40.1644 62.0275 40.1685 62.0271L39.9869 60.0354ZM38.8815 61.0558V68.2074H40.8815V61.0558H38.8815ZM38.8815 68.2074V74H40.8815V68.2074H38.8815ZM39.9597 74.9969C41.9721 74.8392 43.9494 74.53 45.8665 74.0683L45.3981 72.1239C43.5876 72.5599 41.7148 72.8533 39.8034 73.0031L39.9597 74.9969ZM46.6323 73.0961V67.1313H44.6323V73.0961H46.6323ZM46.6323 67.1313V59.6354H44.6323V67.1313H46.6323ZM45.2371 58.7168L45.1943 58.7352L45.9846 60.5724L46.0275 60.554L45.2371 58.7168ZM45.9463 60.588C49.2987 59.307 52.3056 57.3346 54.795 54.8378L53.3787 53.4257C51.0859 55.7253 48.3176 57.5409 45.2325 58.7197L45.9463 60.588ZM54.795 54.8378C57.2711 52.3543 59.2377 49.3514 60.5088 46.0073L58.6392 45.2967C57.4702 48.3723 55.6602 51.1374 53.3787 53.4257L54.795 54.8378ZM59.574 44.652H57.0174V46.652H59.574V44.652ZM57.0174 44.652H53.2653V46.652H57.0174V44.652ZM52.3826 45.182C51.5645 46.7183 50.5256 48.1215 49.3061 49.3505L50.7257 50.7592C52.0812 49.3932 53.2371 47.8324 54.1479 46.122L52.3826 45.182ZM49.3077 49.3488C46.1585 52.5075 41.8059 54.46 37 54.46V56.46C42.3591 56.46 47.2152 54.2803 50.7241 50.7609L49.3077 49.3488ZM37 54.46C32.1941 54.46 27.8415 52.5075 24.6922 49.3488L23.2759 50.7609C26.7848 54.2803 31.6409 56.46 37 56.46V54.46ZM24.6922 49.3488C21.5429 46.19 19.595 41.8231 19.595 37H17.595C17.595 42.3724 19.7671 47.2416 23.2759 50.7609L24.6922 49.3488ZM19.595 37C19.595 32.1769 21.5429 27.8099 24.6922 24.6512L23.2759 23.2391C19.7671 26.7584 17.595 31.6277 17.595 37H19.595ZM24.6922 24.6512C27.8415 21.4925 32.1941 19.54 37 19.54V17.54C31.6409 17.54 26.7848 19.7197 23.2759 23.2391L24.6922 24.6512ZM37 19.54C41.8059 19.54 46.1585 21.4925 49.3077 24.6512L50.7241 23.2391C47.2152 19.7197 42.3591 17.54 37 17.54V19.54ZM49.3077 24.6512C50.5258 25.8729 51.564 27.2749 52.3819 28.8166L54.1487 27.8794C53.2376 26.162 52.081 24.6001 50.7241 23.2391L49.3077 24.6512ZM53.2653 29.348H57.0174V27.348H53.2653V29.348ZM57.0174 29.348H59.574V27.348H57.0174V29.348ZM60.5082 27.9912C59.2315 24.6491 57.2719 21.6464 54.795 19.1622L53.3787 20.5743C55.6594 22.8618 57.4641 25.6271 58.6398 28.7049L60.5082 27.9912ZM54.795 19.1622C52.3064 16.6661 49.2993 14.6868 45.9448 13.4115L45.2341 15.2809C48.317 16.453 51.0851 18.2739 53.3787 20.5743L54.795 19.1622ZM45.1943 15.2648L45.2371 15.2833L46.0275 13.446L45.9846 13.4276L45.1943 15.2648ZM46.6323 14.3646V6.86871H44.6323V14.3646H46.6323ZM46.6323 6.86871V0.90394H44.6323V6.86871H46.6323ZM45.8665 -0.0682599C43.9494 -0.529978 41.9721 -0.839254 39.9597 -0.996944L39.8034 0.996944C41.7148 1.14672 43.5876 1.44007 45.3981 1.87614L45.8665 -0.0682599ZM38.8815 0V5.7926H40.8815V0H38.8815ZM38.8815 5.7926V12.9442H40.8815V5.7926H38.8815ZM39.7907 13.94C39.7976 13.9406 39.8094 13.9421 39.8433 13.9468C39.8687 13.9503 39.9233 13.9583 39.9779 13.9638L40.1775 11.9737C40.1708 11.9731 40.1611 11.9718 40.1206 11.9661C40.0885 11.9616 40.0329 11.9538 39.9724 11.9483L39.7907 13.94ZM40.2051 11.9769C39.1581 11.8424 38.0856 11.772 37.0062 11.772V13.772C37.999 13.772 38.9864 13.8368 39.9503 13.9606L40.2051 11.9769ZM37.0062 11.772C35.9204 11.772 34.8542 11.8425 33.8018 11.9768L34.0551 13.9607C35.0259 13.8368 36.0074 13.772 37.0062 13.772V11.772ZM34.0192 13.9646C34.0798 13.9591 34.1354 13.9513 34.1675 13.9468C34.2079 13.9411 34.2177 13.9398 34.2244 13.9392L34.0248 11.9491C33.9702 11.9546 33.9156 11.9625 33.8902 11.9661C33.8563 11.9708 33.8445 11.9723 33.8376 11.9729L34.0192 13.9646ZM35.1246 12.9442V5.7926H33.1246V12.9442H35.1246ZM35.1246 5.7926V0H33.1246V5.7926H35.1246ZM34.0465 -0.996944C32.0341 -0.839254 30.0567 -0.529979 28.1397 -0.0682599L28.608 1.87614C30.4185 1.44007 32.2914 1.14672 34.2027 0.996944L34.0465 -0.996944ZM27.3738 0.90394V6.86871H29.3738V0.90394H27.3738ZM27.3738 6.86871V14.3646H29.3738V6.86871H27.3738ZM28.7687 15.2834L28.8116 15.2649L28.0219 13.4275L27.979 13.4459L28.7687 15.2834ZM28.0598 13.4121C24.7075 14.693 21.7005 16.6653 19.2112 19.1622L20.6275 20.5743C22.9202 18.2747 25.6886 16.4591 28.7737 15.2803L28.0598 13.4121ZM19.2112 19.1622C14.6603 23.7267 11.8442 30.0347 11.8442 37H13.8442C13.8442 30.5845 16.4357 24.7786 20.6275 20.5743L19.2112 19.1622ZM11.8442 37C11.8442 43.9653 14.6603 50.2733 19.2112 54.8378L20.6275 53.4257C16.4357 49.2214 13.8442 43.4155 13.8442 37H11.8442ZM19.2112 54.8378C21.7005 57.3346 24.7074 59.307 28.0598 60.588L28.7737 58.7197C25.6886 57.5409 22.9202 55.7253 20.6275 53.4257L19.2112 54.8378ZM28.8116 58.7351L28.7687 58.7166L27.979 60.5541L28.0219 60.5726L28.8116 58.7351ZM27.3738 59.6354V67.1313H29.3738V59.6354H27.3738ZM27.3738 67.1313V73.0961H29.3738V67.1313H27.3738ZM28.1397 74.0683C30.0567 74.53 32.0341 74.8392 34.0465 74.9969L34.2027 73.0031C32.2914 72.8533 30.4185 72.5599 28.608 72.1239L28.1397 74.0683ZM35.1246 74V68.2074H33.1246V74H35.1246ZM34.0467 60.039C33.9821 60.0309 34.0377 60.0379 33.9731 60.0298C33.9371 60.0253 33.9908 60.032 33.9547 60.0275C33.9317 60.0246 33.9594 60.0281 33.9363 60.0252C33.9339 60.0249 33.9204 60.0232 33.9179 60.0229C33.9098 60.0218 33.9077 60.0216 33.8996 60.0206C33.8619 60.0158 33.7901 60.0068 33.7524 60.0021L33.5036 61.9866C33.5682 61.9947 33.5126 61.9877 33.5772 61.9958C33.6132 62.0003 33.5596 61.9936 33.5956 61.9981C33.6186 62.001 33.5909 61.9975 33.614 62.0004C33.6164 62.0007 33.6299 62.0024 33.6324 62.0027C33.6405 62.0037 33.6426 62.004 33.6508 62.005C33.6884 62.0098 33.7602 62.0188 33.7979 62.0235L34.0467 60.039ZM33.5655 61.9924C33.6273 61.9963 33.6129 62.0003 33.7979 62.0235L34.0467 60.039C34.0355 60.0376 33.8249 60.0047 33.6906 59.9963L33.5655 61.9924ZM33.4479 59.954C33.4179 59.95 33.3842 59.9446 33.334 59.9365C33.2891 59.9292 33.2278 59.9192 33.1659 59.9109L32.9008 61.8933C32.9307 61.8973 32.9645 61.9027 33.0146 61.9108C33.0595 61.9181 33.1208 61.9281 33.1828 61.9363L33.4479 59.954ZM32.9008 61.8933C33.0077 61.9076 33.0665 61.9152 33.1187 61.9256L33.512 59.9647C33.3803 59.9383 33.2429 59.9212 33.1659 59.9109L32.9008 61.8933ZM32.3226 59.7495C32.2118 59.7272 32.1552 59.7165 32.1023 59.7024L31.5855 61.6345C31.7166 61.6695 31.8562 61.6957 31.9293 61.7104L32.3226 59.7495ZM31.5855 61.6345C31.7157 61.6693 31.8383 61.6934 31.9411 61.7127L32.3108 59.7472C32.2174 59.7296 32.1561 59.7168 32.1023 59.7024L31.5855 61.6345ZM32.0165 59.6857C31.9563 59.6744 31.9051 59.6605 31.7867 59.6308L31.3003 61.5708C31.3781 61.5903 31.5108 61.6256 31.6469 61.6512L32.0165 59.6857ZM31.315 61.5743L31.6031 61.642L32.0602 59.6949L31.772 59.6273L31.315 61.5743ZM31.7867 59.6308C31.7248 59.6153 31.6663 59.6021 31.6203 59.5917C31.5712 59.5806 31.5347 59.5723 31.4986 59.5632L31.0121 61.5031C31.0741 61.5187 31.1326 61.5319 31.1786 61.5423C31.2276 61.5534 31.2641 61.5617 31.3003 61.5708L31.7867 59.6308ZM30.997 61.4992C31.0974 61.5261 31.2237 61.5582 31.3587 61.5836L31.7283 59.618C31.6671 59.6065 31.5973 59.5895 31.5137 59.5671L30.997 61.4992ZM31.5137 59.5671C31.4135 59.5403 31.2922 59.5096 31.17 59.4851L30.7766 61.446C30.8384 61.4584 30.9133 61.4768 30.997 61.4992L31.5137 59.5671ZM30.7766 61.446C30.8378 61.4583 30.8929 61.4732 31.0121 61.5031L31.4986 59.5632C31.4216 59.5439 31.2927 59.5097 31.17 59.4851L30.7766 61.446ZM31.2133 59.4933C31.1722 59.4823 31.1318 59.4711 31.0867 59.4587C31.0429 59.4465 30.9944 59.4331 30.9436 59.4195L30.4268 61.3516C30.468 61.3626 30.5084 61.3738 30.5534 61.3863C30.5973 61.3984 30.6458 61.4118 30.6966 61.4254L31.2133 59.4933ZM30.4097 61.3469C30.5056 61.3744 30.6065 61.4013 30.6966 61.4254L31.2133 59.4933C31.1195 59.4682 31.0364 59.446 30.9607 59.4243L30.4097 61.3469ZM30.1255 59.1851C30.0681 59.1659 30.0139 59.149 29.9708 59.1356C29.925 59.1213 29.8903 59.1105 29.8558 59.099L29.2216 60.9958C29.279 61.015 29.3332 61.0318 29.3763 61.0452C29.4221 61.0595 29.4568 61.0703 29.4914 61.0819L30.1255 59.1851ZM29.2632 61.0087C29.3242 61.0261 29.3946 61.0495 29.4914 61.0819L30.1255 59.1851C30.0384 59.1559 29.9249 59.1178 29.8142 59.0861L29.2632 61.0087ZM29.8497 59.0928C29.8037 59.0775 29.7578 59.0621 29.7118 59.0467C29.6658 59.0313 29.6198 59.016 29.5738 59.0006L28.9396 60.8974C28.9856 60.9127 29.0315 60.9281 29.0775 60.9435C29.1235 60.9589 29.1695 60.9742 29.2155 60.9896L29.8497 59.0928ZM28.9396 60.8974C29.0048 60.9192 29.1252 60.9615 29.2335 60.9954L29.8317 59.087C29.7438 59.0595 29.6925 59.0403 29.5738 59.0006L28.9396 60.8974ZM45.2109 58.7196C45.179 58.7324 45.1482 58.7437 45.0958 58.7633C45.0496 58.7806 44.9855 58.8047 44.9186 58.8335L45.7084 60.6709C45.8072 60.6285 45.7619 60.6535 45.9556 60.5758L45.2109 58.7196ZM45.6507 60.6936C45.7576 60.6554 45.8677 60.611 45.9556 60.5758L45.2109 58.7196C45.1149 58.7581 45.0411 58.7876 44.9763 58.8108L45.6507 60.6936ZM44.1241 59.1059C44.1055 59.1126 44.081 59.1204 44.0361 59.1342C43.9975 59.146 43.9358 59.1645 43.8745 59.1851L44.5086 61.0819C44.5392 61.0716 44.5695 61.0625 44.6214 61.0466C44.6669 61.0327 44.7313 61.0129 44.7985 60.9888L44.1241 59.1059ZM44.5086 61.0819C44.6269 61.0423 44.6667 61.0276 44.7197 61.0134L44.2029 59.0813C44.072 59.1163 43.9401 59.1631 43.8745 59.1851L44.5086 61.0819ZM43.8873 59.177C43.6144 59.2603 43.3468 59.3379 43.0659 59.4158L43.6005 61.343C43.8959 61.2611 44.1801 61.1788 44.4712 61.0899L43.8873 59.177ZM43.5863 61.3469C43.8811 61.2697 44.1835 61.1842 44.4901 61.0839L43.8684 59.183C43.611 59.2672 43.3493 59.3415 43.0801 59.412L43.5863 61.3469ZM43.0565 59.4195C43.0057 59.4331 42.9572 59.4465 42.9133 59.4587C42.8683 59.4711 42.8279 59.4823 42.7867 59.4933L43.3035 61.4254C43.3542 61.4118 43.4027 61.3984 43.4466 61.3863C43.4916 61.3738 43.532 61.3626 43.5732 61.3516L43.0565 59.4195ZM43.3035 61.4254C43.3936 61.4013 43.4944 61.3744 43.5903 61.3469L43.0394 59.4243C42.9636 59.446 42.8805 59.4682 42.7867 59.4933L43.3035 61.4254ZM42.7683 59.4995C42.6709 59.5255 42.6097 59.5415 42.5541 59.5527L42.9475 61.5136C43.0758 61.4879 43.1985 61.4547 43.285 61.4316L42.7683 59.4995ZM43.0092 61.4992C43.1066 61.4731 43.1678 61.4571 43.2233 61.446L42.83 59.4851C42.7017 59.5108 42.5789 59.544 42.4924 59.5671L43.0092 61.4992ZM42.5014 59.5632C42.3833 59.5928 42.3319 59.6067 42.2717 59.618L42.6413 61.5836C42.7773 61.558 42.9099 61.5227 42.9879 61.5031L42.5014 59.5632ZM42.6413 61.5836C42.7762 61.5582 42.9026 61.5261 43.0031 61.4992L42.4863 59.5671C42.4028 59.5894 42.333 59.6065 42.2717 59.618L42.6413 61.5836ZM42.2133 59.6308C42.1771 59.6399 42.1405 59.6482 42.0915 59.6593C42.0455 59.6697 41.987 59.6829 41.9251 59.6985L42.4116 61.6384C42.4478 61.6293 42.4843 61.621 42.5334 61.6099C42.5793 61.5995 42.6378 61.5863 42.6997 61.5708L42.2133 59.6308ZM42.365 61.6489C42.4848 61.6249 42.6069 61.594 42.6997 61.5708L42.2133 59.6308C42.1099 59.6567 42.0359 59.6751 41.9717 59.688L42.365 61.6489ZM41.9594 59.688C41.8962 59.7007 41.8336 59.7153 41.793 59.7247C41.7467 59.7353 41.7166 59.742 41.6893 59.7472L42.0589 61.7127C42.1297 61.6994 42.1946 61.6846 42.2418 61.6737C42.2946 61.6615 42.3241 61.6547 42.3528 61.6489L41.9594 59.688ZM42.0589 61.7127C42.1618 61.6934 42.2843 61.6693 42.4145 61.6345L41.8977 59.7024C41.8439 59.7168 41.7826 59.7296 41.6893 59.7472L42.0589 61.7127ZM41.3647 59.811C41.2779 59.8284 41.2056 59.8416 41.1468 59.8494L41.4119 61.8318C41.5371 61.8151 41.661 61.7914 41.7581 61.7719L41.3647 59.811ZM41.4038 61.8329C41.5438 61.8153 41.6706 61.7895 41.7581 61.7719L41.3647 59.811C41.2683 59.8303 41.2112 59.8413 41.155 59.8484L41.4038 61.8329ZM41.0766 59.8663C41.0528 59.8711 41.0239 59.8759 40.9743 59.8838C40.9307 59.8907 40.8661 59.9008 40.8003 59.9132L41.1699 61.8787C41.2022 61.8727 41.2357 61.8674 41.2887 61.8589C41.3356 61.8515 41.4017 61.8409 41.4699 61.8272L41.0766 59.8663ZM41.1699 61.8787C41.2044 61.8722 41.2396 61.8665 41.2888 61.8585C41.3346 61.8511 41.3945 61.8415 41.4581 61.8295L41.0884 59.864C41.0539 59.8705 41.0188 59.8762 40.9695 59.8842C40.9237 59.8916 40.8639 59.9012 40.8003 59.9132L41.1699 61.8787ZM39.9533 13.9487C40.0024 13.9548 40.0514 13.961 40.1005 13.9671C40.1495 13.9733 40.1986 13.9794 40.2476 13.9856L40.4964 12.0011C40.4474 11.995 40.3983 11.9888 40.3492 11.9827C40.3002 11.9765 40.2511 11.9704 40.2021 11.9642L39.9533 13.9487ZM40.4346 11.9953C40.3728 11.9914 40.387 11.9874 40.2021 11.9642L39.9533 13.9487C39.9646 13.9501 40.1751 13.983 40.3094 13.9914L40.4346 11.9953ZM40.5521 14.0337C40.5821 14.0377 40.6158 14.0431 40.666 14.0512C40.7108 14.0585 40.7721 14.0685 40.8341 14.0768L41.0992 12.0944C41.0693 12.0904 41.0356 12.085 40.9854 12.0769C40.9406 12.0696 40.8792 12.0597 40.8172 12.0514L40.5521 14.0337ZM41.0992 12.0944C40.9924 12.0801 40.9336 12.0725 40.8814 12.0621L40.488 14.023C40.6198 14.0494 40.7571 14.0665 40.8341 14.0768L41.0992 12.0944ZM40.7884 14.0722C40.8567 14.0859 40.9227 14.0964 40.9697 14.1039C41.0226 14.1123 41.0561 14.1176 41.0884 14.1237L41.4581 12.1582C41.3922 12.1458 41.3277 12.1357 41.2841 12.1288C41.2345 12.1209 41.2055 12.116 41.1818 12.1113L40.7884 14.0722ZM41.4581 12.1582C41.3945 12.1462 41.3346 12.1366 41.2888 12.1292C41.2396 12.1212 41.2044 12.1155 41.1699 12.109L40.8003 14.0745C40.8639 14.0865 40.9237 14.0961 40.9695 14.1035C41.0188 14.1115 41.0539 14.1172 41.0884 14.1237L41.4581 12.1582ZM41.3892 14.1829C41.4352 14.1921 41.4812 14.2013 41.5272 14.2106C41.5732 14.2198 41.6192 14.229 41.6651 14.2382L42.0585 12.2773C42.0125 12.2681 41.9665 12.2588 41.9205 12.2496C41.8745 12.2404 41.8286 12.2312 41.7826 12.222L41.3892 14.1829ZM42.1202 12.2917C41.9879 12.2563 41.8539 12.2294 41.7185 12.2113L41.4534 14.1936C41.5018 14.2001 41.5518 14.21 41.6034 14.2238L42.1202 12.2917ZM41.6774 14.2382C41.7882 14.2605 41.8448 14.2712 41.8977 14.2853L42.4145 12.3532C42.2835 12.3182 42.144 12.292 42.0708 12.2773L41.6774 14.2382ZM42.4145 12.3532C42.2843 12.3184 42.1618 12.2943 42.0589 12.275L41.6893 14.2405C41.7826 14.2581 41.8439 14.2709 41.8977 14.2853L42.4145 12.3532ZM41.9835 14.302C42.0437 14.3134 42.095 14.3272 42.2133 14.3569L42.6997 12.4169C42.6218 12.3974 42.4892 12.3621 42.3532 12.3365L41.9835 14.302ZM42.685 12.4134L42.3969 12.3457L41.9398 14.2928L42.228 14.3604L42.685 12.4134ZM42.2356 14.3622C42.4082 14.4013 42.5834 14.4466 42.7761 14.4964L43.2772 12.5602C43.0898 12.5117 42.8849 12.4586 42.6774 12.4116L42.2356 14.3622ZM43.3062 12.5682C43.084 12.5035 42.8744 12.4548 42.6708 12.4101L42.2422 14.3637C42.431 14.4051 42.5893 14.4425 42.7471 14.4885L43.3062 12.5682ZM42.7867 14.4944C42.8279 14.5054 42.8683 14.5166 42.9133 14.529C42.9572 14.5412 43.0057 14.5546 43.0565 14.5682L43.5732 12.6361C43.532 12.6251 43.4916 12.6139 43.4466 12.6014C43.4027 12.5893 43.3542 12.5759 43.3035 12.5623L42.7867 14.4944ZM43.5903 12.6408C43.4944 12.6133 43.3936 12.5864 43.3035 12.5623L42.7867 14.4944C42.8805 14.5195 42.9636 14.5417 43.0394 14.5634L43.5903 12.6408ZM43.8745 14.8026C43.9319 14.8218 43.9861 14.8387 44.0292 14.8521C44.075 14.8664 44.1097 14.8772 44.1442 14.8887L44.7784 12.9919C44.721 12.9728 44.6668 12.9559 44.6237 12.9425C44.5779 12.9282 44.5432 12.9174 44.5086 12.9058L43.8745 14.8026ZM44.7197 12.9743C44.6667 12.9601 44.6269 12.9454 44.5086 12.9058L43.8745 14.8026C43.9401 14.8246 44.072 14.8714 44.2029 14.9064L44.7197 12.9743ZM44.1566 14.8969C44.424 14.9844 44.6875 15.0783 44.9653 15.1774L45.6371 13.2936C45.3632 13.1959 45.075 13.0931 44.7783 12.996L44.1566 14.8969ZM45.6626 13.3031C45.3635 13.1872 45.0556 13.0867 44.7783 12.996L44.1566 14.8969C44.4433 14.9907 44.6995 15.0748 44.9399 15.1679L45.6626 13.3031ZM44.935 15.1636C44.9967 15.1883 45.0563 15.2102 45.1001 15.2263C45.1483 15.244 45.1807 15.256 45.2109 15.2681L45.9556 13.4119C45.8939 13.3872 45.8343 13.3654 45.7905 13.3492C45.7424 13.3315 45.71 13.3195 45.6797 13.3074L44.935 15.1636ZM45.9556 13.4119C45.8687 13.3771 45.7492 13.3288 45.6245 13.2871L44.9903 15.1839C45.0495 15.2037 45.1139 15.2292 45.2109 15.2681L45.9556 13.4119ZM28.7891 15.2681C28.8194 15.256 28.8517 15.244 28.8999 15.2263C28.9437 15.2102 29.0033 15.1883 29.065 15.1636L28.3203 13.3074C28.29 13.3195 28.2577 13.3315 28.2095 13.3492C28.1657 13.3654 28.1061 13.3872 28.0444 13.4119L28.7891 15.2681ZM28.3756 13.2871C28.2509 13.3288 28.1313 13.3771 28.0444 13.4119L28.7891 15.2681C28.8861 15.2292 28.9505 15.2037 29.0097 15.1839L28.3756 13.2871ZM29.0378 15.174C29.2245 15.1054 29.3901 15.0446 29.5584 14.9902L28.9427 13.0873C28.7308 13.1558 28.5286 13.2303 28.3475 13.297L29.0378 15.174ZM28.9335 13.0903C28.7375 13.1559 28.5377 13.227 28.3475 13.297L29.0378 15.174C29.2155 15.1087 29.3957 15.0446 29.5676 14.9871L28.9335 13.0903ZM29.8558 14.8887C29.8903 14.8772 29.925 14.8664 29.9708 14.8521C30.0139 14.8387 30.0681 14.8218 30.1255 14.8026L29.4914 12.9058C29.4568 12.9174 29.4221 12.9282 29.3763 12.9425C29.3332 12.9559 29.279 12.9728 29.2216 12.9919L29.8558 14.8887ZM29.4914 12.9058C29.3946 12.9382 29.3242 12.9616 29.2632 12.979L29.8142 14.9017C29.9249 14.8699 30.0384 14.8318 30.1255 14.8026L29.4914 12.9058ZM30.1127 14.8045C30.3856 14.7212 30.6532 14.6437 30.9341 14.5657L30.3995 12.6385C30.1041 12.7205 29.8199 12.8028 29.5288 12.8917L30.1127 14.8045ZM30.3941 12.64C30.1136 12.7195 29.822 12.8022 29.5288 12.8917L30.1127 14.8045C30.3835 14.7218 30.6559 14.6446 30.9395 14.5642L30.3941 12.64ZM30.9436 14.5682C30.9944 14.5546 31.0429 14.5412 31.0867 14.529C31.1318 14.5166 31.1722 14.5054 31.2133 14.4944L30.6966 12.5623C30.6458 12.5759 30.5973 12.5893 30.5534 12.6014C30.5084 12.6139 30.468 12.6251 30.4268 12.6361L30.9436 14.5682ZM30.6966 12.5623C30.6065 12.5864 30.5056 12.6133 30.4097 12.6408L30.9607 14.5634C31.0364 14.5417 31.1195 14.5195 31.2133 14.4944L30.6966 12.5623ZM31.2317 14.4882C31.3154 14.4658 31.3903 14.4474 31.452 14.435L31.0587 12.4741C30.9365 12.4986 30.8152 12.5293 30.7149 12.5561L31.2317 14.4882ZM31.0121 12.4846C31.006 12.4861 30.7858 12.5372 30.7149 12.5561L31.2317 14.4882C31.3448 14.458 31.3086 14.4722 31.4986 14.4245L31.0121 12.4846ZM31.4986 14.4245C31.617 14.3948 31.6682 14.381 31.7283 14.3697L31.3587 12.4041C31.2226 12.4297 31.0899 12.4651 31.0121 12.4846L31.4986 14.4245ZM31.3587 12.4041C31.2237 12.4295 31.0972 12.4617 30.997 12.4885L31.5137 14.4206C31.5974 14.3982 31.6671 14.3812 31.7283 14.3697L31.3587 12.4041ZM31.7867 14.3569C31.8228 14.3478 31.8593 14.3395 31.9084 14.3284C31.9544 14.318 32.0129 14.3048 32.0749 14.2892L31.5885 12.3493C31.5523 12.3584 31.5158 12.3667 31.4668 12.3778C31.4208 12.3882 31.3623 12.4014 31.3003 12.4169L31.7867 14.3569ZM31.6032 12.3457L31.315 12.4134L31.772 14.3604L32.0602 14.2928L31.6032 12.3457ZM32.0406 14.2997C32.13 14.2818 32.2445 14.259 32.3692 14.2277L31.8827 12.2878C31.8112 12.3057 31.7418 12.3198 31.6472 12.3388L32.0406 14.2997ZM31.9411 12.275C31.8383 12.2943 31.7157 12.3184 31.5855 12.3532L32.1023 14.2853C32.1561 14.2709 32.2174 14.2581 32.3108 14.2405L31.9411 12.275ZM32.9234 14.1214C32.9472 14.1166 32.9761 14.1118 33.0257 14.1039C33.0693 14.097 33.1339 14.0869 33.1998 14.0745L32.8301 12.109C32.7979 12.115 32.7643 12.1203 32.7114 12.1288C32.6644 12.1362 32.5983 12.1468 32.5301 12.1605L32.9234 14.1214ZM32.8301 12.109C32.7956 12.1155 32.7605 12.1212 32.7112 12.1292C32.6654 12.1366 32.6055 12.1462 32.5419 12.1582L32.9116 14.1237C32.9461 14.1172 32.9812 14.1115 33.0305 14.1035C33.0762 14.0961 33.1362 14.0865 33.1998 14.0745L32.8301 12.109ZM33.452 14.0348C33.5215 14.0261 33.5864 14.0155 33.6313 14.0082C33.6814 14.0001 33.7116 13.9953 33.7401 13.9917L33.4913 12.0073C33.4218 12.016 33.357 12.0266 33.312 12.0338C33.262 12.042 33.2318 12.0467 33.2032 12.0503L33.452 14.0348ZM33.4832 12.0083C33.422 12.0165 33.3601 12.0266 33.3168 12.0335C33.2682 12.0412 33.234 12.0465 33.2032 12.0503L33.452 14.0348C33.5193 14.0263 33.5832 14.0162 33.6311 14.0086C33.6845 14.0001 33.7175 13.9948 33.7483 13.9907L33.4832 12.0083ZM33.7524 13.9917C33.8489 13.9797 33.8031 13.9854 33.8996 13.9733C33.952 13.9667 33.9207 13.9706 33.9731 13.9641C34.042 13.9554 33.941 13.9681 34.0099 13.9595C34.0241 13.9577 34.0325 13.9566 34.0467 13.9548L33.7979 11.9704C33.7015 11.9825 33.7472 11.9767 33.6508 11.9888C33.5983 11.9954 33.6296 11.9915 33.5772 11.9981C33.5083 12.0067 33.6093 11.994 33.5404 12.0027C33.5262 12.0044 33.5178 12.0055 33.5036 12.0073L33.7524 13.9917ZM33.8597 11.9646C33.7254 11.973 33.5148 12.0059 33.5036 12.0073L33.7524 13.9917C33.9374 13.9685 33.923 13.9645 33.9849 13.9607L33.8597 11.9646ZM50.9878 3.70675C55.3047 5.53077 59.1881 8.1809 62.4524 11.4549L63.8687 10.0428C60.4258 6.58959 56.3269 3.79148 51.7662 1.86446L50.9878 3.70675ZM62.4524 11.4549C68.9679 17.9899 73 27.0181 73 36.9939H75C75 26.4681 70.7432 16.9378 63.8687 10.0428L62.4524 11.4549ZM73 36.9939C73 46.9696 68.9679 55.9978 62.4524 62.5328L63.8687 63.9449C70.7432 57.0499 75 47.5196 75 36.9939H73ZM62.4524 62.5328C59.1884 65.8065 55.2988 68.4569 50.9873 70.2811L51.7667 72.1231C56.3205 70.1963 60.4255 67.3984 63.8687 63.9449L62.4524 62.5328ZM52.377 71.2021V64.8315H50.377V71.2021H52.377ZM51.8389 65.7184C54.7871 64.1828 57.4757 62.2031 59.8039 59.8679L58.3876 58.4558C56.2035 60.6465 53.6809 62.5039 50.915 63.9446L51.8389 65.7184ZM59.8039 59.8679C65.6361 54.0183 69.2492 45.927 69.2492 37H67.2492C67.2492 45.377 63.8608 52.9663 58.3876 58.4558L59.8039 59.8679ZM69.2492 37C69.2492 28.0668 65.6361 19.9817 59.8039 14.1321L58.3876 15.5442C63.8609 21.0338 67.2492 28.6169 67.2492 37H69.2492ZM59.8039 14.1321C57.4757 11.7969 54.7871 9.81723 51.8389 8.28162L50.915 10.0554C53.6809 11.4961 56.2035 13.3535 58.3876 15.5442L59.8039 14.1321ZM52.377 9.16852V2.78561H50.377V9.16852H52.377Z" fill="url(#paint23_linear_864_1350)" mask="url(#path-3-inside-2_864_1350)"/>
<defs>
<linearGradient id="paint0_linear_864_1350" x1="137.763" y1="33.2676" x2="121.432" y2="74.1552" gradientUnits="userSpaceOnUse">
<stop stop-color="#F4DE8B"/>
<stop offset="0.4624" stop-color="#CFAD56"/>
<stop offset="1" stop-color="#A1812E"/>
</linearGradient>
<linearGradient id="paint1_linear_864_1350" x1="137.763" y1="33.2676" x2="121.432" y2="74.1552" gradientUnits="userSpaceOnUse">
<stop stop-color="#F4DE8B"/>
<stop offset="0.4624" stop-color="#CFAD56"/>
<stop offset="1" stop-color="#A1812E"/>
</linearGradient>
<linearGradient id="paint2_linear_864_1350" x1="137.763" y1="33.2676" x2="121.432" y2="74.1552" gradientUnits="userSpaceOnUse">
<stop stop-color="#F4DE8B"/>
<stop offset="0.4624" stop-color="#CFAD56"/>
<stop offset="1" stop-color="#A1812E"/>
</linearGradient>
<linearGradient id="paint3_linear_864_1350" x1="137.763" y1="33.2676" x2="121.432" y2="74.1552" gradientUnits="userSpaceOnUse">
<stop stop-color="#F4DE8B"/>
<stop offset="0.4624" stop-color="#CFAD56"/>
<stop offset="1" stop-color="#A1812E"/>
</linearGradient>
<linearGradient id="paint4_linear_864_1350" x1="137.763" y1="33.2676" x2="121.432" y2="74.1552" gradientUnits="userSpaceOnUse">
<stop stop-color="#F4DE8B"/>
<stop offset="0.4624" stop-color="#CFAD56"/>
<stop offset="1" stop-color="#A1812E"/>
</linearGradient>
<linearGradient id="paint5_linear_864_1350" x1="137.763" y1="33.2676" x2="121.432" y2="74.1552" gradientUnits="userSpaceOnUse">
<stop stop-color="#F4DE8B"/>
<stop offset="0.4624" stop-color="#CFAD56"/>
<stop offset="1" stop-color="#A1812E"/>
</linearGradient>
<linearGradient id="paint6_linear_864_1350" x1="137.763" y1="33.2676" x2="121.432" y2="74.1552" gradientUnits="userSpaceOnUse">
<stop stop-color="#F4DE8B"/>
<stop offset="0.4624" stop-color="#CFAD56"/>
<stop offset="1" stop-color="#A1812E"/>
</linearGradient>
<linearGradient id="paint7_linear_864_1350" x1="137.763" y1="33.2676" x2="121.432" y2="74.1552" gradientUnits="userSpaceOnUse">
<stop stop-color="#F4DE8B"/>
<stop offset="0.4624" stop-color="#CFAD56"/>
<stop offset="1" stop-color="#A1812E"/>
</linearGradient>
<linearGradient id="paint8_linear_864_1350" x1="137.763" y1="33.2676" x2="121.432" y2="74.1552" gradientUnits="userSpaceOnUse">
<stop stop-color="#F4DE8B"/>
<stop offset="0.4624" stop-color="#CFAD56"/>
<stop offset="1" stop-color="#A1812E"/>
</linearGradient>
<linearGradient id="paint9_linear_864_1350" x1="137.763" y1="33.2676" x2="121.432" y2="74.1552" gradientUnits="userSpaceOnUse">
<stop stop-color="#F4DE8B"/>
<stop offset="0.4624" stop-color="#CFAD56"/>
<stop offset="1" stop-color="#A1812E"/>
</linearGradient>
<linearGradient id="paint10_linear_864_1350" x1="137.763" y1="33.2676" x2="121.432" y2="74.1552" gradientUnits="userSpaceOnUse">
<stop stop-color="#F4DE8B"/>
<stop offset="0.4624" stop-color="#CFAD56"/>
<stop offset="1" stop-color="#A1812E"/>
</linearGradient>
<linearGradient id="paint11_linear_864_1350" x1="137.763" y1="33.2676" x2="121.432" y2="74.1552" gradientUnits="userSpaceOnUse">
<stop stop-color="#F4DE8B"/>
<stop offset="0.4624" stop-color="#CFAD56"/>
<stop offset="1" stop-color="#A1812E"/>
</linearGradient>
<linearGradient id="paint12_linear_864_1350" x1="137.763" y1="33.2676" x2="121.432" y2="74.1552" gradientUnits="userSpaceOnUse">
<stop stop-color="#F4DE8B"/>
<stop offset="0.4624" stop-color="#CFAD56"/>
<stop offset="1" stop-color="#A1812E"/>
</linearGradient>
<linearGradient id="paint13_linear_864_1350" x1="137.763" y1="33.2676" x2="121.432" y2="74.1552" gradientUnits="userSpaceOnUse">
<stop stop-color="#F4DE8B"/>
<stop offset="0.4624" stop-color="#CFAD56"/>
<stop offset="1" stop-color="#A1812E"/>
</linearGradient>
<linearGradient id="paint14_linear_864_1350" x1="137.763" y1="33.2676" x2="121.432" y2="74.1552" gradientUnits="userSpaceOnUse">
<stop stop-color="#F4DE8B"/>
<stop offset="0.4624" stop-color="#CFAD56"/>
<stop offset="1" stop-color="#A1812E"/>
</linearGradient>
<linearGradient id="paint15_linear_864_1350" x1="137.763" y1="33.2676" x2="121.432" y2="74.1552" gradientUnits="userSpaceOnUse">
<stop stop-color="#F4DE8B"/>
<stop offset="0.4624" stop-color="#CFAD56"/>
<stop offset="1" stop-color="#A1812E"/>
</linearGradient>
<linearGradient id="paint16_linear_864_1350" x1="137.763" y1="33.2676" x2="121.432" y2="74.1552" gradientUnits="userSpaceOnUse">
<stop stop-color="#F4DE8B"/>
<stop offset="0.4624" stop-color="#CFAD56"/>
<stop offset="1" stop-color="#A1812E"/>
</linearGradient>
<linearGradient id="paint17_linear_864_1350" x1="137.763" y1="33.2676" x2="121.432" y2="74.1552" gradientUnits="userSpaceOnUse">
<stop stop-color="#F4DE8B"/>
<stop offset="0.4624" stop-color="#CFAD56"/>
<stop offset="1" stop-color="#A1812E"/>
</linearGradient>
<linearGradient id="paint18_linear_864_1350" x1="151.5" y1="9.5" x2="144.754" y2="71.19" gradientUnits="userSpaceOnUse">
<stop stop-color="#F4DE8B"/>
<stop offset="0.4624" stop-color="#CFAD56"/>
<stop offset="1" stop-color="#A1812E"/>
</linearGradient>
<linearGradient id="paint19_linear_864_1350" x1="151.5" y1="9.5" x2="144.754" y2="71.19" gradientUnits="userSpaceOnUse">
<stop stop-color="#F4DE8B"/>
<stop offset="0.4624" stop-color="#CFAD56"/>
<stop offset="1" stop-color="#A1812E"/>
</linearGradient>
<linearGradient id="paint20_linear_864_1350" x1="151.5" y1="9.5" x2="144.754" y2="71.19" gradientUnits="userSpaceOnUse">
<stop stop-color="#F4DE8B"/>
<stop offset="0.4624" stop-color="#CFAD56"/>
<stop offset="1" stop-color="#A1812E"/>
</linearGradient>
<linearGradient id="paint21_linear_864_1350" x1="151.5" y1="9.5" x2="144.754" y2="71.19" gradientUnits="userSpaceOnUse">
<stop stop-color="#F4DE8B"/>
<stop offset="0.4624" stop-color="#CFAD56"/>
<stop offset="1" stop-color="#A1812E"/>
</linearGradient>
<linearGradient id="paint22_linear_864_1350" x1="61.3489" y1="7.53224" x2="11.3579" y2="68.0353" gradientUnits="userSpaceOnUse">
<stop stop-color="#F4DE8B"/>
<stop offset="0.4624" stop-color="#CFAD56"/>
<stop offset="1" stop-color="#A1812E"/>
</linearGradient>
<linearGradient id="paint23_linear_864_1350" x1="61.3489" y1="7.53224" x2="11.3579" y2="68.0353" gradientUnits="userSpaceOnUse">
<stop stop-color="#F4DE8B"/>
<stop offset="0.4624" stop-color="#CFAD56"/>
<stop offset="1" stop-color="#A1812E"/>
</linearGradient>
</defs>
</svg>
