<svg width="74" height="74" viewBox="0 0 74 74" fill="none" xmlns="http://www.w3.org/2000/svg">
<path d="M72.397 48.9396C72.3343 48.8235 72.2442 48.7364 72.1265 48.6737C72.0135 48.6111 71.8973 48.579 71.7766 48.579C71.6544 48.579 71.5383 48.6111 71.4252 48.6737C71.3121 48.7364 71.2189 48.8235 71.1563 48.9396C71.0936 49.0511 71.0615 49.1703 71.0615 49.2941C71.0615 49.4178 71.0936 49.537 71.1563 49.6486C71.222 49.7616 71.3106 49.8533 71.4221 49.916C71.5352 49.9786 71.6544 50.0107 71.7797 50.0107C71.9004 50.0107 72.0196 49.9786 72.1326 49.916C72.2442 49.8533 72.3328 49.7616 72.397 49.6486C72.4596 49.537 72.4917 49.4163 72.4917 49.2941C72.4917 49.1703 72.4612 49.0511 72.397 48.9396ZM72.0211 49.5599H71.8652L71.7705 49.3246H71.6773V49.5599H71.552V48.961H71.8026C71.8332 48.961 71.8958 48.9625 71.9584 48.9946C71.9905 49.0251 72.0211 49.0847 72.0211 49.1443C72.0211 49.21 71.9905 49.2727 71.9279 49.3002L72.0211 49.5599Z" fill="currentColor"/>
<path d="M71.8346 49.0833C71.8346 49.071 71.772 49.071 71.7399 49.071H71.6772V49.2254H71.772C71.772 49.2254 71.8041 49.2254 71.8346 49.2131C71.8667 49.1994 71.8667 49.1704 71.8667 49.1429C71.8667 49.1199 71.8667 49.0955 71.8346 49.0833Z" fill="currentColor"/>
<path d="M51.852 14.8458C46.1327 14.8474 40.9223 17.0156 36.9954 20.5727C33.0655 17.0171 27.8581 14.8504 22.1465 14.8504C22.0992 14.8504 22.0518 14.8504 22.0044 14.8504C9.84477 14.9299 0 24.822 0 36.9985C0 49.2253 9.92269 59.145 22.1465 59.145C27.8581 59.145 33.0639 56.9783 36.9939 53.4227C36.1734 52.6816 35.4308 51.8611 34.7294 51.0024H39.3042C38.6135 51.8489 37.8603 52.6404 37.055 53.3738H37.0504C37.0519 53.3769 37.052 53.3769 37.052 53.3769C37.0336 53.3937 37.0138 53.4059 36.9954 53.4242C40.9239 56.9859 46.1404 59.1541 51.8611 59.1526C64.0941 59.1496 74.0031 49.2299 74 37C74 36.9954 74 36.9923 74 36.9893C73.9969 24.7594 64.0788 14.8458 51.852 14.8458ZM34.9815 22.8616H39.1896C39.813 23.6118 40.3891 24.4049 40.9086 25.233H33.4016C33.8814 24.44 34.4131 23.6286 34.9815 22.8616ZM32.0906 27.5601H42.1829C42.545 28.3287 42.8629 29.1202 43.1379 29.9331H30.8942C31.0149 29.7039 31.4427 28.781 32.0906 27.5601ZM20.9303 42.3097H18.3021L19.8668 34.1045L16.2684 42.3097H13.8909L13.4523 34.1595L11.8877 42.3097H9.50861L11.5439 31.6414H15.6434L15.8314 38.2483L18.7422 31.6414H22.9991L20.9303 42.3097ZM30.2265 37.6998L29.6626 40.7817L29.5694 41.3333L29.5068 41.7734L29.4747 42.0698L29.4441 42.3051H27.2546L27.3172 41.4082C26.6617 42.1233 25.7526 42.4549 24.5638 42.4549C23.155 42.4549 22.1847 41.4877 22.1847 40.088C22.1847 37.9764 23.8747 36.7418 26.7839 36.7418C27.0651 36.7418 27.441 36.7677 27.8474 36.809C27.9101 36.5233 27.9421 36.4041 27.9421 36.2452C27.9421 35.6722 27.4715 35.4583 26.2522 35.4583C25.5004 35.4583 24.6555 35.5484 24.0932 35.6981L23.7173 35.7929L23.4988 35.8494L23.8426 33.8951C25.1566 33.562 26.0016 33.4383 26.9719 33.4383C29.2241 33.4383 30.4144 34.3199 30.4144 35.9824C30.4144 36.4132 30.3839 36.7356 30.2265 37.6998ZM35.4552 33.4184C37.6127 33.4184 38.991 34.6454 38.991 36.5691C38.991 37.2124 38.8962 37.8343 38.6747 38.7144H33.4826C33.4505 38.8473 33.4505 38.9069 33.4505 38.9894C33.4505 39.9933 34.2328 40.5052 35.7348 40.5052C36.6745 40.5052 37.5195 40.3371 38.4577 39.9551L38.0207 42.1279C37.1436 42.3632 36.2681 42.4778 35.3605 42.4778C32.4191 42.4778 30.885 41.1439 30.885 38.5876C30.885 35.6126 32.8256 33.4215 35.4552 33.4184ZM40.9361 48.7242H33.0777C32.601 47.9602 32.1533 47.1763 31.7697 46.3527H42.2257C41.8422 47.1733 41.4128 47.9617 40.9361 48.7242ZM45.7507 35.6248C45.0616 35.5454 44.374 35.498 43.8408 35.498C42.9943 35.498 42.5573 35.7363 42.5573 36.2024C42.5573 36.6088 42.6826 36.7066 43.7781 37.1467C45.1212 37.6738 45.656 38.3721 45.656 39.5624C45.656 41.5427 44.3725 42.4579 41.5549 42.4579C41.2126 42.4579 40.7435 42.4319 40.1171 42.3861C39.8038 42.3632 39.5548 42.3387 39.3959 42.3067L38.9268 42.2211L38.8015 42.1966L39.1774 40.195C40.0223 40.4334 40.7451 40.5373 41.5564 40.5373C42.5893 40.5373 43.0584 40.2958 43.0584 39.7549C43.0584 39.3577 42.9011 39.2293 41.8376 38.7969C40.4303 38.23 39.8038 37.4721 39.8038 36.3781C39.8038 34.7752 40.8368 33.4413 43.7796 33.4413C44.4061 33.4413 45.439 33.5177 46.1251 33.6125L45.7507 35.6248ZM49.8534 40.3677C50.133 40.3677 50.3515 40.3401 50.5394 40.2836L50.1956 42.2089C49.4759 42.406 48.9136 42.4931 48.3177 42.4931C46.9716 42.4931 46.2519 41.8162 46.2519 40.5862C46.2519 40.3417 46.2825 40.0819 46.3146 39.8069L46.4719 38.9527L46.5957 38.2667L47.8166 31.6414H50.4126L50.0382 33.6338H51.3829L51.007 35.7455H49.6608L48.9732 39.3653C48.9412 39.5227 48.9412 39.6419 48.9412 39.7228C48.9412 40.1736 49.2238 40.3646 49.8534 40.3677ZM56.2541 36.0756C55.0026 36.0756 54.5977 37.0076 53.658 42.3143H51.0284L52.6251 33.6354H55.0042L54.7536 34.9525C55.568 33.9272 56.1914 33.5422 57.0379 33.5422C57.1326 33.5422 57.2274 33.5513 57.3206 33.5636C57.3206 33.5681 57.4169 33.585 57.5437 33.6155C57.5742 33.6247 57.6048 33.6247 57.8248 33.7102L56.8897 36.1627L56.5765 36.0985C56.4512 36.0832 56.358 36.0756 56.2541 36.0756ZM60.8976 42.542C57.918 42.542 56.7323 40.742 56.7323 38.5402C56.7323 35.4674 58.7661 33.3817 61.8954 33.3817C64.6213 33.3817 66.0606 35.0961 66.0606 37.2964C66.0606 37.8358 66.0606 37.8725 65.998 38.3767C65.59 41.263 63.5868 42.545 60.8976 42.542ZM66.2791 42.3097C65.9032 42.3097 65.59 42.0056 65.59 41.6298C65.59 41.26 65.9032 40.9559 66.2791 40.9559C66.655 40.9559 66.9682 41.26 66.9682 41.6298C66.9682 42.0072 66.655 42.3097 66.2791 42.3097Z" fill="currentColor"/>
<path d="M66.2793 41.1163C65.9981 41.1163 65.7476 41.3471 65.7476 41.6297C65.7476 41.9201 65.9981 42.1492 66.2793 42.1492C66.562 42.1492 66.7805 41.917 66.7805 41.6297C66.7805 41.3486 66.562 41.1163 66.2793 41.1163ZM66.5284 41.9323H66.371L66.2762 41.6985H66.1815V41.9323H66.0562V41.3318H66.3068C66.3404 41.3318 66.4031 41.3348 66.4657 41.3669C66.4963 41.396 66.5284 41.4555 66.5284 41.5167C66.5284 41.5808 66.4963 41.645 66.4336 41.6725L66.5284 41.9323Z" fill="currentColor"/>
<path d="M66.34 41.4541C66.3415 41.4403 66.2789 41.4403 66.2483 41.4403H66.1826V41.5946H66.2774C66.2774 41.5946 66.3094 41.5946 66.34 41.5824C66.3721 41.5687 66.3721 41.5396 66.3721 41.5137C66.3721 41.4907 66.3721 41.4663 66.34 41.4541Z" fill="currentColor"/>
<path d="M35.4233 35.4064C34.5784 35.4064 33.984 35.958 33.7334 36.9634L36.6442 36.9695C36.6442 36.78 36.6442 36.6333 36.6442 36.5203C36.6442 35.8159 36.2057 35.4064 35.4233 35.4064Z" fill="currentColor"/>
<path d="M26.9399 38.4119C25.4715 38.4103 24.7197 38.855 24.7197 39.732C24.7197 40.2714 25.0651 40.6167 25.6579 40.6167C26.7229 40.6167 27.4731 39.7275 27.5358 38.444C27.2531 38.4149 27.1278 38.4119 26.9399 38.4119Z" fill="currentColor"/>
<path d="M61.8343 35.5056C60.4882 35.5056 59.6753 37.0871 59.6753 38.4806C59.6753 39.6602 60.2376 40.4517 61.1773 40.4334C61.7426 40.4334 62.9604 39.6556 63.1805 38.3064C63.2416 37.9901 63.2737 37.6433 63.2737 37.2659C63.2737 36.3613 62.8993 35.5026 61.8343 35.5056Z" fill="currentColor"/>
</svg>
