<svg width="74" height="74" viewBox="0 0 74 74" fill="none" xmlns="http://www.w3.org/2000/svg">
<g clip-path="url(#clip0_120_2630)">
<path d="M69.8252 36.8994L68.0884 38.4686L69.6566 40.2043L71.3934 38.6351L69.8252 36.8994Z" fill="currentColor"/>
<path d="M66.364 38.3113L64.0479 40.3962L66.1338 42.7135L68.4499 40.6286L66.364 38.3113Z" fill="currentColor"/>
<path d="M72.9577 36.347L71.8008 37.3898L72.8435 38.5467L74.0004 37.5039L72.9577 36.347Z" fill="currentColor"/>
<path d="M66.7375 29.7407L64.999 31.3057L66.5639 33.0442L68.3024 31.4792L66.7375 29.7407Z" fill="currentColor"/>
<path d="M71.4763 32.8898L70.3218 33.933L71.3659 35.0886L72.5205 34.0455L71.4763 32.8898Z" fill="currentColor"/>
<path d="M7.76223 32.9877L6.62749 38.869H6.54887L5.00325 32.9877H4.01387L2.56911 38.869H2.4905L1.24599 32.9877H0L1.80075 40.87H3.00224L4.46925 35.3209H4.54787L6.05937 40.87H7.26086L9.0631 32.9877H7.76223Z" fill="currentColor"/>
<path d="M64.7202 34.2969L62.4019 36.3838L64.4878 38.701L66.8061 36.6142L64.7202 34.2969Z" fill="currentColor"/>
<path d="M63.0648 30.3482L60.7476 32.4341L62.8335 34.7513L65.1507 32.6654L63.0648 30.3482Z" fill="currentColor"/>
<path d="M68.3343 33.2369L66.6001 34.8021L68.1684 36.5396L69.9025 34.9743L68.3343 33.2369Z" fill="currentColor"/>
<path d="M69.9894 29.4536L68.8325 30.4963L69.8753 31.6532L71.0322 30.6105L69.9894 29.4536Z" fill="currentColor"/>
<path d="M50.9597 35.3654L49.6974 39.4608H49.6306L48.2081 35.3668H46.9858L49.1189 40.9278C48.8519 41.7511 48.3861 42.3503 47.6296 42.3503V43.2596C48.9067 43.2596 49.5846 42.4601 50.1409 40.9249L52.1508 35.3654H50.9597Z" fill="currentColor"/>
<path d="M14.1536 37.8944C14.1551 36.0773 13.2992 35.1799 11.9094 35.1799C10.2421 35.1799 9.38623 36.4007 9.38623 38.0917C9.38623 39.8494 10.1546 41.0049 12.0206 41.0049C12.8201 41.0049 13.4876 40.7824 13.9875 40.4902V39.6492C13.3764 40.0126 12.8201 40.2262 12.2209 40.2262C11.0772 40.2262 10.5314 39.6388 10.5314 38.3023H14.1536V37.8944ZM10.5536 37.5562C10.6752 36.4467 11.1989 35.9231 11.8767 35.9231C12.4775 35.9231 13.0441 36.3874 13.099 37.5562H10.5536Z" fill="currentColor"/>
<path d="M71.3555 40.4117L69.6177 41.9775L71.1845 43.7164L72.9223 42.1506L71.3555 40.4117Z" fill="currentColor"/>
<path d="M46.6341 37.8944C46.637 36.0773 45.7797 35.1799 44.3913 35.1799C42.7226 35.1799 41.8682 36.4007 41.8682 38.0917C41.8682 39.8494 42.635 41.0049 44.5011 41.0049C45.3006 41.0049 45.9651 40.7824 46.4665 40.4902V39.6492C45.8568 40.0126 45.3006 40.2262 44.7013 40.2262C43.5577 40.2262 43.0103 39.6388 43.0103 38.3023H46.6341V37.8944ZM43.0326 37.5562C43.1572 36.4467 43.6808 35.9231 44.3587 35.9231C44.9564 35.9231 45.526 36.3874 45.5809 37.5562H43.0326Z" fill="currentColor"/>
<path d="M68.307 42.3815L66.042 44.47L62.218 40.2144L63.2815 39.2784L60.6041 36.2806L61.6736 35.3431L58.9562 32.3483L63.197 28.5302L64.5438 30.0047L66.8178 27.9755L68.1617 29.3683L69.0576 28.5658C68.8573 28.4501 68.6571 28.3433 68.4539 28.2469C67.1619 27.615 65.7112 27.259 64.1834 27.259C58.8182 27.259 54.4409 31.6348 54.4409 37.0015C54.4409 42.3667 58.8182 46.7425 64.1834 46.7425C65.9263 46.7425 67.5683 46.2812 68.9849 45.4727C69.4521 45.2087 69.8779 44.9224 70.2665 44.6213L68.307 42.3815Z" fill="currentColor"/>
<path d="M17.8236 35.18C17.2229 35.18 16.6563 35.4129 16.321 35.5909V32.4225L15.1655 32.6999V40.4591C15.833 40.8136 16.7438 41.0035 17.3341 41.0035C18.9465 41.0035 19.9463 39.9904 19.9463 37.9108C19.9463 36.1352 19.2016 35.18 17.8236 35.18ZM17.3341 40.2248C17.0553 40.2248 16.6681 40.204 16.3121 40.0482V36.4126C16.7571 36.1679 17.0805 36.0462 17.5225 36.0462C18.2672 36.0462 18.7804 36.5031 18.7804 37.9123C18.7804 39.713 18.1574 40.2248 17.3341 40.2248Z" fill="currentColor"/>
<path d="M39.0011 35.177C37.7225 35.177 36.6664 35.6991 36.1665 35.9988V40.867H37.3205V36.466C37.6647 36.2658 38.2328 36.0655 38.6763 36.0655C39.2474 36.0655 39.679 36.2213 39.679 37.0994V40.8685H40.8345V36.8457C40.8345 35.7021 40.3332 35.18 39.0011 35.177Z" fill="currentColor"/>
<path d="M27.4399 32.9877L25.0636 39.2013H25.0072L22.5167 32.9877H21.1729V40.87H22.1726V35.2883H22.272L24.54 40.87H25.2505L27.5185 35.1533H27.6179V40.87H28.8179V32.9877H27.4399Z" fill="currentColor"/>
<path d="M32.575 35.1799C31.108 35.1799 30.04 36.1471 30.04 38.0917C30.04 39.9918 31.0531 41.0049 32.575 41.0049C34.0984 41.0049 35.11 39.9918 35.11 38.0917C35.11 36.1456 34.042 35.1799 32.575 35.1799ZM32.575 40.2247C31.7859 40.2247 31.2074 39.6166 31.2074 38.0917C31.2074 36.5906 31.8423 35.9572 32.575 35.9572C33.3315 35.9572 33.9427 36.5906 33.9427 38.0917C33.9427 39.6151 33.3642 40.2247 32.575 40.2247Z" fill="currentColor"/>
</g>
<defs>
<clipPath id="clip0_120_2630">
<rect width="74" height="74" fill="currentColor"/>
</clipPath>
</defs>
</svg>
