<svg width="30" height="30" viewBox="0 0 30 30" fill="none" xmlns="http://www.w3.org/2000/svg">
<g id="instagram (1) 1" clip-path="url(#clip0_578_246)">
<path id="Vector" d="M15.0051 7.29749C10.7514 7.29749 7.30762 10.745 7.30762 14.995C7.30762 19.2487 10.7551 22.6925 15.0051 22.6925C19.2589 22.6925 22.7026 19.245 22.7026 14.995C22.7026 10.7412 19.2551 7.29749 15.0051 7.29749ZM15.0051 19.9912C12.2439 19.9912 10.0089 17.755 10.0089 14.995C10.0089 12.235 12.2451 9.99874 15.0051 9.99874C17.7651 9.99874 20.0014 12.235 20.0014 14.995C20.0026 17.755 17.7664 19.9912 15.0051 19.9912Z" fill="white"/>
<path id="Vector_2" d="M21.1848 0.0949658C18.4248 -0.0337843 11.5885 -0.0275343 8.82605 0.0949658C6.39855 0.208716 4.2573 0.794966 2.53105 2.52122C-0.353954 5.40622 0.0147958 9.29372 0.0147958 14.995C0.0147958 20.83 -0.310204 24.6275 2.53105 27.4687C5.4273 30.3637 9.37105 29.985 15.0048 29.985C20.7848 29.985 22.7798 29.9887 24.8235 29.1975C27.6023 28.1187 29.6998 25.635 29.9048 21.1737C30.0348 18.4125 30.0273 11.5775 29.9048 8.81497C29.6573 3.54872 26.831 0.354966 21.1848 0.0949658ZM25.5535 25.56C23.6623 27.4512 21.0385 27.2825 14.9685 27.2825C8.71855 27.2825 6.2123 27.375 4.38355 25.5412C2.2773 23.445 2.65855 20.0787 2.65855 14.975C2.65855 8.06872 1.9498 3.09497 8.88105 2.73997C10.4735 2.68372 10.9423 2.66497 14.951 2.66497L15.0073 2.70247C21.6685 2.70247 26.8948 2.00497 27.2085 8.93497C27.2798 10.5162 27.296 10.9912 27.296 14.9937C27.2948 21.1712 27.4123 23.6925 25.5535 25.56Z" fill="white"/>
<path id="Vector_3" d="M23.0077 8.79245C24.0012 8.79245 24.8065 7.98712 24.8065 6.9937C24.8065 6.00027 24.0012 5.19495 23.0077 5.19495C22.0143 5.19495 21.209 6.00027 21.209 6.9937C21.209 7.98712 22.0143 8.79245 23.0077 8.79245Z" fill="white"/>
</g>
<defs>
<clipPath id="clip0_578_246">
<rect width="30" height="30" fill="white"/>
</clipPath>
</defs>
</svg>
